<?xml version="1.0" encoding="utf-8"?>
<!-- Generator: Adobe Illustrator 15.1.0, SVG Export Plug-In . SVG Version: 6.00 Build 0)  -->
<!DOCTYPE svg PUBLIC "-//W3C//DTD SVG 1.1//EN" "http://www.w3.org/Graphics/SVG/1.1/DTD/svg11.dtd">
<svg version="1.1" xmlns="http://www.w3.org/2000/svg" xmlns:xlink="http://www.w3.org/1999/xlink" x="0px" y="0px"
	 width="1133.75px" height="1377.5px" viewBox="0 0 1133.75 1377.5" enable-background="new 0 0 1133.75 1377.5"
	 xml:space="preserve">
<g id="svg2" xmlns:svg="http://www.w3.org/2000/svg">
	<g id="g4933" transform="translate(63.944,77.173578)">
		<g id="g2612">
			<g id="g2631" transform="translate(-63.943823,-77.173578)">
				<path id="path16" fill="#3022EF" d="M826.04,159.218c4.992-3.327,9.917-7.978,10.806-14.2c0.778-5.222-3.164-9.415-6.903-12.421
					c-10.866-8.223-23.397-13.861-35.952-18.969c-27.099-10.82-55.449-18.031-83.821-24.612
					c-45.354-8.825-91.394-14.867-137.645-15.218c-49.579-0.397-99.019,5.917-147.624,15.419
					c-28.941,6.844-57.926,14.153-85.48,25.521c-11.578,4.836-23.062,10.244-33.142,17.8c-3.742,3.065-7.838,7.258-7.053,12.546
					c0.986,6.315,6.119,10.739,10.938,14.394c-4.919-0.422-9.448-2.534-14.106-3.993c-4.467-1.689-9.563-2.486-13.052-6.025
					c-4.323-4.192-6.892-9.761-10.585-14.456c-2.674-3.687-6.378-6.75-7.869-11.179c-2.921-7.933-5.187-16.121-8.782-23.794
					c-1.717-3.818-3.287-8.338-1.177-12.341c2.454-4.646,7.224-7.365,11.205-10.558c29.187-19.729,60.978-35.551,94.223-47.19
					c19.379-7.393,39.934-10.678,59.99-15.667c21.937-5.636,44.504-8.1,66.951-10.732C505.567,1.807,524.24,1.013,542.898,0h50.421
					c37.009,1.622,74.104,4.212,110.505,11.43c18.104,4.199,36.227,8.319,54.314,12.587c36.774,11.216,72.159,27.191,104.489,48.046
					c5.928,3.629,11.703,7.616,16.719,12.452c3.367,3.471,4.086,8.876,1.953,13.185c-3.688,8.136-6.445,16.63-9.32,25.073
					c-1.534,5.564-6.349,9.169-9.439,13.81c-4.383,5.773-7.357,13.549-14.684,16.224"/>
				<path id="path2629" fill="#3022EF" d="M831.348,160.952c5.998-1.347,12.12-2.706,17.565-5.683
					c8.797-4.688,15.397-12.699,19.823-21.509c13.132,3.292,26.072,7.348,39.058,11.196c25.474,8.137,50.354,18.041,75.941,25.837
					c2.128,0.828,4.904,1.024,6.102,3.286c-5.072,2.232-10.627,2.752-15.931,4.158c-9.458,2.327-18.827,5.02-28.386,6.906
					c-6.65,1.476-13.587,1.979-19.868,4.791c8.686,10.257,19.589,18.439,28.07,28.909c6.895,8.414,14.631,16.316,19.944,25.885
					c-2.823-0.234-5.592-0.782-8.221-1.789c-28.056-10.079-56.664-18.542-85.441-26.287c-22.933-6.387-46.135-11.727-69.49-16.308
					c-15.428-3.012-30.634-6.994-45.937-10.553c-0.552-3.764-1.617-8.344,1.461-11.345c5.5-5.622,13.579-7.292,20.86-9.428
					c13.676-3.217,27.572-5.781,41.528-7.248"/>
				<path id="path104" fill="#3022EF" d="M761.681,126.888c3.396-6.354,8.37-11.935,14.483-15.781
					c8.855,3.44,18.118,5.804,26.774,9.782c9.11,4.066,17.553,9.558,25.272,15.858c3.265,2.776,6.732,7.646,3.885,11.874
					c-2.478,3.666-6.083,6.48-9.725,8.921c-8.791,3.285-18.41,2.827-27.415,5.261c-10.542,2.556-21.791,4.628-30.53,11.492
					c-3.716,2.731-5.849,7.286-4.979,11.9c-6.442-2.045-14.028-5.335-16.151-12.387c-1.3-9.208,6.251-15.701,9.416-23.57
					C755.537,142.401,757.567,134.201,761.681,126.888z"/>
				<path id="path108" fill="#3022EF" d="M313.002,132.811c13.431-10.469,29.688-16.053,45.73-21.099
					c2.417-0.909,4.07,1.347,5.711,2.654c5.76,4.837,9.908,11.317,12.761,18.223c3.81,8.548,5.131,18.169,10.711,25.898
					c3.334,4.471,5.726,9.999,4.779,15.677c-2.067,6.953-9.687,9.688-15.79,12.125c0.791-5.232-2.113-10.066-6.33-12.945
					c-9.012-6.269-20.037-8.322-30.519-10.809c-8.593-2.205-17.767-1.728-26.104-4.957c-4.126-2.533-8.023-5.844-10.547-10.025
					C301.388,140.802,308.369,136.277,313.002,132.811z"/>
				<path id="path116" fill="#3022EF" d="M249.935,138.675c5.81-1.833,11.59-3.854,17.628-4.834
					c5.692,12.212,16.524,22.259,29.829,25.368c20.563,4.77,41.982,5.872,62.023,12.889c4.653,1.738,9.666,3.986,12.21,8.521
					c1.044,2.8,0.333,5.829,0.168,8.719c-31.823,9.31-64.885,13.732-96.898,22.377c-35.279,9.056-70.33,19.12-104.646,31.361
					c-2.458,0.967-5.058,1.466-7.687,1.645c6.322-11.412,15.823-20.657,24.025-30.708c7.132-7.463,14.754-14.453,22.089-21.721
					c1.18-0.702,1.893-2.934-0.097-3.16c-6.816-2.568-14.216-2.823-21.222-4.686c-9.485-2.006-18.8-4.7-28.219-6.976
					c-4.375-0.935-9.005-1.302-12.921-3.661c1.61-1.885,4.148-2.255,6.358-3.059C185.273,160.802,216.818,147.287,249.935,138.675z"
					/>
			</g>
		</g>
		<g id="g2635">
			<path id="path112" fill="#FFE900" d="M488.788,81.784l16.051-48.261l16.846,48.414l56.267,0.154l-43.952,34.495l13.711,52.121
				l-41.68-30.53l-45.859,32.679l17.782-53.738l-44.271-34.992L488.788,81.784z"/>
		</g>
		<g id="g2659" display="none">
			<path id="path120" display="inline" fill="#28146E" d="M372.243,240.218c42.541-30.158,95.421-46.614,147.649-42.281
				c48.177,3.556,94.285,24.06,131.241,54.819c36.323,30.004,64.439,69.087,84.629,111.467
				c22.653,47.441,35.842,98.993,42.287,151.04c5.596,44.681,5.906,89.87,3.318,134.782
				c-50.159-21.942-101.766-40.095-155.331-51.632l107.706-12.893L597.061,570.51l39.397-21.749l-45.609-0.334l32.426-32.801
				l-42.338,13.165l83.811-105.685L559.96,508.801l10.925-42.217l-31.336,31.363l-1.66-45.4l-19.518,39.048L502.879,358.06
				l-14.028,133.354l-20.703-34.377l-0.338,40.863l-30.433-28.995l10.97,39.882l-107.316-86.75l85.244,106.799l-41.331-13.091
				l32.517,33.89l-46.748-0.831l38.701,21.927l-139.722,14.485l107.668,13.42c-51.207,11.348-100.468,29.919-148.688,50.45
				c-0.968,0.407-1.971,0.693-3.009,0.86c-5.494-87.133,1.743-176.644,33.727-258.545
				C282.505,332.231,319.768,277.056,372.243,240.218z"/>
			<path id="path140" display="inline" fill="#F8C200" d="M502.879,358.06l15.491,133.535l18.96-37.729l2.218,44.081l31.336-31.363
				l-10.925,42.217l104.788-85.694l-83.811,105.685l42.338-13.165l-32.426,32.801l45.609,0.334l-39.397,21.749l136.682,15.011
				l-103.29,13.763c-103.567-21.722-154.184-17.503-253.093-0.647c-35.819-4.933-71.977-7.6-107.668-13.42l139.722-14.485
				l-38.701-21.927l46.748,0.831l-32.517-33.89l41.331,13.091l-85.244-106.799l107.316,86.75l-10.97-39.882l30.433,28.995
				l0.338-40.863l20.703,34.377L502.879,358.06z"/>
			<path id="path164" display="inline" fill="#28146E" d="M499.421,588.642c1.384-1.451,2.785-2.885,4.2-4.302
				c1.057,0.912,2.116,1.827,3.16,2.791c76.967,77.609,153.492,155.654,230.461,233.262c-11.515,32.111-28.9,62.156-50.702,88.39
				c-60.842-59.278-120.863-119.395-181.741-178.639c-64.278,55.048-123.315,118.619-183.454,178.792
				c-0.402-0.292-1.208-0.876-1.61-1.168c-21.623-25.663-37.806-55.436-50.505-86.377c16.656-17.653,34.156-34.521,51.138-51.872
				C379.889,709.065,439.882,649.079,499.421,588.642z"/>
			<path id="path180" display="inline" fill="#F8C200" d="M502.266,730.113c0.864-0.892,1.708-0.882,2.533,0.031
				c60.976,59.144,120.716,119.55,181.741,178.639c-41.467,50.123-101.53,81.913-166.203,86.11
				c-8.863,1.417-17.875,0.703-26.811,0.799c-76.168-6.451-120.723-33.476-171.398-84.343c-0.195-0.604-0.587-1.81-0.783-2.413
				C381.696,849.374,441.727,789.485,502.266,730.113z"/>
		</g>
		<g id="g4774">
			<path id="path336" fill="#3022EF" d="M952.245,1000.513c34.768-8.563,60.764-4.311,88.779,21.058
				c21.403,24.304,7.146,54.258-0.662,81.209c-4.837,23.337-15.187,42.269-35.606,55.015c-25.732,13.03-53.597,22.27-82.371,25.215
				c-43.219,3.915-82.8-15.741-124.312-23.248c-80.424-15.475-161.482,5.296-241.999,9.941
				c-83.357,6.04-166.218-5.786-248.865-14.825c-68.709-9.84-131.145,17.361-197.292,28.186
				c-38.618,1.147-91.232-9.897-121.281-36.603c-20.638-34.47-50.209-93.695-17.345-128.481
				c29.814-22.404,49.586-25.027,84.005-17.601c2.976,3.433-27.719,11.459-31.427,12.628c-58.779,16.256-28.532,41.84,12.217,45.736
				l102.276-9.53c43.828-5.189,87.65-10.105,131.554-14.472c0.247-1.465,0.542-2.905,0.886-4.319
				c-0.096,1.069-0.289,3.208-0.385,4.277c92.103,0.625,181.651,13.396,274.366,13.765c63.913-7.409,127.688-13.584,192.068-13.635
				c56.419,4.244,112.388,12.815,168.712,18.013c34.952,6.727,69.056,8.159,103.709-0.851c23.748-9.172,13.928-21.49-4.228-30.891
				C994.624,1012.439,958.888,1009.861,952.245,1000.513z"/>
		</g>
		<g id="g4685">
			<path id="path124" fill="#008F3D" d="M756.902,239.003c21.431,19.234,46.497,34.18,66.68,55.244
				c23.686,26.229,32.826,58.668,34.292,93.171c-30.424-10.323-65.698-64.741-79.024-88.41
				C772.525,279.456,756.434,260.407,756.902,239.003z"/>
			<path id="path132" fill="#008F3D" d="M865.337,314.163c42.197,55.107,55.104,94.869,25.063,159.184
				c-62.054-10.224-88.521-77.802-106.235-130.358c15.03,41.424,49.839,63.532,86.238,84.758
				C881.367,388.762,871.124,350.748,865.337,314.163z"/>
			<path id="path148" fill="#008F3D" d="M928.316,392.736c42.023,71.581-5.903,126.63-27.109,192.259
				c-0.695-0.07-2.085-0.212-2.78-0.282c-33.528-51.172-75.405-91.71-89.153-154.406c15.545,32.638,50.04,67.322,80.664,87.293
				c1.319,0.724,3.573,1.733,4.762,0.27C926.67,478.101,923.236,440.105,928.316,392.736z"/>
			<path id="path156" fill="#008F3D" d="M969.589,495.41c17.215,82.159-31,123.73-64.426,187.76
				c-1.773,3.759-3.815,7.556-3.879,11.83c-0.681-0.104-2.043-0.31-2.724-0.413c-31.64-61.079-61.929-115.883-76.979-184.314
				c5.193,13.139,67.621,114.555,80.157,110.441C939.201,584.373,953.72,543.818,969.589,495.41z"/>
			<path id="path160" fill="#008F3D" d="M986.864,593.404c1.742-5.428,1.852-11.196,2.395-16.822
				c8.749,80.202-26.984,137.158-75.915,194.857c-6.384,8.517-16.924,16.266-19.589,27.069c-0.397-0.08-1.191-0.242-1.589-0.322
				c-5.845-21.886-16.3-42.625-26.148-63.01c-20.062-36.898-31.451-75.442-31.631-117.479c12.668,29.17,28.132,55.07,45.268,82.395
				c5.774,5.05,13.938,30.075,20.411,31.201c7.411-14.662,19.388-26.179,29.38-39.023
				C954.168,663.022,974.562,629.759,986.864,593.404z"/>
			<path id="path176" fill="#008F3D" d="M994.622,675.827l1.87-0.532c-0.038,15.938-2.304,31.729-3.753,47.578
				c-5.641,50.683-31.928,87.026-63.828,124.083c-6.622,7.73-14.189,14.563-21.903,21.164c-23.524,1.553-33.426,6.782-39.934-16.72
				c-8.074-33.846-32.227-61.515-38.603-95.937c-2.761-20.153,0.986-40.337,2.719-60.392
				c13.207,48.491,36.154,94.384,55.384,140.999c29.165-33.829,61.245-64.978,84.988-103.062
				C981.163,714.82,991.017,696.305,994.622,675.827z"/>
			<path id="path188" fill="#008F3D" d="M809.933,772.62c5.84,33.469,19.803,64.247,33.071,95.149
				c-13.128-0.451-26.096-2.153-39.195-3.164C803.624,833.458,802.421,803.197,809.933,772.62z"/>
			<path id="path196" fill="#008F3D" d="M990.545,798.891c-5.089,20.503-8.524,40.507-10.463,61.594
				c-13.516,2.536-26.662,3.54-39.992,5.063C958.263,845.154,980.264,824.863,990.545,798.891z"/>
			<path id="path220" fill="#008F3D" d="M785.16,836.482c3.105,8.866,4.846,18.124,6.45,27.362
				c-8.88-0.605-17.797-0.229-26.687-0.322C769.995,855.182,775.133,840.267,785.16,836.482z"/>
			<path id="path268" fill="#008F3D" d="M965.503,914.806c-3.519,13.677-6.662,28.706-12.777,41.53
				c-4.077-4.558-24.862-13.189-22.179-21.181C940.941,926.999,953.855,921.125,965.503,914.806z"/>
			<path id="path324" fill="#008F3D" d="M756.427,983.1c13.351,0.361,26.622,2.06,39.847,3.984
				c0.924,10.764,2.598,21.542,5.464,31.97c13.38-4.954,23.755-26.083,38.336-26.614c22.286,3.589,44.713,6.392,67.071,9.582
				c-18.884,19.509-45.773,31.614-70.201,43.211c-22.039-2.382-44.155-4.263-66.074-7.696
				C762.4,1020.461,756.991,1002.199,756.427,983.1z"/>
			<path id="path348" fill="#008F3D" d="M932.246,1012.794c-2.044,16.662-13.754,30.256-26.683,40.047
				c-12.777-0.978-24.166-2.579-37.507-3.654C893.811,1044.868,910.738,1025.336,932.246,1012.794z"/>
			<path id="path304" fill="#008F3D" d="M670.361,1002.918c-2.843,2.618-6.233,4.926-8,8.469c-1.729,5.41-6.27,9.142-10.594,12.5
				c-2.885,2.045-4.528,5.246-6.719,7.938c-1.536,2.034-3.579,3.938-3.75,6.656c8.414-0.574,16.836-1.208,25.25-1.781
				c1.151-7.476,1.337-15.088,2.031-22.625C669.047,1010.325,670.104,1006.684,670.361,1002.918z"/>
			<path id="path4683" fill="#008F3D" d="M697.142,980.762l-5.75,54.469c15.129-0.724,30.296-1.031,45.469-0.406
				c-5.931-17.767-15.175-34.982-18.5-53.5C711.348,980.168,704.204,981.151,697.142,980.762z"/>
		</g>
		<g id="g4720" transform="matrix(-1,0,0,1,779.3459,0)">
			<path id="path4722" fill="#008F3D" d="M530.093,239.003c21.431,19.234,46.498,34.18,66.68,55.244
				c23.686,26.229,32.826,58.668,34.292,93.171c-30.424-10.323-65.698-64.741-79.024-88.41
				C545.716,279.456,529.626,260.407,530.093,239.003z"/>
			<path id="path4724" fill="#008F3D" d="M638.528,314.163c42.197,55.107,55.104,94.869,25.063,159.184
				c-62.054-10.224-88.521-77.802-106.235-130.358c15.03,41.424,49.839,63.532,86.238,84.758
				C654.558,388.762,644.315,350.748,638.528,314.163z"/>
			<path id="path4726" fill="#008F3D" d="M701.507,392.736c42.023,71.581-5.903,126.63-27.109,192.259
				c-0.695-0.07-2.085-0.212-2.78-0.282c-33.528-51.172-75.404-91.71-89.153-154.406c15.545,32.638,50.04,67.322,80.664,87.293
				c1.319,0.724,3.573,1.733,4.762,0.27C699.862,478.101,696.427,440.105,701.507,392.736z"/>
			<path id="path4728" fill="#008F3D" d="M742.782,495.41c17.214,82.159-31,123.73-64.427,187.76
				c-1.773,3.759-3.815,7.556-3.879,11.83c-0.681-0.104-2.043-0.31-2.724-0.413c-31.64-61.079-61.929-115.883-76.979-184.314
				c5.194,13.139,67.621,114.555,80.157,110.441C712.392,584.373,726.912,543.818,742.782,495.41z"/>
			<path id="path4730" fill="#008F3D" d="M760.055,593.404c1.742-5.428,1.852-11.196,2.395-16.822
				c8.749,80.202-26.983,137.158-75.915,194.857c-6.384,8.517-16.924,16.266-19.589,27.069c-0.397-0.08-1.191-0.242-1.589-0.322
				c-5.845-21.886-16.3-42.625-26.148-63.01c-20.062-36.898-31.451-75.442-31.631-117.479c12.668,29.17,28.132,55.07,45.268,82.395
				c5.774,5.05,13.938,30.075,20.411,31.201c7.411-14.662,19.388-26.179,29.38-39.023
				C727.359,663.022,747.754,629.759,760.055,593.404z"/>
			<path id="path4732" fill="#008F3D" d="M767.813,675.827l1.871-0.532c-0.039,15.938-2.305,31.729-3.754,47.578
				c-5.641,50.683-31.927,87.026-63.828,124.083c-6.622,7.73-14.189,14.563-21.903,21.164c-23.524,1.553-33.426,6.782-39.934-16.72
				c-8.074-33.846-32.227-61.515-38.603-95.937c-2.761-20.153,0.986-40.337,2.719-60.392
				c13.207,48.491,36.154,94.384,55.384,140.999c29.165-33.829,61.246-64.978,84.989-103.062
				C754.354,714.82,764.209,696.305,767.813,675.827z"/>
			<path id="path4734" fill="#008F3D" d="M583.125,772.62c5.84,33.469,19.804,64.247,33.071,95.149
				c-13.128-0.451-26.096-2.153-39.195-3.164C576.815,833.458,575.612,803.197,583.125,772.62z"/>
			<path id="path4736" fill="#008F3D" d="M763.736,798.891c-5.089,20.503-8.524,40.507-10.463,61.594
				c-13.516,2.536-26.662,3.54-39.992,5.063C731.455,845.154,753.456,824.863,763.736,798.891z"/>
			<path id="path4738" fill="#008F3D" d="M558.351,836.482c3.105,8.866,4.846,18.124,6.45,27.362
				c-8.88-0.605-17.797-0.229-26.687-0.322C543.186,855.182,548.325,840.267,558.351,836.482z"/>
			<path id="path4740" fill="#008F3D" d="M738.694,914.806c-3.519,13.677-6.662,28.706-12.777,41.53
				c-4.077-4.558-24.862-13.189-22.179-21.181C714.132,926.999,727.047,921.125,738.694,914.806z"/>
			<path id="path4742" fill="#008F3D" d="M529.619,983.1c13.352,0.361,26.622,2.06,39.847,3.984
				c0.924,10.764,2.598,21.542,5.464,31.97c13.38-4.954,23.755-26.083,38.336-26.614c22.286,3.589,44.713,6.392,67.071,9.582
				c-18.884,19.509-45.772,31.614-70.201,43.211c-22.039-2.382-44.155-4.263-66.074-7.696
				C535.592,1020.461,530.182,1002.199,529.619,983.1z"/>
			<path id="path4744" fill="#008F3D" d="M705.437,1012.794c-2.044,16.662-13.754,30.256-26.683,40.047
				c-12.777-0.978-24.166-2.579-37.507-3.654C667.003,1044.868,683.929,1025.336,705.437,1012.794z"/>
			<path id="path4746" fill="#008F3D" d="M443.552,1002.918c-2.843,2.618-6.233,4.926-8,8.469c-1.729,5.41-6.27,9.142-10.594,12.5
				c-2.885,2.045-4.528,5.246-6.719,7.938c-1.536,2.034-3.579,3.938-3.75,6.656c8.414-0.574,16.836-1.208,25.25-1.781
				c1.151-7.476,1.337-15.088,2.031-22.625C442.238,1010.325,443.296,1006.684,443.552,1002.918z"/>
			<path id="path4748" fill="#008F3D" d="M470.334,980.762l-5.75,54.469c15.129-0.724,30.296-1.031,45.469-0.406
				c-5.931-17.767-15.175-34.982-18.5-53.5C484.54,980.168,477.395,981.151,470.334,980.762z"/>
		</g>
		<g id="g4795">
			<path id="path200" fill="#3022EF" d="M339.254,983.588c9.987,2.719,22.385,12.973,15.287,23.995
				c-3.047,2.595-7.199,3.289-11.054,3.815c1.729,5.409,6.286,9.13,10.61,12.487l1.248,0.896
				c19.993-9.219,16.351-29.369,9.849-46.409c-25.075-27.251-50.858-53.212-75.799-81.332c-26.47-28.174-36.038-35.2-75.144-33.197
				c-79.643,7.245-163.959,10.921-239.257-19.664c-13.214-6.003-25.52-13.891-38.939-19.413
				c24.249,56.425,91.855,79.676,139.26,110.389c-11.695,26.776-55.971,34.567-80.591,43.888
				c31.531,17.931,68.195,23.407,103.992,22.979c52.348-7.31,91.611-16.006,157.303-19.815"/>
		</g>
		<g id="g4805">
			<path id="path4772" fill="#3022EF" d="M666.608,983.588c-6.376,1.809-12.755,5.412-15.862,11.512
				c-4.967,10.29,2.49,14.931,11.628,16.299c-1.729,5.409-6.285,9.13-10.61,12.487l-1.247,0.896
				c-33.323-17.989-7.561-51.736,11.852-69.343c20.447-17.115,36.112-38.9,54.099-58.398c26.47-28.174,36.037-35.2,75.144-33.197
				c79.643,7.245,163.959,10.921,239.256-19.664c13.215-6.003,25.521-13.891,38.94-19.413
				c-24.249,56.425-91.856,79.676-139.26,110.389c11.695,26.776,55.971,34.567,80.59,43.888
				c-31.53,17.931-68.194,23.407-103.991,22.979c-52.348-7.31-104.636-15.066-157.303-19.815"/>
		</g>
		<path id="path452" fill="#008F3D" d="M798.073,1159.761c3.322,0.6,6.655,1.187,9.94,2.038c-1.25,6.327-4.28,12.146-8.615,16.912
			c-8.567,9.527-19.273,16.868-30.149,23.521c-33.671,17.75-71.651,25.916-109.427,28.196c-14.599,0.856-29.189-0.285-43.774-0.702
			c-14.343-1.64-28.437-4.84-42.571-7.686c-16.722-3.324-34.226-3.937-50.791,0.599c0.229,0.33,0.688,0.989,0.916,1.318
			c25.033,11.856,47.396,28.714,68.055,47.032c8.997,8.94,19.829,16.381,26.753,27.184c-1.313,0.266-3.939,0.795-5.253,1.06
			c-1.392,0.697-21.081,1.093-21.081,1.093c-4.832-1.163-10.441-1.817-13.619-6.129c-5.463-7.495-10.201-15.523-16.077-22.716
			c-7.635-9.874-17.104-18.2-27.344-25.272c-9.963-6.49-20.916-11.203-31.523-16.489c-15.247,6.618-30.601,13.833-43.197,24.898
			c-13.012,10.497-22.376,24.57-31.489,38.388c-3.056,5.388-9.761,6.248-15.251,7.32h-12.771c-4.359-0.89-8.936-0.456-13.089-2.27
			c4.393-6.683,10.494-11.875,16.359-17.193c15.702-15.267,32.808-29.072,50.957-41.325c9.185-6.188,19.235-10.938,28.571-16.851
			c-17.161-4.852-35.388-3.856-52.68-0.241c-13.235,2.745-26.489,5.525-39.9,7.24c-17.074,0.465-34.18,1.897-51.24,0.26
			c-35.673-2.772-71.345-11.124-103.126-27.937c-11.056-6.844-21.997-14.304-30.526-24.24c-3.628-4.443-6.994-9.547-7.338-15.438
			c3.153-0.901,6.37-1.538,9.605-2.052c12.47,7.154,25.387,15.193,40.213,15.824c16.645,0.172,33.294,0.07,49.94,0.169
			c16.624,1.333,33.355,0.373,49.98,1.836c19.667-0.084,39.246,2.215,58.62,5.446c31.107,5.873,61.958,14.162,90.754,27.514
			c2.81,1.544,6.25,2.286,9.181,0.548c15.981-7.335,32.524-13.473,49.478-18.152c32.769-9.271,66.662-15.233,100.779-15.389
			c16.594-1.413,33.299-0.457,49.895-1.804c16.662-0.094,33.326-0.027,49.99-0.142
			C772.239,1175.388,785.788,1167.834,798.073,1159.761z"/>
	</g>
	<circle fill="#FFE900" cx="566.875" cy="441.25" r="124.333"/>
	<path fill="#3022EF" d="M285.642,673.75c0,220.535,125.913,399.313,281.233,399.313c155.321,0,281.233-178.777,281.233-399.313
		c0-12.273-0.393-24.416-1.155-36.407H286.798C286.034,649.334,285.642,661.477,285.642,673.75z"/>
	<path fill="#FFE900" d="M775.823,941.018c14.625-23.035,27.387-48.5,37.95-75.919H319.978
		c10.563,27.419,23.325,52.884,37.95,75.919H775.823z"/>
	<path fill="#FFE900" d="M836.175,789.181c5.182-24.403,8.763-49.791,10.569-75.919H287.006c1.808,26.128,5.389,51.516,10.57,75.919
		H836.175z"/>
	<path fill="#008F3D" d="M487.626,439.01c21.283,12.602,15.682,32.042,1.68,40.804c50.406-15.321,32.484,31.725,32.484,31.725
		s17.914-15.87,31.752-10.896v136.701h26.667V507.539c6.455-0.889,13.001,2.971,15.51,7.36c1.68-14.562-11.762-31.364,42.005-21.843
		c-12.881-22.403-40.885-42.378,8.401-51.713c-23.523-4.854-52.646-17.176-22.963-47.98C581.717,420.248,574.375,386,576.49,362
		c-35.098,4.48-58.621,43.686-82.704,25.203C493.786,387.203,521.23,424.728,487.626,439.01z"/>
</g>
<g id="Camada_2">
	<g>
		<path fill="#FFFFFF" d="M297.909,117.568L279.6,84.749l23.176-12.929l3.097,5.552l-16.865,9.408l4.059,7.276l15.692-8.754
			l3.085,5.53l-15.692,8.754l4.983,8.933l17.462-9.742l3.084,5.529L297.909,117.568z"/>
		<path fill="#FFFFFF" d="M318.934,92.517l6.146-3.492c1.386,2.098,2.906,3.417,4.558,3.958c1.653,0.542,3.484,0.37,5.495-0.516
			c2.13-0.938,3.526-2.118,4.189-3.541c0.663-1.422,0.715-2.766,0.158-4.033c-0.358-0.813-0.891-1.405-1.596-1.776
			c-0.706-0.37-1.718-0.518-3.036-0.441c-0.899,0.06-2.884,0.337-5.957,0.832c-3.952,0.639-6.938,0.602-8.961-0.114
			c-2.844-1.006-4.866-2.871-6.065-5.592c-0.771-1.751-1.021-3.598-0.747-5.54c0.274-1.941,1.125-3.703,2.554-5.285
			c1.428-1.582,3.401-2.927,5.918-4.036c4.111-1.811,7.622-2.228,10.534-1.251s5.115,3.022,6.611,6.135l-6.479,3.218
			c-1.062-1.642-2.229-2.646-3.5-3.01c-1.272-0.364-2.839-0.136-4.701,0.685c-1.921,0.846-3.244,1.924-3.965,3.231
			c-0.466,0.84-0.502,1.706-0.11,2.597c0.358,0.813,0.993,1.365,1.903,1.655c1.158,0.368,3.521,0.242,7.09-0.378
			c3.568-0.62,6.312-0.843,8.229-0.67c1.917,0.174,3.637,0.807,5.159,1.901c1.522,1.094,2.763,2.729,3.72,4.902
			c0.868,1.971,1.16,4.046,0.875,6.226c-0.285,2.18-1.196,4.108-2.734,5.784c-1.539,1.677-3.729,3.142-6.574,4.395
			c-4.141,1.825-7.764,2.221-10.868,1.189C323.676,98.519,321.061,96.174,318.934,92.517z"/>
		<path fill="#FFFFFF" d="M361.72,88.49l-8.79-29.96l-10.19,2.99l-1.79-6.101l27.292-8.007l1.79,6.101l-10.167,2.983l8.79,29.96
			L361.72,88.49z"/>
		<path fill="#FFFFFF" d="M409.552,76.883l-7.67,1.725l-4.922-7.642l-13.958,3.14l-1.009,8.977l-7.479,1.683l5.353-39.724
			l7.456-1.677L409.552,76.883z M393.307,65.297l-7.872-12.523L383.78,67.44L393.307,65.297z"/>
		<path fill="#FFFFFF" d="M445.409,69.216l-5.172-30.792l-10.473,1.759l-1.053-6.27l28.05-4.711l1.053,6.27l-10.449,1.755
			l5.172,30.792L445.409,69.216z"/>
		<path fill="#FFFFFF" d="M465.949,65.873l-4.467-37.314l26.35-3.154l0.756,6.313l-19.175,2.295l0.99,8.272l17.841-2.136
			l0.752,6.287l-17.841,2.136l1.216,10.156l19.854-2.376l0.752,6.287L465.949,65.873z"/>
		<path fill="#FFFFFF" d="M497.422,62.219l-2.659-37.486l15.172-1.076c3.815-0.271,6.611-0.13,8.388,0.42s3.246,1.65,4.407,3.298
			c1.161,1.648,1.82,3.581,1.978,5.796c0.2,2.813-0.423,5.191-1.868,7.135c-1.445,1.945-3.717,3.267-6.816,3.966
			c1.626,0.844,2.987,1.802,4.083,2.872c1.096,1.07,2.607,3.001,4.535,5.794l4.878,7.004l-8.621,0.612l-5.79-7.788
			c-2.058-2.784-3.454-4.53-4.19-5.241c-0.735-0.71-1.495-1.179-2.278-1.406c-0.783-0.227-2.002-0.282-3.659-0.165l-1.461,0.104
			l1.11,15.649L497.422,62.219z M503.095,40.074l5.333-0.378c3.458-0.246,5.606-0.552,6.445-0.92
			c0.838-0.368,1.475-0.944,1.909-1.729c0.434-0.784,0.611-1.739,0.531-2.864c-0.09-1.261-0.482-2.257-1.179-2.987
			c-0.697-0.73-1.636-1.156-2.82-1.278c-0.59-0.044-2.347,0.038-5.269,0.245l-5.625,0.399L503.095,40.074z"/>
		<path fill="#FFFFFF" d="M531.784,59.924l-0.91-37.569l15.205-0.369c3.824-0.092,6.61,0.178,8.36,0.811
			c1.749,0.633,3.165,1.8,4.249,3.5c1.083,1.7,1.651,3.661,1.706,5.882c0.068,2.819-0.665,5.166-2.198,7.041
			c-1.534,1.875-3.866,3.089-6.994,3.644c1.585,0.919,2.9,1.939,3.945,3.059c1.044,1.12,2.465,3.12,4.26,6l4.546,7.224l-8.64,0.209
			l-5.421-8.049c-1.926-2.876-3.239-4.687-3.941-5.43c-0.702-0.744-1.438-1.247-2.21-1.511c-0.772-0.263-1.987-0.375-3.647-0.334
			l-1.464,0.035l0.38,15.684L531.784,59.924z M538.483,38.069l5.345-0.129c3.466-0.084,5.626-0.291,6.481-0.619
			c0.854-0.329,1.517-0.874,1.987-1.638c0.47-0.763,0.691-1.709,0.664-2.836c-0.03-1.264-0.377-2.277-1.038-3.039
			c-0.662-0.762-1.581-1.231-2.757-1.408c-0.587-0.071-2.346-0.071-5.275,0l-5.638,0.137L538.483,38.069z"/>
		<path fill="#FFFFFF" d="M598.508,59.783l-7.86-0.134l-2.979-8.588l-14.305-0.243l-3.099,8.485l-7.665-0.13l14.577-37.338
			l7.641,0.13L598.508,59.783z M585.456,44.691l-4.693-14.027l-5.07,13.861L585.456,44.691z"/>
		<path fill="#FFFFFF" d="M626.7,61.391l3.417-37.425l26.428,2.413l-0.578,6.331l-19.231-1.756l-0.758,8.297l17.895,1.634
			l-0.575,6.306l-17.895-1.634l-0.931,10.186l19.913,1.818l-0.576,6.305L626.7,61.391z M639.454,22.657l4.052-7.327l7.659,0.699
			l-7.383,7.022L639.454,22.657z"/>
		<path fill="#FFFFFF" d="M685.787,68.232l6.977-36.927l6.909,1.305l9.734,27.379l4.659-24.66l6.597,1.246l-6.976,36.928
			l-7.125-1.346l-9.629-26.759l-4.55,24.081L685.787,68.232z"/>
		<path fill="#FFFFFF" d="M722.275,56.858c0.831-3.736,2.061-6.754,3.689-9.054c1.21-1.691,2.667-3.127,4.372-4.306
			c1.704-1.179,3.454-1.945,5.25-2.299c2.392-0.483,5.01-0.409,7.854,0.223c5.148,1.145,8.895,3.737,11.238,7.778
			c2.345,4.04,2.854,9.047,1.525,15.019c-1.317,5.922-3.881,10.215-7.691,12.877c-3.81,2.663-8.281,3.424-13.413,2.283
			c-5.195-1.155-8.956-3.738-11.282-7.748C721.49,67.621,720.977,62.698,722.275,56.858z M729.6,58.224
			c-0.924,4.154-0.711,7.506,0.64,10.056s3.432,4.138,6.244,4.763c2.812,0.625,5.356,0.075,7.633-1.651
			c2.275-1.726,3.887-4.716,4.833-8.97c0.935-4.204,0.754-7.536-0.541-9.995c-1.296-2.459-3.397-4.012-6.305-4.658
			s-5.484-0.121-7.729,1.577C732.13,51.045,730.538,54.004,729.6,58.224z"/>
		<path fill="#FFFFFF" d="M757.516,70.792l6.959,1.236c-0.272,2.5,0.055,4.485,0.981,5.957c0.926,1.473,2.445,2.51,4.559,3.112
			c2.238,0.638,4.066,0.621,5.484-0.05s2.317-1.672,2.696-3.003c0.243-0.854,0.212-1.65-0.095-2.386
			c-0.307-0.736-0.991-1.496-2.054-2.278c-0.73-0.528-2.436-1.582-5.115-3.164c-3.449-2.031-5.724-3.967-6.824-5.809
			c-1.546-2.591-1.912-5.316-1.097-8.176c0.524-1.841,1.512-3.421,2.962-4.74c1.451-1.319,3.23-2.131,5.341-2.437
			c2.108-0.306,4.486-0.081,7.132,0.673c4.32,1.231,7.288,3.152,8.905,5.763s2.007,5.592,1.171,8.943l-7.041-1.66
			c0.231-1.942-0.026-3.459-0.772-4.551s-2.098-1.917-4.055-2.475c-2.019-0.576-3.725-0.59-5.115-0.045
			c-0.895,0.349-1.476,0.992-1.742,1.929c-0.244,0.855-0.108,1.685,0.407,2.489c0.656,1.022,2.557,2.434,5.698,4.236
			c3.143,1.802,5.396,3.381,6.761,4.738c1.365,1.358,2.284,2.943,2.757,4.757c0.474,1.814,0.385,3.864-0.267,6.148
			c-0.59,2.071-1.69,3.854-3.302,5.35c-1.61,1.496-3.543,2.398-5.797,2.706c-2.255,0.308-4.876,0.037-7.866-0.815
			c-4.352-1.24-7.393-3.248-9.123-6.024S756.818,74.965,757.516,70.792z"/>
		<path fill="#FFFFFF" d="M788.71,80.062l6.739,2.13c-0.595,2.443-0.528,4.454,0.198,6.034s2.099,2.806,4.116,3.677
			c2.136,0.923,3.951,1.145,5.444,0.663c1.493-0.481,2.515-1.357,3.063-2.627c0.353-0.815,0.425-1.608,0.217-2.378
			c-0.209-0.77-0.789-1.612-1.741-2.526c-0.655-0.618-2.209-1.885-4.661-3.801c-3.155-2.462-5.159-4.677-6.011-6.646
			c-1.196-2.77-1.205-5.52-0.025-8.249c0.759-1.757,1.943-3.196,3.553-4.315c1.61-1.12,3.48-1.694,5.611-1.723
			c2.131-0.028,4.459,0.503,6.984,1.594c4.124,1.782,6.817,4.073,8.082,6.871c1.264,2.799,1.263,5.806-0.002,9.02l-6.766-2.561
			c0.482-1.895,0.424-3.433-0.174-4.613c-0.599-1.18-1.831-2.173-3.699-2.98c-1.927-0.833-3.616-1.069-5.065-0.709
			c-0.934,0.23-1.593,0.792-1.979,1.687c-0.353,0.816-0.326,1.656,0.081,2.52c0.518,1.099,2.218,2.746,5.099,4.94
			c2.882,2.195,4.911,4.054,6.088,5.577c1.177,1.523,1.882,3.215,2.115,5.075c0.233,1.86-0.121,3.881-1.063,6.061
			c-0.854,1.977-2.178,3.602-3.969,4.875c-1.792,1.274-3.825,1.917-6.1,1.93c-2.275,0.013-4.84-0.597-7.693-1.83
			c-4.154-1.795-6.908-4.181-8.264-7.159C787.535,87.621,787.476,84.109,788.71,80.062z"/>
		<path fill="#FFFFFF" d="M842.442,119.886l-6.852-3.855l1.462-8.972l-12.469-7.015l-6.76,5.991l-6.682-3.759l30.576-25.918
			l6.66,3.747L842.442,119.886z M838.135,100.404l2.54-14.572l-11.051,9.784L838.135,100.404z"/>
	</g>
	<g>
		<path fill="#FFFFFF" d="M180.993,1041.05l-8.519,1.469l-6.646-38.522c-2.51,4.029-5.732,7.245-9.667,9.646l-1.601-9.275
			c2.072-1.257,4.202-3.329,6.389-6.216c2.186-2.887,3.484-6.039,3.894-9.456l6.912-1.192L180.993,1041.05z"/>
		<path fill="#FFFFFF" d="M184.766,999.105c-0.573-4.343-0.058-7.849,1.544-10.518s4.01-4.215,7.223-4.639
			c3.191-0.422,5.914,0.454,8.166,2.627s3.663,5.418,4.232,9.736s0.053,7.813-1.549,10.481s-4.01,4.215-7.223,4.639
			s-5.938-0.438-8.176-2.588C186.745,1006.695,185.339,1003.448,184.766,999.105z M191.211,998.329
			c0.354,2.684,0.982,4.543,1.884,5.578c0.901,1.035,1.952,1.474,3.152,1.315c1.199-0.158,2.105-0.854,2.718-2.09
			s0.742-3.194,0.388-5.879c-0.354-2.684-0.987-4.542-1.899-5.576s-1.968-1.472-3.167-1.313c-1.2,0.158-2.102,0.849-2.706,2.069
			C190.977,993.656,190.853,995.62,191.211,998.329z"/>
		<path fill="#FFFFFF" d="M240.108,980.19l9.054-0.613l2.314,34.178c0.303,4.47,0.208,7.929-0.284,10.379
			c-0.667,3.203-2.092,5.834-4.275,7.893c-2.184,2.06-5.167,3.218-8.953,3.474c-4.44,0.301-7.958-0.959-10.554-3.78
			c-2.596-2.821-4.1-7.115-4.511-12.885l8.483-1.758c0.312,3.087,0.838,5.246,1.579,6.479c1.114,1.873,2.673,2.742,4.678,2.606
			c2.025-0.138,3.411-0.928,4.156-2.372c0.745-1.443,0.97-4.352,0.674-8.722L240.108,980.19z"/>
		<path fill="#FFFFFF" d="M301.17,1031.663l-9.898,0.381l-4.408-12.131l-18.013,0.693l-3.246,12.427l-9.652,0.372l15.468-54.752
			l9.621-0.371L301.17,1031.663z M283.593,1010.914l-6.982-19.827l-5.313,20.301L283.593,1010.914z"/>
		<path fill="#FFFFFF" d="M304.364,1031.655l-2.58-54.055l8.849-0.423l20.159,35.218l-1.723-36.098l8.45-0.403l2.581,54.055
			l-9.126,0.436l-19.842-34.383l1.683,35.25L304.364,1031.655z"/>
	</g>
	<g>
		<path fill="#FFFFFF" d="M839.885,1032.576l-8.638-0.336l1.517-39.063c-3.294,3.419-7.115,5.894-11.463,7.424l0.364-9.406
			c2.289-0.797,4.803-2.381,7.542-4.749c2.74-2.369,4.665-5.182,5.776-8.439l7.009,0.272L839.885,1032.576z"/>
		<path fill="#FFFFFF" d="M853.358,1020.462l8.403-0.787c0.127,2.05,0.602,3.582,1.425,4.599s1.942,1.552,3.355,1.606
			c1.783,0.067,3.337-0.857,4.663-2.777c1.324-1.919,2.28-5.971,2.866-12.155c-2.289,2.942-5.062,4.351-8.32,4.226
			c-3.545-0.135-6.541-1.894-8.987-5.275c-2.446-3.381-3.568-7.703-3.367-12.966c0.21-5.483,1.736-9.852,4.58-13.104
			s6.366-4.799,10.567-4.639c4.569,0.175,8.238,2.439,11.007,6.794c2.769,4.354,3.967,11.388,3.596,21.102
			c-0.379,9.886-2.179,16.959-5.398,21.219c-3.222,4.261-7.281,6.297-12.179,6.109c-3.524-0.135-6.33-1.368-8.416-3.701
			C855.066,1028.377,853.801,1024.962,853.358,1020.462z M873.775,998.562c0.128-3.345-0.414-5.964-1.624-7.857
			c-1.21-1.893-2.656-2.872-4.336-2.937c-1.599-0.061-2.954,0.645-4.067,2.117c-1.113,1.472-1.735,3.929-1.867,7.372
			c-0.134,3.492,0.342,6.077,1.427,7.757s2.488,2.552,4.21,2.617c1.66,0.063,3.089-0.67,4.286-2.2S873.657,1001.611,873.775,998.562
			z"/>
		<path fill="#FFFFFF" d="M888.342,1021.763l8.425-0.503c0.058,2.052,0.48,3.601,1.269,4.644c0.788,1.044,1.889,1.616,3.3,1.719
			c1.779,0.128,3.364-0.744,4.753-2.618c1.39-1.874,2.48-5.891,3.275-12.052c-2.387,2.863-5.205,4.177-8.458,3.942
			c-3.539-0.255-6.474-2.113-8.804-5.575c-2.331-3.462-3.307-7.819-2.928-13.072c0.395-5.474,2.067-9.788,5.02-12.943
			c2.951-3.155,6.524-4.581,10.718-4.278c4.561,0.328,8.151,2.716,10.771,7.16c2.619,4.445,3.58,11.516,2.881,21.211
			c-0.712,9.867-2.749,16.876-6.111,21.025c-3.363,4.149-7.489,6.048-12.378,5.695c-3.518-0.254-6.28-1.582-8.286-3.984
			C889.781,1029.731,888.633,1026.275,888.342,1021.763z M909.486,1000.563c0.24-3.338-0.212-5.974-1.357-7.906
			c-1.146-1.934-2.558-2.961-4.234-3.081c-1.596-0.115-2.975,0.544-4.137,1.978c-1.163,1.434-1.867,3.869-2.115,7.305
			c-0.251,3.486,0.137,6.086,1.165,7.801c1.027,1.715,2.4,2.635,4.118,2.758c1.657,0.12,3.11-0.564,4.358-2.054
			S909.266,1003.607,909.486,1000.563z"/>
		<path fill="#FFFFFF" d="M942.902,985.084c4.332,0.563,7.478,2.856,9.436,6.883c2.338,4.771,2.846,12.244,1.524,22.421
			c-1.318,10.152-3.73,17.259-7.235,21.32c-2.896,3.347-6.509,4.738-10.841,4.176c-4.353-0.565-7.6-3.028-9.742-7.389
			c-2.144-4.36-2.546-11.689-1.208-21.988c1.312-10.104,3.721-17.186,7.226-21.247C934.956,985.913,938.57,984.521,942.902,985.084z
			 M941.794,993.614c-1.037-0.135-2.015,0.142-2.931,0.829c-0.917,0.688-1.731,2.026-2.445,4.019
			c-0.936,2.584-1.812,7.023-2.629,13.32c-0.817,6.296-1.115,10.656-0.893,13.08s0.686,4.078,1.388,4.963
			c0.701,0.886,1.571,1.396,2.608,1.53s2.014-0.142,2.931-0.829c0.916-0.688,1.731-2.027,2.445-4.02
			c0.932-2.559,1.807-6.986,2.624-13.283c0.818-6.296,1.115-10.656,0.893-13.08c-0.224-2.423-0.685-4.084-1.385-4.981
			C943.699,994.264,942.831,993.747,941.794,993.614z"/>
	</g>
	<g>
		<path fill="#FFFFFF" d="M76.005,1214.138l12.211-56.168l12.465,2.71c4.724,1.027,7.741,1.978,9.054,2.852
			c2.021,1.321,3.468,3.556,4.342,6.701c0.873,3.146,0.824,6.954-0.147,11.424c-0.75,3.448-1.809,6.254-3.177,8.418
			c-1.368,2.164-2.858,3.771-4.471,4.826c-1.613,1.054-3.148,1.649-4.607,1.787c-1.971,0.133-4.715-0.183-8.231-0.947l-5.065-1.101
			l-4.606,21.188L76.005,1214.138z M93.918,1169.16l-3.465,15.938l4.251,0.925c3.062,0.665,5.172,0.817,6.333,0.453
			c1.16-0.362,2.168-1.106,3.027-2.23c0.858-1.124,1.468-2.516,1.829-4.177c0.444-2.043,0.399-3.818-0.134-5.325
			c-0.534-1.507-1.394-2.563-2.582-3.17c-0.872-0.456-2.708-0.989-5.506-1.598L93.918,1169.16z"/>
		<path fill="#FFFFFF" d="M113.633,1221.995l7.194-57.028l16.6,2.095c4.174,0.526,7.143,1.421,8.905,2.684
			c1.763,1.264,3.047,3.276,3.854,6.039c0.806,2.763,0.997,5.83,0.572,9.201c-0.54,4.279-1.848,7.704-3.922,10.274
			c-2.075,2.57-4.873,4.003-8.392,4.296c1.522,1.668,2.728,3.44,3.619,5.317c0.891,1.878,1.998,5.153,3.322,9.825l3.366,11.728
			l-9.432-1.19l-4.136-13.128c-1.466-4.69-2.499-7.659-3.099-8.908c-0.601-1.247-1.291-2.139-2.072-2.672
			c-0.781-0.533-2.077-0.914-3.889-1.143l-1.599-0.201l-3.003,23.807L113.633,1221.995z M125.672,1190.08l5.835,0.736
			c3.784,0.478,6.175,0.542,7.176,0.194c1-0.349,1.839-1.059,2.516-2.133s1.123-2.467,1.339-4.179
			c0.242-1.919,0.086-3.513-0.466-4.781s-1.449-2.139-2.688-2.611c-0.623-0.211-2.533-0.518-5.73-0.921l-6.155-0.776
			L125.672,1190.08z"/>
		<path fill="#FFFFFF" d="M156.087,1226.802l0.055-57.48l29.192,0.028l-0.009,9.724l-21.243-0.021l-0.012,12.743l19.766,0.019
			l-0.009,9.685l-19.766-0.019l-0.015,15.645l21.995,0.021l-0.009,9.685L156.087,1226.802z"/>
		<path fill="#FFFFFF" d="M195.295,1225.848l-6.252-57.139l26.83-2.937l1.058,9.667l-18.927,2.07l1.48,13.525l16.338-1.788
			l1.058,9.666l-16.338,1.788l2.657,24.282L195.295,1225.848z"/>
		<path fill="#FFFFFF" d="M228.652,1221.937l-8.599-56.834l28.863-4.366l1.455,9.614l-21.003,3.178l1.906,12.6l19.543-2.957
			l1.449,9.576l-19.543,2.956l2.34,15.469l21.747-3.29l1.449,9.575L228.652,1221.937z"/>
		<path fill="#FFFFFF" d="M263.179,1216.608l-9.119-56.752l7.849-1.262l9.119,56.753L263.179,1216.608z"/>
		<path fill="#FFFFFF" d="M285.842,1212.97l-7.398-47.18l-11.541,1.81l-1.506-9.606l30.909-4.847l1.506,9.606l-11.514,1.806
			l7.397,47.181L285.842,1212.97z"/>
		<path fill="#FFFFFF" d="M301.642,1152.242l7.896-0.923l3.615,30.921c0.574,4.907,1.043,8.076,1.409,9.507
			c0.611,2.297,1.635,4.079,3.072,5.345c1.437,1.268,3.257,1.771,5.463,1.514c2.24-0.263,3.852-1.128,4.833-2.599
			c0.981-1.47,1.474-3.192,1.478-5.166c0.003-1.975-0.259-5.221-0.787-9.738l-3.692-31.583l7.896-0.923l3.506,29.986
			c0.801,6.854,1.154,11.722,1.058,14.601c-0.096,2.88-0.604,5.36-1.523,7.441c-0.919,2.082-2.271,3.813-4.057,5.192
			c-1.786,1.379-4.226,2.251-7.32,2.612c-3.734,0.437-6.64,0.138-8.716-0.896s-3.792-2.49-5.148-4.372
			c-1.356-1.881-2.34-3.904-2.954-6.069c-0.898-3.211-1.721-8.01-2.467-14.396L301.642,1152.242z"/>
		<path fill="#FFFFFF" d="M344.677,1205.093l1.108-57.47l16.728,0.322c4.206,0.081,7.253,0.656,9.14,1.726
			c1.886,1.069,3.377,2.935,4.472,5.596c1.094,2.662,1.609,5.691,1.544,9.089c-0.083,4.313-1.021,7.856-2.811,10.632
			c-1.791,2.776-4.42,4.497-7.889,5.162c1.69,1.497,3.078,3.132,4.163,4.903c1.085,1.773,2.533,4.912,4.345,9.418l4.59,11.304
			l-9.505-0.183l-5.505-12.616c-1.955-4.509-3.296-7.352-4.026-8.529c-0.729-1.177-1.511-1.989-2.344-2.438
			c-0.833-0.447-2.162-0.688-3.988-0.724l-1.611-0.031l-0.463,23.991L344.677,1205.093z M353.265,1172.081l5.88,0.113
			c3.813,0.073,6.198-0.116,7.156-0.568c0.958-0.452,1.716-1.247,2.275-2.387s0.855-2.572,0.889-4.297
			c0.038-1.934-0.286-3.502-0.97-4.705c-0.685-1.203-1.667-1.974-2.95-2.312c-0.642-0.144-2.574-0.246-5.796-0.309l-6.203-0.119
			L353.265,1172.081z"/>
		<path fill="#FFFFFF" d="M417.511,1209.22l-8.619-0.695l-2.377-13.29l-15.687-1.265l-4.288,12.753l-8.405-0.678l19.904-56.063
			l8.379,0.676L417.511,1209.22z M404.75,1185.376l-3.693-21.697l-7.014,20.834L404.75,1185.376z"/>
		<path fill="#FFFFFF" d="M436.56,1211.065l5.313-57.234l11.846,1.1l3.489,39.701l10.657-38.388l11.873,1.102l-5.313,57.234
			l-7.354-0.683l4.183-45.054l-11.964,44.331l-7.621-0.707l-3.572-45.773l-4.183,45.054L436.56,1211.065z"/>
		<path fill="#FFFFFF" d="M485.434,1157.878l7.922,0.651l-2.551,31.027c-0.405,4.924-0.569,8.124-0.493,9.599
			c0.146,2.372,0.799,4.321,1.958,5.846c1.159,1.525,2.845,2.378,5.057,2.56c2.249,0.186,3.999-0.346,5.251-1.594
			c1.252-1.248,2.075-2.839,2.467-4.774c0.393-1.935,0.775-5.168,1.148-9.701l2.606-31.691l7.922,0.651l-2.474,30.089
			c-0.565,6.878-1.179,11.72-1.841,14.523c-0.662,2.805-1.648,5.136-2.96,6.995c-1.312,1.859-2.979,3.29-5.001,4.29
			c-2.022,1.001-4.586,1.374-7.691,1.118c-3.747-0.308-6.537-1.174-8.369-2.596c-1.833-1.423-3.228-3.189-4.186-5.302
			c-0.958-2.11-1.525-4.288-1.699-6.532c-0.248-3.325-0.108-8.191,0.419-14.601L485.434,1157.878z"/>
		<path fill="#FFFFFF" d="M519.456,1218.328l3.124-57.396l7.723,0.421l14.003,39.204l2.086-38.329l7.375,0.401l-3.124,57.396
			l-7.964-0.434l-13.811-38.291l-2.037,37.429L519.456,1218.328z"/>
		<path fill="#FFFFFF" d="M559.038,1220.118l0.576-57.478l7.949,0.079l-0.576,57.478L559.038,1220.118z"/>
		<path fill="#FFFFFF" d="M599.245,1198.035l7.86,3.215c-0.896,6.321-2.648,11.064-5.256,14.23
			c-2.607,3.167-6.022,4.846-10.243,5.037c-5.223,0.236-9.633-2.174-13.231-7.231c-3.599-5.057-5.602-12.103-6.011-21.138
			c-0.434-9.558,0.921-17.057,4.062-22.497c3.141-5.441,7.465-8.286,12.974-8.536c4.812-0.218,8.813,1.682,12.007,5.697
			c1.899,2.374,3.4,5.838,4.503,10.394l-7.736,3.098c-0.601-2.956-1.677-5.262-3.23-6.919c-1.554-1.656-3.386-2.437-5.496-2.342
			c-2.915,0.133-5.212,1.768-6.889,4.904c-1.677,3.138-2.36,8.128-2.05,14.969c0.328,7.26,1.457,12.39,3.385,15.39
			s4.323,4.436,7.185,4.306c2.11-0.096,3.882-1.157,5.313-3.185C597.822,1205.4,598.774,1202.27,599.245,1198.035z"/>
		<path fill="#FFFFFF" d="M613.901,1218.24l-4.085-57.335l7.93-0.564l4.085,57.335L613.901,1218.24z"/>
		<path fill="#FFFFFF" d="M627.837,1217.261l-4.83-57.277l12.711-1.072c4.817-0.406,7.981-0.384,9.492,0.065
			c2.32,0.67,4.36,2.381,6.119,5.131s2.831,6.404,3.216,10.962c0.296,3.517,0.108,6.51-0.563,8.979
			c-0.672,2.471-1.624,4.446-2.855,5.927c-1.232,1.481-2.524,2.502-3.879,3.063c-1.845,0.706-4.561,1.211-8.146,1.513l-5.165,0.436
			l1.822,21.606L627.837,1217.261z M631.745,1169.005l1.37,16.253l4.336-0.365c3.121-0.264,5.184-0.738,6.186-1.427
			c1.002-0.688,1.748-1.695,2.238-3.021s0.664-2.837,0.521-4.53c-0.175-2.083-0.739-3.767-1.692-5.051
			c-0.953-1.283-2.085-2.041-3.398-2.271c-0.968-0.18-2.879-0.15-5.733,0.09L631.745,1169.005z"/>
		<path fill="#FFFFFF" d="M694.21,1211.348l-8.611,0.796l-4.625-12.685l-15.671,1.449l-2.033,13.301l-8.396,0.776l9.977-58.648
			l8.37-0.773L694.21,1211.348z M677.541,1190.051l-7.365-20.739l-3.331,21.729L677.541,1190.051z"/>
		<path fill="#FFFFFF" d="M697.207,1211.044l-5.171-56.774l7.917-0.721l4.292,47.13l19.684-1.792l0.879,9.645L697.207,1211.044z"/>
		<path fill="#FFFFFF" d="M743.192,1149.235l14.511-0.729c3.272-0.164,5.785,0.076,7.538,0.721c2.356,0.877,4.421,2.54,6.193,4.989
			s3.18,5.487,4.223,9.111c1.042,3.625,1.699,8.127,1.969,13.504c0.237,4.726,0.04,8.818-0.593,12.278
			c-0.773,4.228-2.008,7.678-3.701,10.354c-1.279,2.027-3.062,3.647-5.349,4.861c-1.713,0.898-4.034,1.42-6.967,1.567l-14.939,0.751
			L743.192,1149.235z M751.619,1158.547l1.91,38.024l5.928-0.298c2.217-0.111,3.809-0.374,4.773-0.79
			c1.264-0.534,2.292-1.384,3.085-2.55c0.793-1.164,1.394-3.047,1.801-5.646c0.407-2.598,0.499-6.116,0.276-10.555
			c-0.224-4.438-0.663-7.831-1.318-10.18c-0.656-2.349-1.5-4.165-2.532-5.447c-1.033-1.283-2.303-2.122-3.811-2.518
			c-1.127-0.31-3.31-0.384-6.545-0.221L751.619,1158.547z"/>
		<path fill="#FFFFFF" d="M782.591,1204.986l4.75-57.284l29.093,2.412l-0.804,9.69l-21.17-1.755l-1.054,12.699l19.698,1.633
			l-0.8,9.652l-19.698-1.634l-1.293,15.591l21.92,1.817l-0.801,9.651L782.591,1204.986z"/>
		<path fill="#FFFFFF" d="M835.155,1210.947l9.021-56.769l12.599,2.002c4.773,0.759,7.84,1.538,9.2,2.336
			c2.093,1.206,3.663,3.354,4.713,6.446c1.05,3.091,1.216,6.896,0.498,11.413c-0.554,3.485-1.453,6.347-2.696,8.584
			c-1.244,2.237-2.642,3.928-4.191,5.07c-1.551,1.144-3.05,1.825-4.499,2.045c-1.96,0.244-4.718,0.084-8.271-0.48l-5.119-0.813
			l-3.402,21.413L835.155,1210.947z M850.499,1165.03l-2.56,16.108l4.297,0.683c3.094,0.492,5.21,0.524,6.348,0.096
			c1.138-0.428,2.103-1.227,2.896-2.398c0.793-1.17,1.323-2.595,1.59-4.272c0.328-2.065,0.184-3.835-0.435-5.31
			c-0.617-1.475-1.536-2.48-2.756-3.019c-0.896-0.407-2.759-0.836-5.588-1.285L850.499,1165.03z"/>
		<path fill="#FFFFFF" d="M900.975,1221.389l-8.544-1.338l-1.376-13.431l-15.549-2.435l-5.229,12.397l-8.331-1.305l24.04-54.417
			l8.305,1.3L900.975,1221.389z M890.031,1196.657l-2.061-21.912l-8.552,20.251L890.031,1196.657z"/>
		<path fill="#FFFFFF" d="M904.858,1221.927l7.006-56.578l7.889,0.977l-5.815,46.967l19.615,2.429l-1.189,9.611L904.858,1221.927z"
			/>
		<path fill="#FFFFFF" d="M940.315,1226.523l0.819-57.475l11.896,0.17l6.583,39.307l7.622-39.104l11.922,0.17l-0.819,57.475
			l-7.385-0.105l0.646-45.242l-8.459,45.131l-7.653-0.109l-7.143-45.354l-0.645,45.243L940.315,1226.523z"/>
		<path fill="#FFFFFF" d="M1025.083,1221.308l-8.576,1.108l-5.083-12.508l-15.607,2.018l-1.549,13.365l-8.363,1.081l7.838-58.972
			l8.337-1.078L1025.083,1221.308z M1007.652,1200.63l-8.114-20.458l-2.539,21.836L1007.652,1200.63z"/>
		<path fill="#FFFFFF" d="M1024.91,1202.181l7.317-2.735c1.27,3.603,2.79,6.118,4.563,7.548c1.772,1.431,3.838,1.885,6.199,1.365
			c2.5-0.55,4.214-1.736,5.142-3.561c0.928-1.823,1.164-3.769,0.709-5.837c-0.292-1.327-0.808-2.397-1.546-3.213
			c-0.738-0.813-1.848-1.42-3.328-1.816c-1.011-0.26-3.263-0.62-6.756-1.083c-4.492-0.59-7.819-1.798-9.981-3.624
			c-3.04-2.569-5.05-6.075-6.027-10.518c-0.629-2.858-0.663-5.655-0.1-8.389c0.563-2.733,1.745-4.98,3.548-6.742
			s4.182-2.968,7.137-3.618c4.826-1.063,8.799-0.317,11.918,2.234c3.118,2.553,5.307,6.394,6.564,11.522l-7.654,2.207
			c-0.967-2.812-2.137-4.729-3.507-5.752c-1.371-1.023-3.149-1.294-5.335-0.813c-2.256,0.496-3.873,1.562-4.852,3.195
			c-0.631,1.05-0.786,2.301-0.466,3.756c0.292,1.328,0.927,2.38,1.904,3.154c1.243,0.985,3.896,1.712,7.96,2.183
			s7.153,1.203,9.269,2.195c2.116,0.994,3.951,2.583,5.505,4.771s2.722,5.056,3.502,8.604c0.708,3.217,0.759,6.364,0.153,9.441
			c-0.606,3.078-1.878,5.546-3.815,7.404c-1.938,1.857-4.576,3.154-7.916,3.89c-4.86,1.07-8.955,0.251-12.282-2.456
			C1029.407,1212.787,1026.799,1208.349,1024.91,1202.181z"/>
	</g>
</g>
</svg>
