<?xml version="1.0" encoding="UTF-8"?>
<!DOCTYPE svg PUBLIC "-//W3C//DTD SVG 1.1//EN" "http://www.w3.org/Graphics/SVG/1.1/DTD/svg11.dtd">
<!-- Creator: CorelDRAW 2020 (64 Bit) -->
<svg xmlns="http://www.w3.org/2000/svg" xml:space="preserve" width="258.156mm" height="99.9731mm" version="1.1" style="shape-rendering:geometricPrecision; text-rendering:geometricPrecision; image-rendering:optimizeQuality; fill-rule:evenodd; clip-rule:evenodd"
viewBox="0 0 384918.14 149062.58"
 xmlns:xlink="http://www.w3.org/1999/xlink"
 xmlns:xodm="http://www.corel.com/coreldraw/odm/2003">
 <defs>
  <style type="text/css">
   <![CDATA[
    .fil8 {fill:#003784}
    .fil6 {fill:#2196F3}
    .fil9 {fill:#400287}
    .fil7 {fill:#650AA7}
    .fil4 {fill:#6DBAF7}
    .fil2 {fill:#81C9FB}
    .fil5 {fill:#A468C8}
    .fil0 {fill:#B2DEFA}
    .fil3 {fill:#C097D9}
    .fil1 {fill:#E1CBEF}
    .fil10 {fill:#003784;fill-rule:nonzero}
    .fil12 {fill:#1565BC;fill-rule:nonzero}
    .fil11 {fill:#3D0283;fill-rule:nonzero}
   ]]>
  </style>
 </defs>
 <g id="Camada_x0020_1">
  <metadata id="CorelCorpID_0Corel-Layer"/>
  <g id="_1506742289616">
   <path class="fil0" d="M-0 44696.51l0 2113.68c0,618.18 505.76,1123.94 1123.94,1123.94l2978.48 0c618.18,0 1123.94,-505.76 1123.94,-1123.94l0 -2113.68c0,-618.18 -505.76,-1123.94 -1123.94,-1123.94l-2978.48 0c-618.18,0 -1123.94,505.76 -1123.94,1123.94z"/>
   <path class="fil1" d="M155365.6 45003.22l0 -2113.68c0,-618.18 -505.76,-1123.94 -1123.94,-1123.94l-2978.48 0c-618.18,0 -1123.79,505.76 -1123.79,1123.94l0 2113.68c0,618.18 505.61,1123.94 1123.79,1123.94l2978.48 0c618.18,0 1123.94,-505.76 1123.94,-1123.94z"/>
   <path class="fil2" d="M3325.88 64038.11l0 4667.66c0,1442.42 1180.15,2622.57 2622.57,2622.57l6632.98 0c1442.42,0 2622.57,-1180.15 2622.57,-2622.57l0 -4667.66c0,-1442.42 -1180.15,-2622.72 -2622.57,-2622.72l-6632.98 0c-1442.42,0 -2622.57,1180.3 -2622.57,2622.72z"/>
   <path class="fil3" d="M152039.87 25661.77l0 -4667.66c0,-1442.42 -1180.3,-2622.57 -2622.57,-2622.57l-6632.98 0c-1442.42,0 -2622.57,1180.15 -2622.57,2622.57l0 4667.66c0,1442.42 1180.15,2622.57 2622.57,2622.57l6632.98 0c1442.27,0 2622.57,-1180.15 2622.57,-2622.57z"/>
   <path class="fil4" d="M25949.83 76968.3l0 9556.74c0,2060.6 1685.9,3746.65 3746.5,3746.65l12937.34 0c2060.6,0 3746.35,-1686.05 3746.35,-3746.65l0 -9556.74c0,-2060.6 -1685.76,-3746.35 -3746.35,-3746.35l-12937.34 0c-2060.6,0 -3746.5,1685.76 -3746.5,3746.35z"/>
   <path class="fil5" d="M129415.92 13303.39l0 -9556.74c0,-2060.6 -1686.05,-3746.65 -3746.65,-3746.65l-12937.19 0c-2060.75,0 -3746.5,1686.05 -3746.5,3746.65l0 9556.74c0,2060.6 1685.76,3746.5 3746.5,3746.5l12937.19 0c2060.6,0 3746.65,-1685.9 3746.65,-3746.5z"/>
   <path class="fil6" d="M66042.2 75361.87l0 8189.61c0,3090.9 2528.78,5619.68 5619.68,5619.68l12041.83 0c3090.9,0 5619.68,-2528.78 5619.68,-5619.68l0 -8189.61c0,-3090.9 -2528.78,-5619.68 -5619.68,-5619.68l-12041.83 0c-3090.9,0 -5619.68,2528.78 -5619.68,5619.68z"/>
   <path class="fil7" d="M89323.4 14337.86l0 -8189.47c0,-3091.05 -2528.78,-5619.68 -5619.68,-5619.68l-12041.83 0c-3090.9,0 -5619.68,2528.63 -5619.68,5619.68l0 8189.47c0,3091.05 2528.78,5619.68 5619.68,5619.68l12041.83 0c3090.9,0 5619.68,-2528.63 5619.68,-5619.68z"/>
   <path class="fil8" d="M87310.66 40799.71l0 9201.13c0,4121.2 3371.96,7492.86 7493.16,7492.86l13996.42 0c4121.2,0 7493.01,-3371.66 7493.01,-7492.86l0 -9201.13c0,-4121.2 -3371.81,-7493.01 -7493.01,-7493.01l-13996.42 0c-4121.2,0 -7493.16,3371.81 -7493.16,7493.01z"/>
   <path class="fil9" d="M68054.94 49472.12l0 -9201.13c0,-4121.2 -3371.81,-7493.01 -7493.01,-7493.01l-13996.57 0c-4121.2,0 -7493.01,3371.81 -7493.01,7493.01l0 9201.13c0,4121.05 3371.81,7492.86 7493.01,7492.86l13996.57 0c4121.2,0 7493.01,-3371.81 7493.01,-7492.86z"/>
   <g>
    <path class="fil10" d="M158234.78 111889.34c-2821.47,2887.08 -6102.18,5150.9 -9858.67,6807.58 -3740.09,1656.83 -7791.81,2493.44 -12155.3,2493.44 -2919.88,0 -5757.75,-393.63 -8497.21,-1164.64 -2739.46,-771.01 -5314.77,-1870.05 -7709.8,-3297.26 -2394.89,-1427.06 -4576.71,-3116.69 -6545.16,-5085.15 -1984.86,-1968.45 -3674.49,-4166.53 -5101.55,-6577.96 -1427.21,-2411.29 -2526.25,-4986.74 -3297.26,-7726.2 -770.86,-2739.46 -1164.64,-5577.34 -1164.64,-8530.02 0,-2952.68 393.78,-5806.95 1164.64,-8546.42 771.01,-2739.46 1870.05,-5298.36 3297.26,-7693.4 1427.06,-2394.89 3116.69,-4576.71 5101.55,-6545.16 1968.45,-1968.45 4150.27,-3658.09 6545.16,-5068.75 2395.04,-1410.66 4953.94,-2509.85 7677,-3280.71 2723.06,-771.01 5577.34,-1148.39 8530.02,-1148.39 4363.49,0 8415.21,820.21 12155.3,2477.04 3756.49,1640.43 7037.2,3904.1 9858.67,6774.78l0 -6003.77c0,-1443.61 721.81,-2165.42 2165.27,-2165.42l5068.9 0c1541.87,0 2312.88,721.81 2312.88,2165.42l0 58266.5c0,656.05 -213.22,1181.04 -639.8,1574.67 -426.43,393.78 -935.02,590.6 -1525.47,590.6l-5118.1 0c-688.85,0 -1230.25,-213.22 -1640.28,-639.8 -410.18,-426.43 -623.4,-935.02 -623.4,-1525.47l0 -6151.53zm492.19 -23063.8c0,-3067.49 -590.6,-6020.17 -1771.64,-8808.84 -1181.04,-2805.07 -2788.67,-5265.71 -4822.73,-7348.97 -2034.06,-2099.66 -4412.69,-3772.89 -7152.16,-5019.54 -2739.46,-1246.65 -5659.34,-1870.05 -8743.23,-1870.05 -3083.89,0 -5970.97,623.4 -8677.63,1870.05 -2706.66,1246.65 -5068.75,2919.88 -7086.4,5019.54 -2017.81,2083.26 -3608.88,4543.9 -4773.52,7348.97 -1164.79,2788.67 -1755.24,5741.35 -1755.24,8808.84 0,3051.09 590.45,5987.37 1755.24,8808.84 1164.64,2821.47 2755.72,5298.51 4773.52,7447.38 2017.66,2148.87 4379.74,3854.9 7086.4,5134.5 2706.66,1279.45 5593.74,1919.25 8677.63,1919.25 3083.89,0 6003.77,-639.8 8743.23,-1919.25 2739.46,-1279.6 5118.1,-2985.63 7152.16,-5134.5 2034.06,-2148.87 3641.68,-4625.91 4822.73,-7447.38 1181.04,-2821.47 1771.64,-5757.75 1771.64,-8808.84zm66082.46 23703.6c-2821.47,2985.48 -6151.53,5331.32 -9957.23,7053.6 -3805.7,1722.43 -7955.82,2591.85 -12417.72,2591.85 -2936.28,0 -5774.15,-393.63 -8513.61,-1164.64 -2739.46,-771.01 -5314.77,-1870.05 -7709.8,-3297.26 -2394.89,-1427.06 -4593.11,-3116.69 -6561.56,-5085.15 -1968.45,-1968.45 -3674.34,-4166.53 -5101.55,-6577.96 -1427.06,-2411.29 -2526.25,-4986.74 -3297.11,-7726.2 -771.01,-2739.46 -1164.79,-5577.34 -1164.79,-8530.02 0,-2952.68 393.78,-5806.95 1164.79,-8546.42 770.86,-2739.46 1870.05,-5298.36 3297.11,-7693.4 1427.21,-2394.89 3116.69,-4576.71 5101.55,-6545.16 1968.45,-1968.45 4150.27,-3658.09 6545.16,-5068.75 2395.04,-1410.66 4953.94,-2509.85 7677,-3280.71 2723.06,-771.01 5577.34,-1148.39 8530.02,-1148.39 4363.49,0 8415.21,820.21 12155.3,2477.04 3756.49,1640.43 7037.2,3904.1 9858.67,6774.78l0 -6003.77c0,-1443.61 721.81,-2165.42 2165.27,-2165.42l5560.93 98.56c1213.99,164.01 1820.84,869.27 1820.84,2116.07l0 787.41 0 147.61 0 49309.9c0,3740.09 -410.03,7102.95 -1246.65,10104.84 -836.62,3001.88 -1984.86,5659.34 -3444.87,7955.82 -1476.27,2296.63 -3231.5,4265.08 -5281.96,5905.36 -2050.46,1640.43 -4281.48,2969.23 -6709.17,4002.66 -2427.84,1033.43 -5003.14,1804.44 -7742.6,2296.48 -2739.46,492.19 -5544.53,738.21 -8398.81,738.21 -3871.3,0 -7381.78,-557.79 -10547.67,-1689.63 -3166.05,-1115.44 -5987.37,-2509.85 -8448.01,-4199.33 -328.03,-164.01 -590.6,-377.38 -803.81,-623.4 -213.22,-246.02 -328.03,-574.19 -328.03,-1000.63 0,-131.21 16.4,-262.42 32.8,-393.63 16.4,-147.76 82.01,-311.77 213.22,-508.59l2657.46 -4281.33c262.42,-360.98 508.44,-639.8 721.81,-820.21 213.22,-180.41 442.83,-262.57 705.26,-262.57 426.58,0 820.21,131.36 1181.19,393.78 754.46,590.45 1755.09,1115.44 3001.88,1591.07 1246.65,475.79 2591.7,885.82 4018.91,1213.99 1427.06,328.03 2837.87,574.05 4248.53,754.61 1410.81,180.41 2657.46,278.82 3740.09,278.82 3379.26,0 6479.56,-426.58 9301.03,-1296 2821.47,-869.27 5249.16,-2099.66 7283.37,-3657.94 2034.06,-1574.82 3625.13,-3461.27 4773.52,-5675.74 1148.24,-2214.62 1722.29,-4675.11 1722.29,-7398.18l196.96 -1952.05zm98.41 -22719.37c0,-3067.49 -590.6,-6020.17 -1771.64,-8808.84 -1181.04,-2805.07 -2788.67,-5265.71 -4822.73,-7348.97 -2034.06,-2099.66 -4412.69,-3772.89 -7152.16,-5019.54 -2739.46,-1246.65 -5659.34,-1870.05 -8743.23,-1870.05 -3083.89,0 -5970.97,623.4 -8677.63,1870.05 -2706.66,1246.65 -5068.75,2919.88 -7086.4,5019.54 -2017.66,2083.26 -3608.88,4543.9 -4773.52,7348.97 -1164.79,2788.67 -1755.24,5741.35 -1755.24,8808.84 0,3051.09 590.45,5987.37 1755.24,8808.84 1164.64,2821.47 2755.87,5298.51 4773.52,7447.38 2017.66,2148.87 4379.74,3854.9 7086.4,5134.5 2706.66,1279.45 5593.74,1919.25 8677.63,1919.25 3083.89,0 6003.77,-639.8 8743.23,-1919.25 2739.46,-1279.6 5118.1,-2985.63 7152.16,-5134.5 2034.06,-2148.87 3641.68,-4625.91 4822.73,-7447.38 1181.04,-2821.47 1771.64,-5757.75 1771.64,-8808.84z"/>
    <path class="fil11" d="M256837.44 121879.37c-1525.62,0 -3051.09,-180.41 -4576.71,-541.39 -1525.47,-360.83 -2903.48,-984.23 -4117.32,-1886.45 -1213.85,-902.22 -2214.47,-2132.47 -2985.48,-3690.89 -771.01,-1558.27 -1164.64,-3543.13 -1164.64,-5970.97l0 -42633.68 -5708.55 0c-820.21,0 -1427.21,-131.21 -1820.84,-377.23 -393.78,-246.02 -590.6,-787.41 -590.6,-1656.83l0 -4592.96c0,-869.42 196.82,-1394.41 590.6,-1607.63 393.63,-213.22 1000.63,-328.18 1820.84,-328.18l5708.55 0 0 -10481.92c0,-557.79 114.81,-967.97 344.43,-1213.99 229.62,-246.02 623.4,-442.83 1181.04,-606.85 196.82,-65.61 607,-147.76 1213.85,-229.77 607,-82.01 1230.4,-180.41 1886.45,-311.62 787.41,-131.21 1640.43,-278.82 2559.05,-442.83 557.79,-65.61 1000.63,-32.8 1328.65,98.41 328.18,131.21 574.19,328.03 721.81,590.45 147.61,262.57 229.62,557.79 262.42,902.22 32.95,344.58 49.35,721.81 49.35,1115.44l0 10580.48 6840.38 0c754.46,0 1312.25,164.16 1656.68,492.19 344.58,328.03 508.59,935.02 508.59,1788.04l0 3904.1c0,853.02 -164.01,1476.41 -508.59,1837.24 -344.43,360.83 -902.22,541.24 -1656.68,541.24l-6840.38 0 0 42535.27c0,1148.24 278.82,1952.05 836.47,2411.29 574.19,442.98 1345.2,672.6 2345.83,672.6 754.61,0 1377.86,229.62 1886.45,689 492.04,459.24 738.21,1099.04 738.21,1919.25l0 4035.32c0,754.61 -229.77,1361.61 -689,1804.44 -459.39,442.83 -1066.23,656.2 -1820.84,656.2zm53631.94 -15009.57c295.22,-262.42 623.4,-508.59 967.83,-738.21 344.43,-229.62 689,-344.43 1049.83,-344.43 492.04,0 967.83,295.22 1427.06,885.82 656.2,885.82 1197.59,1607.48 1607.63,2165.27 410.18,557.79 738.21,1000.63 1000.63,1328.65 262.42,360.98 459.39,623.4 590.6,787.41 164.01,196.82 295.22,393.78 393.63,607 98.41,213.22 147.61,459.24 147.61,721.81 0,360.83 -131.21,754.46 -410.03,1164.64 -278.82,410.03 -771.01,885.82 -1460.01,1459.86 -1410.66,1115.59 -2870.67,2132.62 -4396.14,3034.84 -1525.62,902.22 -3133.09,1689.48 -4806.33,2345.68 -1673.23,672.6 -3428.47,1181.04 -5282.11,1542.02 -1853.64,360.83 -3822.1,541.24 -5888.96,541.24 -2919.88,0 -5741.35,-393.63 -8464.41,-1164.64 -2723.06,-771.01 -5281.96,-1870.05 -7693.4,-3297.11 -2411.29,-1427.21 -4609.51,-3133.24 -6594.36,-5101.7 -1984.86,-1968.45 -3707.29,-4150.12 -5150.75,-6545.16 -1443.61,-2411.29 -2559.05,-4970.34 -3346.46,-7726.2 -787.26,-2739.46 -1181.04,-5593.74 -1181.04,-8546.42 0,-2952.68 377.38,-5823.35 1115.44,-8579.22 738.21,-2755.87 1788.04,-5331.17 3149.65,-7742.6 1361.46,-2394.89 3001.88,-4576.71 4937.54,-6545.16 1935.65,-1968.45 4117.32,-3674.34 6528.76,-5085.15 2411.29,-1410.66 5019.54,-2493.44 7824.61,-3264.31 2805.07,-771.01 5757.75,-1164.79 8874.44,-1164.79 2460.64,0 4904.73,278.97 7332.57,836.62 2427.69,557.79 4757.12,1378.01 6988,2444.24 2230.87,1066.23 4330.69,2378.49 6282.74,3969.71 1952.05,1574.82 3690.89,3379.26 5232.76,5413.32 2099.66,2821.47 3658.09,6052.97 4675.11,9661.85 1017.03,3608.88 1492.82,7759.01 1427.21,12466.92 0,1541.87 -721.81,2312.88 -2165.42,2312.88l-51868.95 0c557.79,2624.65 1542.02,5052.49 2936.28,7283.37 1394.26,2230.87 3067.49,4166.53 5019.54,5823.35 1952.05,1656.83 4117.47,2952.68 6512.36,3887.7 2395.04,935.02 4871.93,1410.81 7430.98,1410.81 1804.44,0 3444.72,-180.56 4904.73,-524.99 1460.01,-344.43 2788.67,-803.81 3986.11,-1377.86 1197.44,-574.19 2296.63,-1230.4 3313.66,-1968.45 1017.03,-738.21 2001.26,-1492.82 2952.68,-2280.23l98.41 -98.41zm-26967.91 -36416.54c-2493.44,1673.23 -4642.31,3772.89 -6446.75,6315.54 -1804.44,2542.5 -3034.69,5347.57 -3690.89,8398.66l44487.32 0c-360.98,-2723.06 -1197.59,-5199.96 -2526.25,-7430.83 -1328.65,-2231.02 -3001.88,-4133.87 -5003.14,-5708.55 -2001.26,-1574.82 -4248.68,-2805.07 -6758.38,-3674.49 -2509.85,-869.42 -5118.1,-1296 -7808.36,-1296 -2132.47,0 -4232.13,278.97 -6315.39,836.62 -2083.26,557.79 -4068.12,1410.81 -5938.16,2559.05zm93394.94 36514.95c229.62,-196.82 492.04,-410.03 770.86,-623.4 278.97,-213.22 574.19,-360.83 885.82,-459.24 311.77,-98.41 623.4,-98.41 935.02,0 311.77,98.41 623.4,360.83 951.42,787.41 656.2,885.82 1197.44,1607.48 1607.63,2165.27 410.03,557.79 738.21,1000.63 1000.63,1328.65 262.42,360.98 459.24,623.4 590.6,787.41 164.01,262.57 311.62,524.99 426.43,787.41 114.81,262.42 131.21,541.39 65.61,853.02 -65.61,311.62 -229.62,672.6 -508.44,1049.83 -278.97,377.23 -721.81,787.41 -1312.4,1263.05 -1410.66,1115.59 -2870.67,2132.62 -4396.14,3034.84 -1525.62,902.22 -3133.24,1689.48 -4806.33,2345.68 -1673.23,672.6 -3428.47,1181.04 -5282.11,1542.02 -1853.64,360.83 -3822.1,541.24 -5888.96,541.24 -2919.88,0 -5741.35,-393.63 -8464.41,-1164.64 -2723.06,-771.01 -5282.11,-1870.05 -7693.4,-3297.11 -2411.44,-1427.21 -4609.51,-3133.24 -6594.36,-5101.7 -1984.86,-1968.45 -3707.29,-4150.12 -5150.75,-6545.16 -1443.61,-2411.29 -2559.05,-4970.34 -3346.46,-7726.2 -787.41,-2739.46 -1181.04,-5593.74 -1181.04,-8546.42 0,-2952.68 393.63,-5806.95 1181.04,-8546.42 787.41,-2755.72 1902.85,-5314.77 3346.46,-7726.2 1443.46,-2394.89 3165.9,-4576.56 5150.75,-6545.16 1984.86,-1968.45 4182.93,-3674.34 6594.36,-5101.55 2411.29,-1427.06 4970.34,-2526.25 7693.4,-3297.11 2723.06,-771.01 5544.53,-1164.79 8464.41,-1164.79 1837.24,0 3674.49,164.16 5495.33,508.59 1820.84,344.43 3575.93,820.21 5265.56,1427.06 1689.63,607 3280.86,1328.8 4773.52,2149.02 1492.82,820.21 2821.47,1706.03 4002.51,2657.46 229.77,196.82 508.59,410.03 820.21,656.05 311.62,246.02 574.19,524.99 787.41,836.62 213.22,311.62 344.43,656.2 410.03,1033.43 65.61,377.38 -16.4,787.41 -246.02,1213.85l-3592.48 4724.32c-852.87,1115.59 -1837.24,1099.19 -2952.68,-49.2 -885.82,-918.62 -1902.85,-1755.24 -3051.09,-2493.3 -1148.24,-738.21 -2378.49,-1378.01 -3690.89,-1919.25 -1312.25,-541.39 -2673.86,-951.42 -4084.52,-1246.8 -1410.66,-295.22 -2805.07,-442.83 -4182.93,-442.83 -2887.08,0 -5675.74,623.4 -8366,1870.05 -2690.26,1246.65 -5068.75,2936.28 -7135.76,5068.75 -2066.86,2148.87 -3723.69,4625.91 -4970.34,7447.38 -1246.65,2821.47 -1870.05,5790.55 -1870.05,8907.25 0,3166.05 623.4,6135.13 1853.64,8956.6 1230.25,2805.07 2870.67,5249.16 4937.54,7365.23 2066.86,2099.81 4461.9,3756.49 7168.56,4986.89 2706.66,1230.25 5511.73,1853.64 8431.61,1853.64 1804.44,0 3444.72,-180.56 4904.73,-524.99 1459.86,-344.43 2788.67,-803.81 3986.11,-1377.86 1197.44,-574.19 2296.48,-1230.4 3313.51,-1968.45 1017.03,-738.21 2001.41,-1492.82 2952.83,-2280.23z"/>
   </g>
   <g>
    <path class="fil12" d="M240634.6 134225.22c-26.24,63.82 -63.82,114.51 -112.72,151.94 -48.76,37.57 -110.63,56.36 -185.78,56.36l-596.86 0c-172.81,0 -259.14,-65.75 -259.14,-197.11 0,-26.24 1.94,-48.76 3.73,-65.75 1.94,-16.85 3.88,-31.91 7.6,-46.82 3.73,-15.06 7.46,-28.18 11.18,-39.51l3249.39 -7810.74c7.46,-18.79 16.85,-39.51 28.18,-63.82 11.18,-24.45 26.24,-46.97 45.03,-67.69 18.79,-20.58 46.97,-39.36 82.6,-54.42 35.64,-14.91 82.6,-22.51 142.69,-22.51l371.71 0c56.21,0 103.18,7.6 138.81,22.51 35.64,15.06 62.03,33.85 80.81,54.42 18.64,20.73 33.7,43.24 45.03,67.69 11.18,24.3 20.58,45.03 28.18,63.82l3221.07 7810.74c3.88,18.79 7.6,37.57 11.33,56.36 3.73,18.79 7.46,35.64 11.18,52.63 3.88,16.85 5.67,31.91 5.67,43.09 0,131.36 -86.33,197.11 -258.99,197.11l-597.01 0c-75,0 -137.03,-18.79 -185.78,-56.36 -48.76,-37.42 -86.33,-88.12 -112.57,-151.94l-619.52 -1548.73 -3953.31 0c-131.36,334.14 -251.54,636.37 -360.38,906.69 -108.84,270.32 -189.66,484.29 -242.14,642.04zm1053.11 -2641.21l3069.13 0 -1520.55 -3851.92 -1548.58 3851.92zm12817.17 1858.42c-322.96,341.59 -703.91,609.98 -1139.44,807.09 -435.53,197.11 -910.42,296.57 -1421.1,296.57 -335.93,0 -660.67,-45.03 -974.24,-133.15 -313.41,-88.27 -608.19,-214.11 -882.24,-377.38 -274.05,-163.27 -525.59,-356.65 -750.88,-581.95 -225.15,-225.29 -420.47,-476.83 -583.74,-752.67 -163.27,-275.99 -289.11,-570.77 -377.38,-884.18 -88.12,-313.41 -133.15,-638.16 -133.15,-976.18 0,-337.87 45.03,-664.4 133.15,-977.96 88.27,-313.41 214.11,-606.25 377.38,-880.3 163.27,-274.05 356.65,-523.8 583.74,-749.09 225.29,-225.15 475.04,-418.53 749.09,-580.01 274.05,-161.48 566.89,-287.17 878.51,-375.44 311.48,-88.27 638.16,-131.36 976.03,-131.36 499.34,0 963.05,93.79 1390.98,283.44 429.86,187.72 805.3,446.71 1128.26,775.18l0 -686.92c0,-165.21 82.45,-247.81 247.66,-247.81l636.37 11.18c138.96,18.79 208.45,99.6 208.45,242.14l0 90.21 0 16.85 0 5642.79c0,427.92 -46.97,812.76 -142.69,1156.29 -95.72,343.53 -227.08,647.55 -394.23,910.42 -168.93,262.72 -369.77,488.01 -604.46,675.73 -234.54,187.72 -489.95,339.81 -767.73,458.04 -277.78,118.24 -572.55,206.51 -885.97,262.87 -313.56,56.21 -634.58,84.39 -961.12,84.39 -442.98,0 -844.82,-63.82 -1206.99,-193.39 -362.32,-127.63 -685.28,-287.17 -966.78,-480.56 -37.57,-18.79 -67.54,-43.09 -92,-71.27 -24.45,-28.18 -37.57,-65.75 -37.57,-114.51 0,-15.06 1.94,-29.97 3.73,-45.03 1.94,-16.85 9.39,-35.64 24.45,-58.15l304.17 -489.95c29.97,-41.3 58.15,-73.21 82.6,-93.93 24.3,-20.58 50.69,-29.97 80.66,-29.97 48.76,0 93.79,14.91 135.09,45.03 86.48,67.54 200.99,127.63 343.53,182.05 142.69,54.42 296.57,101.39 459.98,138.96 163.27,37.57 324.75,65.61 486.22,86.33 161.33,20.58 304.02,31.91 427.92,31.91 386.62,0 741.49,-48.76 1064.3,-148.36 322.96,-99.45 600.73,-240.2 833.48,-418.53 232.75,-180.27 414.8,-396.17 546.31,-649.49 131.36,-253.47 197.11,-534.98 197.11,-846.61l22.51 -223.36zm11.18 -2599.9c0,-350.99 -67.54,-688.85 -202.63,-1008.08 -135.24,-321.02 -319.23,-602.52 -551.98,-840.94 -232.75,-240.2 -504.86,-431.65 -818.42,-574.34 -313.41,-142.69 -647.55,-214.11 -1000.48,-214.11 -352.93,0 -683.34,71.42 -993.02,214.11 -309.69,142.69 -580.01,334.14 -810.97,574.34 -230.81,238.42 -413.01,519.92 -546.16,840.94 -133.3,319.23 -200.99,657.1 -200.99,1008.08 0,349.2 67.69,685.13 200.99,1008.08 133.15,322.81 315.35,606.25 546.16,852.12 230.96,246.02 501.28,441.19 810.97,587.61 309.69,146.42 640.1,219.63 993.02,219.63 352.93,0 687.07,-73.21 1000.48,-219.63 313.56,-146.42 585.68,-341.59 818.42,-587.61 232.75,-245.87 416.74,-529.31 551.98,-852.12 135.09,-322.96 202.63,-658.88 202.63,-1008.08zm7703.84 1952.2c33.85,-29.97 71.27,-58.15 110.78,-84.39 39.36,-26.39 78.88,-39.51 120.18,-39.51 56.21,0 110.63,33.85 163.27,101.39 75,101.39 137.03,183.99 183.99,247.81 46.82,63.82 84.39,114.51 114.51,152.08 29.97,41.3 52.48,71.27 67.54,90.06 18.79,22.51 33.7,45.03 45.03,69.48 11.18,24.45 16.85,52.48 16.85,82.6 0,41.3 -14.91,86.33 -46.82,133.3 -32.06,46.82 -88.27,101.39 -167.14,167 -161.48,127.63 -328.47,244.08 -503.07,347.26 -174.6,103.33 -358.59,193.39 -550.04,268.53 -191.45,76.94 -392.29,135.09 -604.46,176.39 -212.02,41.3 -437.32,61.88 -673.8,61.88 -334.14,0 -657.1,-45.03 -968.72,-133.15 -311.48,-88.27 -604.31,-214.11 -880.3,-377.38 -275.99,-163.27 -527.53,-358.59 -754.61,-583.74 -227.23,-225.29 -424.2,-475.04 -589.4,-749.09 -165.21,-275.84 -292.84,-568.68 -383.04,-884.03 -90.06,-313.56 -135.09,-640.1 -135.09,-978.11 0,-337.87 43.09,-666.34 127.63,-981.69 84.54,-315.35 204.57,-610.13 360.38,-885.97 155.81,-274.05 343.53,-523.8 565.1,-749.09 221.42,-225.15 471.16,-420.47 747,-581.8 275.99,-161.48 574.49,-285.38 895.51,-373.65 320.87,-88.12 658.88,-133.3 1015.54,-133.3 281.51,0 561.22,31.91 839,95.87 277.93,63.82 544.37,157.6 799.64,279.57 255.41,122.12 495.62,272.26 718.97,454.32 223.36,180.27 422.41,386.77 598.8,619.52 240.35,322.81 418.68,692.58 534.98,1105.6 116.45,413.01 170.87,887.91 163.42,1426.61 0,176.54 -82.6,264.66 -247.81,264.66l-5935.63 0c63.82,300.44 176.54,578.22 336.08,833.48 159.54,255.26 350.99,476.83 574.34,666.34 223.5,189.66 471.16,338.02 745.22,444.92 274.2,107.06 557.64,161.48 850.48,161.48 206.36,0 394.08,-20.73 561.22,-60.09 167,-39.36 319.08,-92 456.11,-157.75 137.03,-65.61 262.87,-140.75 379.17,-225.15 116.45,-84.54 229.02,-170.87 337.87,-260.93l11.33 -11.33zm-3085.98 -4167.27c-285.38,191.45 -531.25,431.8 -737.76,722.7 -206.51,291.05 -347.26,611.92 -422.41,961.12l5090.81 0c-41.3,-311.62 -137.03,-595.07 -288.96,-850.33 -152.08,-255.26 -343.53,-473.1 -572.55,-653.22 -229.02,-180.27 -486.22,-321.02 -773.4,-420.47 -287.17,-99.6 -585.68,-148.36 -893.57,-148.36 -244.08,0 -484.29,31.91 -722.7,95.72 -238.42,63.82 -465.5,161.48 -679.46,292.84zm1233.23 -4139.09c33.85,-29.97 75.15,-45.03 123.9,-45.03 41.3,0 78.88,15.06 112.57,45.03l1509.22 1514.88c33.85,18.79 50.69,60.09 50.69,123.9 0,41.3 -16.85,78.73 -50.69,112.57l-270.32 281.65c-63.82,41.3 -114.51,61.88 -151.94,61.88 -37.57,0 -78.88,-16.85 -123.9,-50.69l-1075.63 -1036.11 -1092.48 1036.11c-41.3,26.24 -82.6,39.36 -123.9,39.36 -60.09,0 -101.39,-16.85 -123.9,-50.55l-281.65 -270.32c-33.7,-22.51 -50.55,-63.82 -50.55,-123.9 0,-63.82 16.85,-105.12 50.55,-123.9l1498.03 -1514.88zm6391.73 3739.35c105.12,-131.51 223.36,-260.93 354.72,-386.77 131.36,-125.69 279.72,-238.42 442.98,-337.87 163.42,-99.45 343.53,-180.27 542.58,-242.14 198.9,-62.03 422.26,-92 670.07,-92 461.77,0 869.12,78.88 1222.05,238.42 352.93,159.54 649.49,377.23 887.91,653.22 238.42,275.99 418.68,600.73 540.65,972.45 121.97,371.56 182.05,769.52 182.05,1193.87l0 3823.74c0,127.63 -31.91,223.36 -97.66,287.17 -65.61,63.82 -150.15,95.72 -251.54,95.72l-416.59 0c-138.96,0 -227.23,-28.18 -266.6,-84.54 -39.51,-56.21 -60.09,-150.15 -60.09,-281.51l0 -3840.59c0,-225.29 -30.12,-456.25 -92,-690.79 -61.88,-234.69 -163.27,-446.86 -304.17,-638.31 -140.75,-191.45 -328.47,-347.26 -561.22,-467.44 -232.75,-120.03 -518.13,-180.12 -856,-180.12 -213.96,0 -435.53,37.42 -664.4,114.51 -229.02,76.94 -437.47,191.45 -625.19,341.59 -187.72,150.15 -341.59,335.93 -463.56,557.49 -122.12,221.57 -183.99,474.89 -183.99,760.27l0 4161.61c0,165.21 -82.6,247.81 -247.81,247.81l-580.01 0c-176.54,0 -264.66,-82.6 -264.66,-247.81l0 -6656.39c0,-75 24.3,-135.09 73.21,-180.12 48.76,-45.18 106.91,-67.69 174.45,-67.69l585.68 0c78.88,0 142.69,24.45 189.66,73.21 46.97,48.91 69.48,107.06 69.48,174.6l0 698.4zm11251.59 4578.35c26.24,-22.51 56.36,-46.97 88.27,-71.42 31.91,-24.3 65.61,-41.3 101.39,-52.48 35.64,-11.33 71.27,-11.33 106.91,0 35.64,11.18 71.42,41.3 108.84,90.06 75.15,101.39 137.03,183.99 183.99,247.81 46.97,63.82 84.54,114.51 114.51,152.08 30.12,41.3 52.63,71.27 67.54,90.06 18.79,29.97 35.78,60.09 48.91,90.06 13.12,30.12 14.91,62.03 7.46,97.66 -7.46,35.64 -26.24,76.94 -58.15,120.18 -31.91,43.09 -82.6,90.06 -150.15,144.48 -161.48,127.63 -328.62,244.08 -503.07,347.26 -174.6,103.33 -358.59,193.39 -550.04,268.53 -191.45,76.94 -392.29,135.09 -604.46,176.39 -212.17,41.3 -437.32,61.88 -673.94,61.88 -334.14,0 -656.95,-45.03 -968.57,-133.15 -311.62,-88.27 -604.46,-214.11 -880.45,-377.38 -275.84,-163.27 -527.38,-358.59 -754.61,-583.74 -227.08,-225.29 -424.2,-475.04 -589.4,-749.09 -165.21,-275.84 -292.84,-568.68 -382.9,-884.03 -90.06,-313.56 -135.24,-640.1 -135.24,-978.11 0,-337.87 45.18,-664.4 135.24,-977.96 90.06,-315.35 217.69,-608.19 382.9,-884.03 165.21,-274.2 362.32,-523.8 589.4,-749.09 227.23,-225.29 478.77,-420.47 754.61,-583.74 275.99,-163.27 568.83,-289.11 880.45,-377.38 311.62,-88.12 634.43,-133.3 968.57,-133.3 210.23,0 420.47,18.79 628.92,58.3 208.3,39.36 409.14,93.79 602.52,163.27 193.39,69.48 375.44,152.08 546.31,245.87 170.72,93.93 322.81,195.32 458.04,304.17 26.24,22.51 58.15,46.97 93.79,75 35.64,28.18 65.75,60.09 90.06,95.72 24.45,35.78 39.51,75.15 46.97,118.39 7.46,43.09 -1.94,90.06 -28.18,138.81l-411.08 540.65c-97.66,127.63 -210.23,125.84 -337.87,-5.67 -101.39,-105.12 -217.69,-200.84 -349.2,-285.23 -131.36,-84.54 -272.11,-157.75 -422.26,-219.63 -150.3,-62.03 -306.11,-108.99 -467.44,-142.69 -161.48,-33.85 -321.02,-50.69 -478.77,-50.69 -330.26,0 -649.49,71.27 -957.24,213.96 -307.9,142.69 -580.16,336.08 -816.64,580.01 -236.48,246.02 -426.14,529.46 -568.83,852.27 -142.54,322.96 -213.96,662.61 -213.96,1019.27 0,362.32 71.42,702.12 212.17,1024.93 140.75,321.02 328.47,600.73 564.95,842.88 236.63,240.2 510.68,429.86 820.36,570.62 309.69,140.75 630.7,212.17 964.84,212.17 206.51,0 394.23,-20.73 561.22,-60.09 167.14,-39.36 319.23,-92 456.25,-157.75 137.03,-65.61 262.72,-140.75 379.17,-225.15 116.3,-84.54 229.02,-170.87 337.87,-260.93zm3249.39 1379.65c0,165.21 -82.6,247.81 -247.81,247.81l-580.01 0c-176.54,0 -264.66,-82.6 -264.66,-247.81l0 -6656.39c0,-75 24.3,-135.09 73.21,-180.12 48.76,-45.18 106.91,-67.69 174.45,-67.69l585.68 0c78.88,0 142.69,24.45 189.66,73.21 46.97,48.91 69.48,107.06 69.48,174.6l0 6656.39zm0 -8201.24c0,167 -82.6,249.6 -247.81,249.6l-580.01 0c-176.54,0 -264.66,-82.6 -264.66,-249.6l0 -581.95c0,-76.94 24.3,-137.03 73.21,-182.05 48.76,-45.03 106.91,-67.54 174.45,-67.54l585.68 0c78.88,0 142.69,24.3 189.66,71.27 46.97,46.97 69.48,105.12 69.48,178.33l0 581.95zm7698.17 7497.33c-322.81,330.41 -698.25,589.4 -1128.11,779.06 -427.92,189.51 -891.63,285.23 -1390.98,285.23 -334.14,0 -658.88,-45.03 -972.3,-133.15 -313.56,-88.27 -608.19,-214.11 -882.39,-377.38 -274.05,-163.27 -523.65,-356.65 -748.94,-581.95 -227.08,-225.29 -420.47,-476.83 -583.74,-752.67 -163.27,-275.99 -289.11,-570.77 -377.38,-884.18 -88.12,-313.41 -133.3,-638.16 -133.3,-976.18 0,-337.87 45.18,-664.4 133.3,-977.96 88.27,-313.41 214.11,-606.25 377.38,-880.3 163.27,-274.05 356.65,-523.8 583.74,-749.09 225.29,-225.15 474.89,-418.53 748.94,-580.01 274.2,-161.48 567.04,-287.17 878.51,-375.44 311.62,-88.27 638.31,-131.36 976.18,-131.36 499.34,0 963.05,93.79 1390.98,283.44 429.86,187.72 805.3,446.71 1128.11,775.18l0 -686.92c0,-165.21 82.6,-247.81 247.81,-247.81l580.01 0c176.54,0 264.81,82.6 264.81,247.81l0 6667.57c0,75.15 -24.45,135.24 -73.21,180.27 -48.91,45.03 -107.06,67.54 -174.6,67.54l-585.68 0c-78.88,0 -140.75,-24.45 -187.72,-73.21 -46.97,-48.76 -71.42,-107.06 -71.42,-174.6l0 -703.91zm56.36 -2639.27c0,-350.99 -67.54,-688.85 -202.78,-1008.08 -135.09,-321.02 -319.08,-602.52 -551.83,-840.94 -232.75,-240.2 -505.01,-431.65 -818.42,-574.34 -313.56,-142.69 -647.55,-214.11 -1000.48,-214.11 -352.93,0 -683.34,71.42 -993.02,214.11 -309.84,142.69 -580.01,334.14 -810.97,574.34 -230.96,238.42 -413.01,519.92 -546.31,840.94 -133.15,319.23 -200.84,657.1 -200.84,1008.08 0,349.2 67.69,685.13 200.84,1008.08 133.3,322.81 315.35,606.25 546.31,852.12 230.96,246.02 501.13,441.19 810.97,587.61 309.69,146.42 640.1,219.63 993.02,219.63 352.93,0 686.92,-73.21 1000.48,-219.63 313.41,-146.42 585.68,-341.59 818.42,-587.61 232.75,-245.87 416.74,-529.31 551.83,-852.12 135.24,-322.96 202.78,-658.88 202.78,-1008.08zm12304.7 3590.99c-165.21,0 -247.81,-82.6 -247.81,-245.87l0 -679.61c-322.81,332.35 -698.25,591.34 -1128.11,779.06 -427.92,187.72 -891.63,281.51 -1390.98,281.51 -334.14,0 -658.88,-45.03 -972.3,-133.15 -313.56,-88.27 -608.19,-212.17 -882.39,-373.65 -274.05,-163.27 -523.65,-356.65 -748.94,-581.95 -227.08,-225.15 -420.47,-474.89 -583.74,-748.94 -163.27,-275.99 -289.11,-568.68 -377.38,-884.18 -88.12,-313.41 -133.3,-640.1 -133.3,-977.96 0,-337.87 45.18,-664.55 133.3,-977.96 88.27,-315.35 214.11,-610.13 377.38,-885.97 163.27,-275.99 356.65,-527.53 583.74,-752.82 225.29,-225.29 474.89,-420.47 748.94,-583.74 274.2,-163.27 567.04,-289.11 878.51,-377.38 311.62,-88.12 638.31,-133.3 976.18,-133.3 499.34,0 963.05,95.87 1390.98,285.38 429.86,189.66 805.3,450.59 1128.11,782.79l0 -2825.05c0,-67.69 24.45,-125.84 71.42,-174.6 46.97,-48.91 108.84,-73.21 187.72,-73.21l585.68 0c67.54,0 125.69,22.51 174.6,67.54 48.76,45.03 73.21,105.12 73.21,180.27l0 8784.98c0,165.21 -88.27,247.81 -264.81,247.81l-580.01 0zm-191.45 -3568.47c0,-349.2 -67.54,-685.13 -202.78,-1008.08 -135.09,-322.81 -319.08,-608.19 -551.83,-854.06 -232.75,-245.87 -505.01,-442.98 -818.42,-589.4 -313.56,-146.42 -647.55,-219.63 -1000.48,-219.63 -352.93,0 -683.34,73.21 -993.02,219.63 -309.84,146.42 -580.01,343.53 -810.97,589.4 -230.96,245.87 -413.01,531.25 -546.31,854.06 -133.15,322.96 -200.84,658.88 -200.84,1008.08 0,358.59 67.69,696.46 200.84,1015.54 133.3,319.08 315.35,598.8 546.31,840.94 230.96,240.35 501.13,431.8 810.97,574.49 309.69,142.54 640.1,213.96 993.02,213.96 352.93,0 686.92,-71.42 1000.48,-213.96 313.41,-142.69 585.68,-334.14 818.42,-574.49 232.75,-242.14 416.74,-521.86 551.83,-840.94 135.24,-319.08 202.78,-656.95 202.78,-1015.54zm7732.02 1929.69c33.85,-29.97 71.27,-58.15 110.78,-84.39 39.36,-26.39 78.88,-39.51 120.18,-39.51 56.21,0 110.63,33.85 163.27,101.39 75,101.39 137.03,183.99 183.99,247.81 46.82,63.82 84.39,114.51 114.51,152.08 29.97,41.3 52.48,71.27 67.54,90.06 18.79,22.51 33.7,45.03 45.03,69.48 11.18,24.45 16.85,52.48 16.85,82.6 0,41.3 -14.91,86.33 -46.82,133.3 -32.06,46.82 -88.27,101.39 -167.14,167 -161.48,127.63 -328.47,244.08 -503.07,347.26 -174.6,103.33 -358.59,193.39 -550.04,268.53 -191.45,76.94 -392.29,135.09 -604.46,176.39 -212.02,41.3 -437.32,61.88 -673.8,61.88 -334.14,0 -657.1,-45.03 -968.72,-133.15 -311.48,-88.27 -604.31,-214.11 -880.3,-377.38 -275.99,-163.27 -527.53,-358.59 -754.61,-583.74 -227.23,-225.29 -424.2,-475.04 -589.4,-749.09 -165.21,-275.84 -292.84,-568.68 -383.04,-884.03 -90.06,-313.56 -135.09,-640.1 -135.09,-978.11 0,-337.87 43.09,-666.34 127.63,-981.69 84.54,-315.35 204.57,-610.13 360.38,-885.97 155.81,-274.05 343.53,-523.8 565.1,-749.09 221.42,-225.15 471.16,-420.47 747,-581.8 275.99,-161.48 574.49,-285.38 895.51,-373.65 320.87,-88.12 658.88,-133.3 1015.54,-133.3 281.51,0 561.22,31.91 839,95.87 277.93,63.82 544.37,157.6 799.64,279.57 255.41,122.12 495.62,272.26 718.97,454.32 223.36,180.27 422.41,386.77 598.8,619.52 240.35,322.81 418.68,692.58 534.98,1105.6 116.45,413.01 170.87,887.91 163.42,1426.61 0,176.54 -82.6,264.66 -247.81,264.66l-5935.63 0c63.82,300.44 176.54,578.22 336.08,833.48 159.54,255.26 350.99,476.83 574.34,666.34 223.5,189.66 471.16,338.02 745.22,444.92 274.2,107.06 557.64,161.48 850.48,161.48 206.36,0 394.08,-20.73 561.22,-60.09 167,-39.36 319.08,-92 456.11,-157.75 137.03,-65.61 262.87,-140.75 379.17,-225.15 116.45,-84.54 229.02,-170.87 337.87,-260.93l11.33 -11.33zm-3085.98 -4167.27c-285.38,191.45 -531.25,431.8 -737.76,722.7 -206.51,291.05 -347.26,611.92 -422.41,961.12l5090.81 0c-41.3,-311.62 -137.03,-595.07 -288.96,-850.33 -152.08,-255.26 -343.53,-473.1 -572.55,-653.22 -229.02,-180.27 -486.22,-321.02 -773.4,-420.47 -287.17,-99.6 -585.68,-148.36 -893.57,-148.36 -244.08,0 -484.29,31.91 -722.7,95.72 -238.42,63.82 -465.5,161.48 -679.46,292.84zm15497.73 -2562.33c67.54,0 129.42,20.73 183.84,62.03 54.57,41.3 84.54,103.18 92,185.78l0 568.83c0,75 -22.51,138.81 -67.54,193.39 -45.03,54.42 -114.51,82.45 -208.3,82.45l-2342.7 0 0 7011.26c0,67.54 -22.51,127.63 -67.54,180.12 -45.18,52.63 -108.99,78.88 -191.6,78.88l-568.68 0c-67.69,0 -127.63,-24.3 -180.27,-73.21 -52.48,-48.76 -78.88,-110.78 -78.88,-185.78l0 -7011.26 -2353.88 0c-75.15,0 -137.03,-22.51 -185.78,-67.54 -48.91,-45.03 -73.21,-114.51 -73.21,-208.3l0 -568.83c0,-75 24.3,-135.09 73.21,-180.27 48.76,-45.03 110.63,-67.54 185.78,-67.54l5783.54 0zm6633.88 6729.6c33.85,-29.97 71.27,-58.15 110.78,-84.39 39.36,-26.39 78.88,-39.51 120.18,-39.51 56.21,0 110.63,33.85 163.27,101.39 75,101.39 137.03,183.99 183.99,247.81 46.82,63.82 84.39,114.51 114.51,152.08 29.97,41.3 52.48,71.27 67.54,90.06 18.79,22.51 33.7,45.03 45.03,69.48 11.18,24.45 16.85,52.48 16.85,82.6 0,41.3 -14.91,86.33 -46.82,133.3 -32.06,46.82 -88.27,101.39 -167.14,167 -161.48,127.63 -328.47,244.08 -503.07,347.26 -174.6,103.33 -358.59,193.39 -550.04,268.53 -191.45,76.94 -392.29,135.09 -604.46,176.39 -212.02,41.3 -437.32,61.88 -673.8,61.88 -334.14,0 -657.1,-45.03 -968.72,-133.15 -311.48,-88.27 -604.31,-214.11 -880.3,-377.38 -275.99,-163.27 -527.53,-358.59 -754.61,-583.74 -227.23,-225.29 -424.2,-475.04 -589.4,-749.09 -165.21,-275.84 -292.84,-568.68 -383.04,-884.03 -90.06,-313.56 -135.09,-640.1 -135.09,-978.11 0,-337.87 43.09,-666.34 127.63,-981.69 84.54,-315.35 204.57,-610.13 360.38,-885.97 155.81,-274.05 343.53,-523.8 565.1,-749.09 221.42,-225.15 471.16,-420.47 747,-581.8 275.99,-161.48 574.49,-285.38 895.51,-373.65 320.87,-88.12 658.88,-133.3 1015.54,-133.3 281.51,0 561.22,31.91 839,95.87 277.93,63.82 544.37,157.6 799.64,279.57 255.41,122.12 495.62,272.26 718.97,454.32 223.36,180.27 422.41,386.77 598.8,619.52 240.35,322.81 418.68,692.58 534.98,1105.6 116.45,413.01 170.87,887.91 163.42,1426.61 0,176.54 -82.6,264.66 -247.81,264.66l-5935.63 0c63.82,300.44 176.54,578.22 336.08,833.48 159.54,255.26 350.99,476.83 574.34,666.34 223.5,189.66 471.16,338.02 745.22,444.92 274.2,107.06 557.64,161.48 850.48,161.48 206.36,0 394.08,-20.73 561.22,-60.09 167,-39.36 319.08,-92 456.11,-157.75 137.03,-65.61 262.87,-140.75 379.17,-225.15 116.45,-84.54 229.02,-170.87 337.87,-260.93l11.33 -11.33zm-3085.98 -4167.27c-285.38,191.45 -531.25,431.8 -737.76,722.7 -206.51,291.05 -347.26,611.92 -422.41,961.12l5090.81 0c-41.3,-311.62 -137.03,-595.07 -288.96,-850.33 -152.08,-255.26 -343.53,-473.1 -572.55,-653.22 -229.02,-180.27 -486.22,-321.02 -773.4,-420.47 -287.17,-99.6 -585.68,-148.36 -893.57,-148.36 -244.08,0 -484.29,31.91 -722.7,95.72 -238.42,63.82 -465.5,161.48 -679.46,292.84zm11471.22 4178.6c26.24,-22.51 56.36,-46.97 88.27,-71.42 31.91,-24.3 65.61,-41.3 101.39,-52.48 35.64,-11.33 71.27,-11.33 106.91,0 35.64,11.18 71.42,41.3 108.84,90.06 75.15,101.39 137.03,183.99 183.99,247.81 46.97,63.82 84.54,114.51 114.51,152.08 30.12,41.3 52.63,71.27 67.54,90.06 18.79,29.97 35.78,60.09 48.91,90.06 13.12,30.12 14.91,62.03 7.46,97.66 -7.46,35.64 -26.24,76.94 -58.15,120.18 -31.91,43.09 -82.6,90.06 -150.15,144.48 -161.48,127.63 -328.62,244.08 -503.07,347.26 -174.6,103.33 -358.59,193.39 -550.04,268.53 -191.45,76.94 -392.29,135.09 -604.46,176.39 -212.17,41.3 -437.32,61.88 -673.94,61.88 -334.14,0 -656.95,-45.03 -968.57,-133.15 -311.62,-88.27 -604.46,-214.11 -880.45,-377.38 -275.84,-163.27 -527.38,-358.59 -754.61,-583.74 -227.08,-225.29 -424.2,-475.04 -589.4,-749.09 -165.21,-275.84 -292.84,-568.68 -382.9,-884.03 -90.06,-313.56 -135.24,-640.1 -135.24,-978.11 0,-337.87 45.18,-664.4 135.24,-977.96 90.06,-315.35 217.69,-608.19 382.9,-884.03 165.21,-274.2 362.32,-523.8 589.4,-749.09 227.23,-225.29 478.77,-420.47 754.61,-583.74 275.99,-163.27 568.83,-289.11 880.45,-377.38 311.62,-88.12 634.43,-133.3 968.57,-133.3 210.23,0 420.47,18.79 628.92,58.3 208.3,39.36 409.14,93.79 602.52,163.27 193.39,69.48 375.44,152.08 546.31,245.87 170.72,93.93 322.81,195.32 458.04,304.17 26.24,22.51 58.15,46.97 93.79,75 35.64,28.18 65.75,60.09 90.06,95.72 24.45,35.78 39.51,75.15 46.97,118.39 7.46,43.09 -1.94,90.06 -28.18,138.81l-411.08 540.65c-97.66,127.63 -210.23,125.84 -337.87,-5.67 -101.39,-105.12 -217.69,-200.84 -349.2,-285.23 -131.36,-84.54 -272.11,-157.75 -422.26,-219.63 -150.3,-62.03 -306.11,-108.99 -467.44,-142.69 -161.48,-33.85 -321.02,-50.69 -478.77,-50.69 -330.26,0 -649.49,71.27 -957.24,213.96 -307.9,142.69 -580.16,336.08 -816.64,580.01 -236.48,246.02 -426.14,529.46 -568.83,852.27 -142.54,322.96 -213.96,662.61 -213.96,1019.27 0,362.32 71.42,702.12 212.17,1024.93 140.75,321.02 328.47,600.73 564.95,842.88 236.63,240.2 510.68,429.86 820.36,570.62 309.69,140.75 630.7,212.17 964.84,212.17 206.51,0 394.23,-20.73 561.22,-60.09 167.14,-39.36 319.23,-92 456.25,-157.75 137.03,-65.61 262.72,-140.75 379.17,-225.15 116.3,-84.54 229.02,-170.87 337.87,-260.93zm3249.39 -4578.35c105.12,-131.51 223.36,-260.93 354.72,-386.77 131.36,-125.69 279.72,-238.42 442.98,-337.87 163.42,-99.45 343.53,-180.27 542.58,-242.14 198.9,-62.03 422.26,-92 670.07,-92 461.77,0 869.12,78.88 1222.05,238.42 352.93,159.54 649.49,377.23 887.91,653.22 238.42,275.99 418.68,600.73 540.65,972.45 121.97,371.56 182.05,769.52 182.05,1193.87l0 3823.74c0,127.63 -31.91,223.36 -97.66,287.17 -65.61,63.82 -150.15,95.72 -251.54,95.72l-416.59 0c-138.96,0 -227.23,-28.18 -266.6,-84.54 -39.51,-56.21 -60.09,-150.15 -60.09,-281.51l0 -3840.59c0,-225.29 -30.12,-456.25 -92,-690.79 -61.88,-234.69 -163.27,-446.86 -304.17,-638.31 -140.75,-191.45 -328.47,-347.26 -561.22,-467.44 -232.75,-120.03 -518.13,-180.12 -856,-180.12 -213.96,0 -435.53,37.42 -664.4,114.51 -229.02,76.94 -437.47,191.45 -625.19,341.59 -187.72,150.15 -341.59,335.93 -463.56,557.49 -122.12,221.57 -183.99,474.89 -183.99,760.27l0 4161.61c0,165.21 -82.6,247.81 -247.81,247.81l-580.01 0c-176.54,0 -264.66,-82.6 -264.66,-247.81l0 -6656.39c0,-75 24.3,-135.09 73.21,-180.12 48.76,-45.18 106.91,-67.69 174.45,-67.69l585.68 0c78.88,0 142.69,24.45 189.66,73.21 46.97,48.91 69.48,107.06 69.48,174.6l0 698.4z"/>
    <path class="fil12" d="M345537.44 130868.77c0,-506.8 99.45,-985.42 296.57,-1436.01 197.11,-448.65 463.56,-842.88 799.64,-1180.74 337.87,-337.87 728.37,-606.25 1177.02,-801.58 446.71,-195.18 923.54,-292.84 1426.61,-292.84 334.14,0 658.88,45.18 972.3,133.3 315.35,88.27 608.19,214.11 884.18,377.38 274.05,163.27 523.65,358.44 748.94,583.74 225.29,225.29 420.47,476.83 583.89,752.82 163.27,275.84 288.96,570.62 377.23,885.97 88.27,313.41 133.3,640.1 133.3,977.96 0,337.87 -45.03,664.55 -133.3,977.96 -88.27,315.5 -213.96,608.19 -377.23,884.18 -163.42,274.05 -358.59,523.8 -583.89,748.94 -225.29,225.29 -474.89,418.68 -748.94,581.95 -275.99,161.48 -568.83,285.38 -884.18,373.65 -313.41,88.12 -638.16,133.15 -972.3,133.15 -334.14,0 -658.88,-45.03 -972.45,-133.15 -313.41,-88.27 -608.19,-212.17 -882.24,-373.65 -275.99,-163.27 -525.59,-356.65 -750.88,-581.95 -225.15,-225.15 -418.53,-474.89 -581.95,-748.94 -161.33,-275.99 -287.17,-568.68 -377.23,-884.18 -90.06,-313.41 -135.09,-640.1 -135.09,-977.96zm1126.17 -3.73c0,358.59 67.69,696.46 202.78,1015.54 135.09,319.08 319.08,598.8 551.83,840.94 232.75,240.35 505.01,431.8 816.64,574.49 311.62,142.54 645.76,213.96 1002.42,213.96 352.93,0 685.13,-71.42 994.81,-213.96 309.84,-142.69 580.01,-334.14 810.97,-574.49 230.96,-242.14 413.01,-521.86 546.31,-840.94 133.15,-319.08 198.9,-656.95 198.9,-1015.54 0,-349.2 -65.75,-685.13 -198.9,-1008.08 -133.3,-322.81 -315.35,-608.19 -546.31,-854.06 -230.96,-245.87 -501.13,-442.98 -810.97,-589.4 -309.69,-146.42 -641.89,-219.63 -994.81,-219.63 -356.65,0 -690.79,73.21 -1002.42,219.63 -311.62,146.42 -583.89,343.53 -816.64,589.4 -232.75,245.87 -416.74,531.25 -551.83,854.06 -135.09,322.96 -202.78,658.88 -202.78,1008.08zm8818.83 3320.67c0,165.21 -82.6,247.81 -247.81,247.81l-580.01 0c-176.39,0 -264.66,-82.6 -264.66,-247.81l0 -8784.98c0,-75.15 24.45,-135.24 73.21,-180.27 48.76,-45.03 107.06,-67.54 174.6,-67.54l585.68 0c78.88,0 142.69,24.3 189.51,73.21 46.97,48.76 69.48,106.91 69.48,174.6l0 8784.98zm1515.03 -3316.94c0,-506.8 99.45,-985.42 296.57,-1436.01 197.11,-448.65 463.56,-842.88 799.64,-1180.74 337.87,-337.87 728.37,-606.25 1177.02,-801.58 446.71,-195.18 923.54,-292.84 1426.61,-292.84 334.14,0 658.88,45.18 972.3,133.3 315.35,88.27 608.19,214.11 884.18,377.38 274.05,163.27 523.65,358.44 748.94,583.74 225.29,225.29 420.47,476.83 583.89,752.82 163.27,275.84 288.96,570.62 377.23,885.97 88.27,313.41 133.3,640.1 133.3,977.96 0,337.87 -45.03,664.55 -133.3,977.96 -88.27,315.5 -213.96,608.19 -377.23,884.18 -163.42,274.05 -358.59,523.8 -583.89,748.94 -225.29,225.29 -474.89,418.68 -748.94,581.95 -275.99,161.48 -568.83,285.38 -884.18,373.65 -313.41,88.12 -638.16,133.15 -972.3,133.15 -334.14,0 -658.88,-45.03 -972.45,-133.15 -313.41,-88.27 -608.19,-212.17 -882.24,-373.65 -275.99,-163.27 -525.59,-356.65 -750.88,-581.95 -225.15,-225.15 -418.53,-474.89 -581.95,-748.94 -161.33,-275.99 -287.17,-568.68 -377.23,-884.18 -90.06,-313.41 -135.09,-640.1 -135.09,-977.96zm1126.17 -3.73c0,358.59 67.69,696.46 202.78,1015.54 135.09,319.08 319.08,598.8 551.83,840.94 232.75,240.35 505.01,431.8 816.64,574.49 311.62,142.54 645.76,213.96 1002.42,213.96 352.93,0 685.13,-71.42 994.81,-213.96 309.84,-142.69 580.01,-334.14 810.97,-574.49 230.96,-242.14 413.01,-521.86 546.31,-840.94 133.15,-319.08 198.9,-656.95 198.9,-1015.54 0,-349.2 -65.75,-685.13 -198.9,-1008.08 -133.3,-322.81 -315.35,-608.19 -546.31,-854.06 -230.96,-245.87 -501.13,-442.98 -810.97,-589.4 -309.69,-146.42 -641.89,-219.63 -994.81,-219.63 -356.65,0 -690.79,73.21 -1002.42,219.63 -311.62,146.42 -583.89,343.53 -816.64,589.4 -232.75,245.87 -416.74,531.25 -551.83,854.06 -135.09,322.96 -202.78,658.88 -202.78,1008.08zm13999.85 2577.39c-322.96,341.59 -703.91,609.98 -1139.44,807.09 -435.53,197.11 -910.42,296.57 -1421.1,296.57 -335.93,0 -660.67,-45.03 -974.24,-133.15 -313.41,-88.27 -608.19,-214.11 -882.24,-377.38 -274.05,-163.27 -525.59,-356.65 -750.88,-581.95 -225.15,-225.29 -420.47,-476.83 -583.74,-752.67 -163.27,-275.99 -289.11,-570.77 -377.38,-884.18 -88.12,-313.41 -133.15,-638.16 -133.15,-976.18 0,-337.87 45.03,-664.4 133.15,-977.96 88.27,-313.41 214.11,-606.25 377.38,-880.3 163.27,-274.05 356.65,-523.8 583.74,-749.09 225.29,-225.15 475.04,-418.53 749.09,-580.01 274.05,-161.48 566.89,-287.17 878.51,-375.44 311.48,-88.27 638.16,-131.36 976.03,-131.36 499.34,0 963.05,93.79 1390.98,283.44 429.86,187.72 805.3,446.71 1128.26,775.18l0 -686.92c0,-165.21 82.45,-247.81 247.66,-247.81l636.37 11.18c138.96,18.79 208.45,99.6 208.45,242.14l0 90.21 0 16.85 0 5642.79c0,427.92 -46.97,812.76 -142.69,1156.29 -95.72,343.53 -227.08,647.55 -394.23,910.42 -168.93,262.72 -369.77,488.01 -604.46,675.73 -234.54,187.72 -489.95,339.81 -767.73,458.04 -277.78,118.24 -572.55,206.51 -885.97,262.87 -313.56,56.21 -634.58,84.39 -961.12,84.39 -442.98,0 -844.82,-63.82 -1206.99,-193.39 -362.32,-127.63 -685.28,-287.17 -966.78,-480.56 -37.57,-18.79 -67.54,-43.09 -92,-71.27 -24.45,-28.18 -37.57,-65.75 -37.57,-114.51 0,-15.06 1.94,-29.97 3.73,-45.03 1.94,-16.85 9.39,-35.64 24.45,-58.15l304.17 -489.95c29.97,-41.3 58.15,-73.21 82.6,-93.93 24.3,-20.58 50.69,-29.97 80.66,-29.97 48.76,0 93.79,14.91 135.09,45.03 86.48,67.54 200.99,127.63 343.53,182.05 142.69,54.42 296.57,101.39 459.98,138.96 163.27,37.57 324.75,65.61 486.22,86.33 161.33,20.58 304.02,31.91 427.92,31.91 386.62,0 741.49,-48.76 1064.3,-148.36 322.96,-99.45 600.73,-240.2 833.48,-418.53 232.75,-180.27 414.8,-396.17 546.31,-649.49 131.36,-253.47 197.11,-534.98 197.11,-846.61l22.51 -223.36zm11.18 -2599.9c0,-350.99 -67.54,-688.85 -202.63,-1008.08 -135.24,-321.02 -319.23,-602.52 -551.98,-840.94 -232.75,-240.2 -504.86,-431.65 -818.42,-574.34 -313.41,-142.69 -647.55,-214.11 -1000.48,-214.11 -352.93,0 -683.34,71.42 -993.02,214.11 -309.69,142.69 -580.01,334.14 -810.97,574.34 -230.81,238.42 -413.01,519.92 -546.16,840.94 -133.3,319.23 -200.99,657.1 -200.99,1008.08 0,349.2 67.69,685.13 200.99,1008.08 133.15,322.81 315.35,606.25 546.16,852.12 230.96,246.02 501.28,441.19 810.97,587.61 309.69,146.42 640.1,219.63 993.02,219.63 352.93,0 687.07,-73.21 1000.48,-219.63 313.56,-146.42 585.68,-341.59 818.42,-587.61 232.75,-245.87 416.74,-529.31 551.98,-852.12 135.09,-322.96 202.63,-658.88 202.63,-1008.08zm3711.17 3343.18c0,165.21 -82.6,247.81 -247.81,247.81l-580.01 0c-176.54,0 -264.66,-82.6 -264.66,-247.81l0 -6656.39c0,-75 24.3,-135.09 73.21,-180.12 48.76,-45.18 106.91,-67.69 174.45,-67.69l585.68 0c78.88,0 142.69,24.45 189.66,73.21 46.97,48.91 69.48,107.06 69.48,174.6l0 6656.39zm0 -8201.24c0,167 -82.6,249.6 -247.81,249.6l-580.01 0c-176.54,0 -264.66,-82.6 -264.66,-249.6l0 -581.95c0,-76.94 24.3,-137.03 73.21,-182.05 48.76,-45.03 106.91,-67.54 174.45,-67.54l585.68 0c78.88,0 142.69,24.3 189.66,71.27 46.97,46.97 69.48,105.12 69.48,178.33l0 581.95zm7698.17 7497.33c-322.81,330.41 -698.25,589.4 -1128.11,779.06 -427.92,189.51 -891.63,285.23 -1390.98,285.23 -334.14,0 -658.88,-45.03 -972.3,-133.15 -313.56,-88.27 -608.19,-214.11 -882.39,-377.38 -274.05,-163.27 -523.65,-356.65 -748.94,-581.95 -227.08,-225.29 -420.47,-476.83 -583.74,-752.67 -163.27,-275.99 -289.11,-570.77 -377.38,-884.18 -88.12,-313.41 -133.3,-638.16 -133.3,-976.18 0,-337.87 45.18,-664.4 133.3,-977.96 88.27,-313.41 214.11,-606.25 377.38,-880.3 163.27,-274.05 356.65,-523.8 583.74,-749.09 225.29,-225.15 474.89,-418.53 748.94,-580.01 274.2,-161.48 567.04,-287.17 878.51,-375.44 311.62,-88.27 638.31,-131.36 976.18,-131.36 499.34,0 963.05,93.79 1390.98,283.44 429.86,187.72 805.3,446.71 1128.11,775.18l0 -686.92c0,-165.21 82.6,-247.81 247.81,-247.81l580.01 0c176.54,0 264.81,82.6 264.81,247.81l0 6667.57c0,75.15 -24.45,135.24 -73.21,180.27 -48.91,45.03 -107.06,67.54 -174.6,67.54l-585.68 0c-78.88,0 -140.75,-24.45 -187.72,-73.21 -46.97,-48.76 -71.42,-107.06 -71.42,-174.6l0 -703.91zm56.36 -2639.27c0,-350.99 -67.54,-688.85 -202.78,-1008.08 -135.09,-321.02 -319.08,-602.52 -551.83,-840.94 -232.75,-240.2 -505.01,-431.65 -818.42,-574.34 -313.56,-142.69 -647.55,-214.11 -1000.48,-214.11 -352.93,0 -683.34,71.42 -993.02,214.11 -309.84,142.69 -580.01,334.14 -810.97,574.34 -230.96,238.42 -413.01,519.92 -546.31,840.94 -133.15,319.23 -200.84,657.1 -200.84,1008.08 0,349.2 67.69,685.13 200.84,1008.08 133.3,322.81 315.35,606.25 546.31,852.12 230.96,246.02 501.13,441.19 810.97,587.61 309.69,146.42 640.1,219.63 993.02,219.63 352.93,0 686.92,-73.21 1000.48,-219.63 313.41,-146.42 585.68,-341.59 818.42,-587.61 232.75,-245.87 416.74,-529.31 551.83,-852.12 135.24,-322.96 202.78,-658.88 202.78,-1008.08zm-154679.13 15409.91c-165.21,0 -247.81,-82.6 -247.81,-245.87l0 -679.61c-322.81,332.35 -698.25,591.34 -1128.11,779.06 -427.92,187.72 -891.63,281.51 -1390.98,281.51 -334.14,0 -658.88,-45.03 -972.3,-133.15 -313.56,-88.27 -608.19,-212.17 -882.39,-373.65 -274.05,-163.27 -523.65,-356.65 -748.94,-581.95 -227.08,-225.15 -420.47,-474.89 -583.74,-748.94 -163.27,-275.99 -289.11,-568.68 -377.38,-884.18 -88.12,-313.41 -133.3,-640.1 -133.3,-977.96 0,-337.87 45.18,-664.55 133.3,-977.96 88.27,-315.35 214.11,-610.13 377.38,-885.97 163.27,-275.99 356.65,-527.53 583.74,-752.82 225.29,-225.29 474.89,-420.47 748.94,-583.74 274.2,-163.27 567.04,-289.11 878.51,-377.38 311.62,-88.12 638.31,-133.3 976.18,-133.3 499.34,0 963.05,95.87 1390.98,285.38 429.86,189.66 805.3,450.59 1128.11,782.79l0 -2825.05c0,-67.69 24.45,-125.84 71.42,-174.6 46.97,-48.91 108.84,-73.21 187.72,-73.21l585.68 0c67.54,0 125.69,22.51 174.6,67.54 48.76,45.03 73.21,105.12 73.21,180.27l0 8784.98c0,165.21 -88.27,247.81 -264.81,247.81l-580.01 0zm-191.45 -3568.47c0,-349.2 -67.54,-685.13 -202.78,-1008.08 -135.09,-322.81 -319.08,-608.19 -551.83,-854.06 -232.75,-245.87 -505.01,-442.98 -818.42,-589.4 -313.56,-146.42 -647.55,-219.63 -1000.48,-219.63 -352.93,0 -683.34,73.21 -993.02,219.63 -309.84,146.42 -580.01,343.53 -810.97,589.4 -230.96,245.87 -413.01,531.25 -546.31,854.06 -133.15,322.96 -200.84,658.88 -200.84,1008.08 0,358.59 67.69,696.46 200.84,1015.54 133.3,319.08 315.35,598.8 546.31,840.94 230.96,240.35 501.13,431.8 810.97,574.49 309.69,142.54 640.1,213.96 993.02,213.96 352.93,0 686.92,-71.42 1000.48,-213.96 313.41,-142.69 585.68,-334.14 818.42,-574.49 232.75,-242.14 416.74,-521.86 551.83,-840.94 135.24,-319.08 202.78,-656.95 202.78,-1015.54zm8525.99 2616.75c-322.81,330.41 -698.25,589.4 -1128.11,779.06 -427.92,189.51 -891.63,285.23 -1390.98,285.23 -334.14,0 -658.88,-45.03 -972.3,-133.15 -313.56,-88.27 -608.19,-214.11 -882.39,-377.38 -274.05,-163.27 -523.65,-356.65 -748.94,-581.95 -227.08,-225.29 -420.47,-476.83 -583.74,-752.67 -163.27,-275.99 -289.11,-570.77 -377.38,-884.18 -88.12,-313.41 -133.3,-638.16 -133.3,-976.18 0,-337.87 45.18,-664.4 133.3,-977.96 88.27,-313.41 214.11,-606.25 377.38,-880.3 163.27,-274.05 356.65,-523.8 583.74,-749.09 225.29,-225.15 474.89,-418.53 748.94,-580.01 274.2,-161.48 567.04,-287.17 878.51,-375.44 311.62,-88.27 638.31,-131.36 976.18,-131.36 499.34,0 963.05,93.79 1390.98,283.44 429.86,187.72 805.3,446.71 1128.11,775.18l0 -686.92c0,-165.21 82.6,-247.81 247.81,-247.81l580.01 0c176.54,0 264.81,82.6 264.81,247.81l0 6667.57c0,75.15 -24.45,135.24 -73.21,180.27 -48.91,45.03 -107.06,67.54 -174.6,67.54l-585.68 0c-78.88,0 -140.75,-24.45 -187.72,-73.21 -46.97,-48.76 -71.42,-107.06 -71.42,-174.6l0 -703.91zm56.36 -2639.27c0,-350.99 -67.54,-688.85 -202.78,-1008.08 -135.09,-321.02 -319.08,-602.52 -551.83,-840.94 -232.75,-240.2 -505.01,-431.65 -818.42,-574.34 -313.56,-142.69 -647.55,-214.11 -1000.48,-214.11 -352.93,0 -683.34,71.42 -993.02,214.11 -309.84,142.69 -580.01,334.14 -810.97,574.34 -230.96,238.42 -413.01,519.92 -546.31,840.94 -133.15,319.23 -200.84,657.1 -200.84,1008.08 0,349.2 67.69,685.13 200.84,1008.08 133.3,322.81 315.35,606.25 546.31,852.12 230.96,246.02 501.13,441.19 810.97,587.61 309.69,146.42 640.1,219.63 993.02,219.63 352.93,0 686.92,-73.21 1000.48,-219.63 313.41,-146.42 585.68,-341.59 818.42,-587.61 232.75,-245.87 416.74,-529.31 551.83,-852.12 135.24,-322.96 202.78,-658.88 202.78,-1008.08zm6172.11 -4529.59c0,-67.54 22.51,-125.69 65.61,-174.6 43.24,-48.76 103.33,-73.21 182.2,-73.21l585.68 0c67.54,0 127.63,22.51 180.12,67.54 52.63,45.18 78.88,105.27 78.88,180.27l0 7867.11c0,165.21 -86.33,247.81 -258.99,247.81l-585.68 0c-165.21,0 -247.81,-82.6 -247.81,-247.81l0 -7867.11zm4009.67 1914.78c105.12,-131.51 223.36,-260.93 354.72,-386.77 131.36,-125.69 279.72,-238.42 442.98,-337.87 163.42,-99.45 343.53,-180.27 542.58,-242.14 198.9,-62.03 422.26,-92 670.07,-92 461.77,0 869.12,78.88 1222.05,238.42 352.93,159.54 649.49,377.23 887.91,653.22 238.42,275.99 418.68,600.73 540.65,972.45 121.97,371.56 182.05,769.52 182.05,1193.87l0 3823.74c0,127.63 -31.91,223.36 -97.66,287.17 -65.61,63.82 -150.15,95.72 -251.54,95.72l-416.59 0c-138.96,0 -227.23,-28.18 -266.6,-84.54 -39.51,-56.21 -60.09,-150.15 -60.09,-281.51l0 -3840.59c0,-225.29 -30.12,-456.25 -92,-690.79 -61.88,-234.69 -163.27,-446.86 -304.17,-638.31 -140.75,-191.45 -328.47,-347.26 -561.22,-467.44 -232.75,-120.03 -518.13,-180.12 -856,-180.12 -213.96,0 -435.53,37.42 -664.4,114.51 -229.02,76.94 -437.47,191.45 -625.19,341.59 -187.72,150.15 -341.59,335.93 -463.56,557.49 -122.12,221.57 -183.99,474.89 -183.99,760.27l0 4161.61c0,165.21 -82.6,247.81 -247.81,247.81l-580.01 0c-176.54,0 -264.66,-82.6 -264.66,-247.81l0 -6656.39c0,-75 24.3,-135.09 73.21,-180.12 48.76,-45.18 106.91,-67.69 174.45,-67.69l585.68 0c78.88,0 142.69,24.45 189.66,73.21 46.97,48.91 69.48,107.06 69.48,174.6l0 698.4zm8430.27 -3592.93c86.33,0 153.87,26.24 204.57,78.88 50.69,52.48 76.94,125.69 76.94,219.63l0 476.68c0,75.15 -20.58,142.69 -61.88,200.99 -41.3,56.21 -103.33,86.33 -185.93,86.33 -63.82,0 -140.75,13.12 -230.81,41.3 -90.06,28.18 -176.54,78.73 -259.14,150.15 -82.6,71.27 -151.94,165.21 -210.23,283.44 -58.15,118.24 -88.12,268.38 -88.12,452.38l0 1175.08 754.61 0c86.33,0 155.81,22.51 206.51,67.54 50.69,46.97 75,123.9 75,234.69l0 358.59c0,103.18 -24.3,183.84 -75,242.14 -50.69,58.15 -120.18,88.12 -206.51,88.12l-754.61 0 0 5344.29c0,97.66 -30.12,170.87 -92,221.57 -62.03,50.69 -131.36,76.94 -206.51,76.94l-523.8 0c-93.79,0 -161.33,-28.18 -204.57,-84.54 -43.09,-56.21 -65.75,-127.63 -65.75,-213.96l0 -5344.29 -534.98 0c-86.33,0 -155.81,-29.97 -210.23,-88.12 -54.42,-58.3 -82.6,-138.96 -82.6,-242.14l0 -358.59c0,-110.78 28.18,-187.72 82.6,-234.69 54.42,-45.03 123.9,-67.54 210.23,-67.54l534.98 0 -5.52 -1186.41c0,-270.17 43.09,-523.65 127.63,-764 84.39,-240.2 204.57,-450.44 364.11,-630.7 157.75,-178.33 350.99,-321.02 581.95,-426.14 229.02,-105.12 488.01,-157.6 779.06,-157.6zm1222.05 6233.98c0,-506.8 99.45,-985.42 296.57,-1436.01 197.11,-448.65 463.56,-842.88 799.64,-1180.74 337.87,-337.87 728.37,-606.25 1177.02,-801.58 446.71,-195.18 923.54,-292.84 1426.61,-292.84 334.14,0 658.88,45.18 972.3,133.3 315.35,88.27 608.19,214.11 884.18,377.38 274.05,163.27 523.65,358.44 748.94,583.74 225.29,225.29 420.47,476.83 583.89,752.82 163.27,275.84 288.96,570.62 377.23,885.97 88.27,313.41 133.3,640.1 133.3,977.96 0,337.87 -45.03,664.55 -133.3,977.96 -88.27,315.5 -213.96,608.19 -377.23,884.18 -163.42,274.05 -358.59,523.8 -583.89,748.94 -225.29,225.29 -474.89,418.68 -748.94,581.95 -275.99,161.48 -568.83,285.38 -884.18,373.65 -313.41,88.12 -638.16,133.15 -972.3,133.15 -334.14,0 -658.88,-45.03 -972.45,-133.15 -313.41,-88.27 -608.19,-212.17 -882.24,-373.65 -275.99,-163.27 -525.59,-356.65 -750.88,-581.95 -225.15,-225.15 -418.53,-474.89 -581.95,-748.94 -161.33,-275.99 -287.17,-568.68 -377.23,-884.18 -90.06,-313.41 -135.09,-640.1 -135.09,-977.96zm1126.17 -3.73c0,358.59 67.69,696.46 202.78,1015.54 135.09,319.08 319.08,598.8 551.83,840.94 232.75,240.35 505.01,431.8 816.64,574.49 311.62,142.54 645.76,213.96 1002.42,213.96 352.93,0 685.13,-71.42 994.81,-213.96 309.84,-142.69 580.01,-334.14 810.97,-574.49 230.96,-242.14 413.01,-521.86 546.31,-840.94 133.15,-319.08 198.9,-656.95 198.9,-1015.54 0,-349.2 -65.75,-685.13 -198.9,-1008.08 -133.3,-322.81 -315.35,-608.19 -546.31,-854.06 -230.96,-245.87 -501.13,-442.98 -810.97,-589.4 -309.69,-146.42 -641.89,-219.63 -994.81,-219.63 -356.65,0 -690.79,73.21 -1002.42,219.63 -311.62,146.42 -583.89,343.53 -816.64,589.4 -232.75,245.87 -416.74,531.25 -551.83,854.06 -135.09,322.96 -202.78,658.88 -202.78,1008.08zm8796.31 -2828.93c45.03,-86.33 110.78,-180.12 195.18,-281.51 84.54,-101.39 185.93,-195.18 306.11,-281.51 120.03,-86.48 257.05,-159.69 411.08,-217.84 153.87,-58.15 322.81,-86.33 506.8,-86.33 202.78,0 386.62,7.46 550.04,24.45 163.27,16.85 317.14,46.82 463.56,90.06 146.42,43.24 289.11,101.39 426.14,174.6 137.03,73.21 279.72,167 429.86,279.72 45.03,33.7 95.72,76.94 150.15,129.42 54.57,52.63 80.81,114.51 80.81,185.93 0,41.3 -9.39,78.73 -28.18,112.57l-332.2 512.47c-52.63,63.82 -105.12,95.72 -157.75,95.72 -29.97,0 -58.15,-11.18 -84.54,-31.91 -26.24,-20.58 -58.15,-43.09 -95.72,-69.48 -232.75,-157.6 -457.89,-274.05 -677.52,-347.26 -219.63,-73.21 -454.32,-108.84 -702.12,-108.84 -187.72,0 -367.99,35.64 -540.65,107.06 -172.66,71.27 -324.75,172.66 -458.04,305.96 -133.3,133.3 -240.2,296.57 -321.02,489.95 -80.66,193.24 -121.97,412.87 -121.97,656.95l0 4409.41c0,165.21 -82.6,247.81 -247.81,247.81l-585.68 0c-172.66,0 -258.99,-82.6 -258.99,-247.81l0 -6656.39c0,-75 24.45,-135.09 73.21,-180.12 48.76,-45.18 107.06,-67.69 174.6,-67.69l585.68 0c78.88,0 142.69,24.45 189.51,73.21 46.97,48.91 69.48,107.06 69.48,174.6l0 506.8zm5867.94 78.88c105.12,-131.36 217.84,-255.26 337.87,-369.77 120.18,-114.51 255.41,-213.96 403.62,-300.29 148.36,-86.33 315.35,-154.02 503.07,-202.78 187.72,-48.76 405.56,-73.21 653.22,-73.21 593.28,0 1077.57,108.84 1453.01,328.47 375.44,217.84 675.73,536.92 901.03,957.39 105.12,-238.42 240.2,-439.26 407.35,-604.46 167,-165.21 354.72,-298.5 563.16,-401.68 208.3,-103.33 431.65,-178.33 670.07,-223.36 236.63,-45.03 480.56,-67.69 728.37,-67.69 459.98,0 867.18,78.88 1220.11,238.42 352.93,159.54 647.7,377.38 886.12,653.37 238.42,275.84 418.53,600.59 540.5,972.3 122.12,371.71 182.2,769.67 182.2,1193.87l0 3823.74c0,127.63 -31.91,223.36 -97.66,287.17 -65.75,63.82 -150.15,95.72 -251.54,95.72l-416.74 0c-138.96,0 -227.08,-28.03 -266.6,-84.39 -39.36,-56.36 -60.09,-150.15 -60.09,-281.65l0 -3840.59c0,-225.29 -29.97,-456.11 -91.85,-690.79 -62.03,-234.69 -163.42,-446.71 -304.17,-638.16 -140.75,-191.6 -326.68,-347.41 -559.43,-467.44 -232.75,-120.18 -517.98,-180.27 -854.06,-180.27 -285.38,0 -540.65,45.03 -765.94,135.24 -225.15,90.06 -414.8,221.42 -570.62,392.29 -155.81,170.72 -274.05,379.17 -356.65,625.04 -82.6,245.87 -123.9,523.8 -123.9,831.55l0 3827.62c0,127.63 -31.91,223.36 -97.51,287.17 -65.75,63.82 -150.3,95.72 -251.54,95.72l-416.74 0c-138.96,0 -227.23,-28.18 -266.6,-84.54 -39.36,-56.21 -60.09,-150.15 -60.09,-281.51l0 -3840.59c0,-225.29 -29.97,-456.25 -92,-690.79 -61.88,-234.69 -163.27,-446.86 -304.02,-638.31 -140.9,-191.45 -328.62,-347.26 -561.37,-467.44 -232.75,-120.03 -517.98,-180.12 -856,-180.12 -213.96,0 -429.86,37.42 -647.55,114.51 -217.69,76.94 -413.01,191.45 -587.61,341.59 -174.45,150.15 -317.14,335.93 -425.99,557.49 -108.99,221.57 -163.42,474.89 -163.42,760.27l0 4161.61c0,165.21 -82.6,247.81 -247.81,247.81l-580.01 0c-176.39,0 -264.66,-82.6 -264.66,-247.81l0 -6656.39c0,-75 24.45,-135.09 73.21,-180.12 48.76,-45.18 107.06,-67.69 174.6,-67.69l585.68 0c78.88,0 142.69,24.45 189.51,73.21 46.97,48.91 69.48,107.06 69.48,174.6l0 585.68zm16928.08 5366.8c-322.81,330.41 -698.25,589.4 -1128.11,779.06 -427.92,189.51 -891.63,285.23 -1390.98,285.23 -334.14,0 -658.88,-45.03 -972.3,-133.15 -313.56,-88.27 -608.19,-214.11 -882.39,-377.38 -274.05,-163.27 -523.65,-356.65 -748.94,-581.95 -227.08,-225.29 -420.47,-476.83 -583.74,-752.67 -163.27,-275.99 -289.11,-570.77 -377.38,-884.18 -88.12,-313.41 -133.3,-638.16 -133.3,-976.18 0,-337.87 45.18,-664.4 133.3,-977.96 88.27,-313.41 214.11,-606.25 377.38,-880.3 163.27,-274.05 356.65,-523.8 583.74,-749.09 225.29,-225.15 474.89,-418.53 748.94,-580.01 274.2,-161.48 567.04,-287.17 878.51,-375.44 311.62,-88.27 638.31,-131.36 976.18,-131.36 499.34,0 963.05,93.79 1390.98,283.44 429.86,187.72 805.3,446.71 1128.11,775.18l0 -686.92c0,-165.21 82.6,-247.81 247.81,-247.81l580.01 0c176.54,0 264.81,82.6 264.81,247.81l0 6667.57c0,75.15 -24.45,135.24 -73.21,180.27 -48.91,45.03 -107.06,67.54 -174.6,67.54l-585.68 0c-78.88,0 -140.75,-24.45 -187.72,-73.21 -46.97,-48.76 -71.42,-107.06 -71.42,-174.6l0 -703.91zm56.36 -2639.27c0,-350.99 -67.54,-688.85 -202.78,-1008.08 -135.09,-321.02 -319.08,-602.52 -551.83,-840.94 -232.75,-240.2 -505.01,-431.65 -818.42,-574.34 -313.56,-142.69 -647.55,-214.11 -1000.48,-214.11 -352.93,0 -683.34,71.42 -993.02,214.11 -309.84,142.69 -580.01,334.14 -810.97,574.34 -230.96,238.42 -413.01,519.92 -546.31,840.94 -133.15,319.23 -200.84,657.1 -200.84,1008.08 0,349.2 67.69,685.13 200.84,1008.08 133.3,322.81 315.35,606.25 546.31,852.12 230.96,246.02 501.13,441.19 810.97,587.61 309.69,146.42 640.1,219.63 993.02,219.63 352.93,0 686.92,-73.21 1000.48,-219.63 313.41,-146.42 585.68,-341.59 818.42,-587.61 232.75,-245.87 416.74,-529.31 551.83,-852.12 135.24,-322.96 202.78,-658.88 202.78,-1008.08z"/>
    <path class="fil12" d="M297506.69 144624.99c26.24,-22.51 56.36,-46.97 88.27,-71.42 31.91,-24.3 65.61,-41.3 101.39,-52.48 35.64,-11.33 71.27,-11.33 106.91,0 35.64,11.18 71.42,41.3 108.84,90.06 75.15,101.39 137.03,183.99 183.99,247.81 46.97,63.82 84.54,114.51 114.51,152.08 30.12,41.3 52.63,71.27 67.54,90.06 18.79,29.97 35.78,60.09 48.91,90.06 13.12,30.12 14.91,62.03 7.46,97.66 -7.46,35.64 -26.24,76.94 -58.15,120.18 -31.91,43.09 -82.6,90.06 -150.15,144.48 -161.48,127.63 -328.62,244.08 -503.07,347.26 -174.6,103.33 -358.59,193.39 -550.04,268.53 -191.45,76.94 -392.29,135.09 -604.46,176.39 -212.17,41.3 -437.32,61.88 -673.94,61.88 -334.14,0 -656.95,-45.03 -968.57,-133.15 -311.62,-88.27 -604.46,-214.11 -880.45,-377.38 -275.84,-163.27 -527.38,-358.59 -754.61,-583.74 -227.08,-225.29 -424.2,-475.04 -589.4,-749.09 -165.21,-275.84 -292.84,-568.68 -382.9,-884.03 -90.06,-313.56 -135.24,-640.1 -135.24,-978.11 0,-337.87 45.18,-664.4 135.24,-977.96 90.06,-315.35 217.69,-608.19 382.9,-884.03 165.21,-274.2 362.32,-523.8 589.4,-749.09 227.23,-225.29 478.77,-420.47 754.61,-583.74 275.99,-163.27 568.83,-289.11 880.45,-377.38 311.62,-88.12 634.43,-133.3 968.57,-133.3 210.23,0 420.47,18.79 628.92,58.3 208.3,39.36 409.14,93.79 602.52,163.27 193.39,69.48 375.44,152.08 546.31,245.87 170.72,93.93 322.81,195.32 458.04,304.17 26.24,22.51 58.15,46.97 93.79,75 35.64,28.18 65.75,60.09 90.06,95.72 24.45,35.78 39.51,75.15 46.97,118.39 7.46,43.09 -1.94,90.06 -28.18,138.81l-411.08 540.65c-97.66,127.63 -210.23,125.84 -337.87,-5.67 -101.39,-105.12 -217.69,-200.84 -349.2,-285.23 -131.36,-84.54 -272.11,-157.75 -422.26,-219.63 -150.3,-62.03 -306.11,-108.99 -467.44,-142.69 -161.48,-33.85 -321.02,-50.69 -478.77,-50.69 -330.26,0 -649.49,71.27 -957.24,213.96 -307.9,142.69 -580.16,336.08 -816.64,580.01 -236.48,246.02 -426.14,529.46 -568.83,852.27 -142.54,322.96 -213.96,662.61 -213.96,1019.27 0,362.32 71.42,702.12 212.17,1024.93 140.75,321.02 328.47,600.73 564.95,842.88 236.63,240.2 510.68,429.86 820.36,570.62 309.69,140.75 630.7,212.17 964.84,212.17 206.51,0 394.23,-20.73 561.22,-60.09 167.14,-39.36 319.23,-92 456.25,-157.75 137.03,-65.61 262.72,-140.75 379.17,-225.15 116.3,-84.54 229.02,-170.87 337.87,-260.93zm-1345.95 1616.12c-82.6,56.36 -123.9,122.12 -123.9,197.11 0,60.09 30.12,114.51 88.27,165.21 58.15,50.69 129.57,103.33 213.96,157.75 84.54,54.42 176.54,112.57 277.78,174.6 101.39,61.88 195.32,133.3 279.72,213.96 84.54,80.66 155.81,172.66 214.11,275.99 58.15,103.18 86.33,225.15 86.33,364.11 0,131.36 -26.39,255.26 -78.88,373.5 -52.63,118.24 -138.96,229.02 -258.99,332.35 -120.18,103.18 -277.93,202.63 -473.1,296.57 -195.18,93.79 -435.53,183.99 -720.76,270.32l-28.18 0c-56.36,0 -105.12,-22.51 -146.42,-67.54 -41.3,-45.18 -76.94,-97.66 -107.06,-157.75 -29.97,-60.09 -52.48,-121.97 -67.54,-185.78 -15.06,-63.82 -22.51,-112.72 -22.51,-146.42 0,-52.63 20.58,-93.93 61.88,-123.9 642.04,-157.75 963.05,-354.86 963.05,-591.34 0,-82.6 -28.18,-155.81 -84.54,-219.63 -56.21,-63.82 -125.69,-125.84 -210.23,-183.99 -84.39,-58.15 -176.39,-116.3 -274.05,-174.6 -97.66,-58.15 -187.72,-120.03 -272.11,-187.72 -84.54,-67.54 -155.81,-142.54 -212.17,-225.15 -56.36,-82.6 -84.54,-178.33 -84.54,-287.32 0,-41.3 5.67,-84.39 17,-129.42 11.18,-45.03 43.09,-92 95.72,-140.9l867.18 0zm9381.99 -940.39c-322.81,330.41 -698.25,589.4 -1128.11,779.06 -427.92,189.51 -891.63,285.23 -1390.98,285.23 -334.14,0 -658.88,-45.03 -972.3,-133.15 -313.56,-88.27 -608.19,-214.11 -882.39,-377.38 -274.05,-163.27 -523.65,-356.65 -748.94,-581.95 -227.08,-225.29 -420.47,-476.83 -583.74,-752.67 -163.27,-275.99 -289.11,-570.77 -377.38,-884.18 -88.12,-313.41 -133.3,-638.16 -133.3,-976.18 0,-337.87 45.18,-664.4 133.3,-977.96 88.27,-313.41 214.11,-606.25 377.38,-880.3 163.27,-274.05 356.65,-523.8 583.74,-749.09 225.29,-225.15 474.89,-418.53 748.94,-580.01 274.2,-161.48 567.04,-287.17 878.51,-375.44 311.62,-88.27 638.31,-131.36 976.18,-131.36 499.34,0 963.05,93.79 1390.98,283.44 429.86,187.72 805.3,446.71 1128.11,775.18l0 -686.92c0,-165.21 82.6,-247.81 247.81,-247.81l580.01 0c176.54,0 264.81,82.6 264.81,247.81l0 6667.57c0,75.15 -24.45,135.24 -73.21,180.27 -48.91,45.03 -107.06,67.54 -174.6,67.54l-585.68 0c-78.88,0 -140.75,-24.45 -187.72,-73.21 -46.97,-48.76 -71.42,-107.06 -71.42,-174.6l0 -703.91zm56.36 -2639.27c0,-350.99 -67.54,-688.85 -202.78,-1008.08 -135.09,-321.02 -319.08,-602.52 -551.83,-840.94 -232.75,-240.2 -505.01,-431.65 -818.42,-574.34 -313.56,-142.69 -647.55,-214.11 -1000.48,-214.11 -352.93,0 -683.34,71.42 -993.02,214.11 -309.84,142.69 -580.01,334.14 -810.97,574.34 -230.96,238.42 -413.01,519.92 -546.31,840.94 -133.15,319.23 -200.84,657.1 -200.84,1008.08 0,349.2 67.69,685.13 200.84,1008.08 133.3,322.81 315.35,606.25 546.31,852.12 230.96,246.02 501.13,441.19 810.97,587.61 309.69,146.42 640.1,219.63 993.02,219.63 352.93,0 686.92,-73.21 1000.48,-219.63 313.41,-146.42 585.68,-341.59 818.42,-587.61 232.75,-245.87 416.74,-529.31 551.83,-852.12 135.24,-322.96 202.78,-658.88 202.78,-1008.08zm-1250.23 -5881.06c11.33,-15.06 22.51,-24.45 31.91,-26.39 9.39,-1.79 22.51,-1.79 41.3,-1.79 22.51,0 58.3,14.91 105.12,46.82 46.97,31.91 93.93,69.48 142.69,112.72 48.91,43.09 92,88.27 129.57,133.3 37.57,45.03 56.36,80.66 56.36,106.91 0,11.33 0,26.39 -1.94,46.97 -1.94,20.73 -11.33,37.57 -26.24,48.76l-123.9 174.6c-146.42,180.27 -304.17,307.9 -474.89,383.04 -170.87,75 -364.26,112.57 -578.22,112.57 -105.12,0 -215.9,-22.51 -332.2,-67.54 -116.45,-45.03 -223.5,-101.39 -321.02,-168.93l-287.17 -185.93c-56.36,-29.97 -110.78,-56.21 -163.42,-78.88 -52.48,-22.51 -112.57,-33.7 -180.12,-33.7 -75.15,0 -144.63,13.12 -210.23,41.3 -65.75,28.18 -120.18,65.61 -161.48,110.78 -18.79,18.64 -41.3,45.03 -67.54,78.73 -26.39,33.85 -52.63,65.75 -80.81,97.66 -28.03,31.91 -58.15,60.09 -90.06,84.54 -31.91,24.3 -61.88,37.42 -88.27,37.42 -7.46,0 -35.64,-14.91 -84.39,-45.03 -48.91,-29.97 -99.45,-67.54 -152.08,-110.78 -52.48,-43.09 -99.45,-88.12 -142.69,-135.09 -43.09,-46.97 -65.61,-86.33 -65.61,-120.18 0,-26.24 3.73,-43.09 11.18,-50.69 131.36,-225.15 296.57,-401.68 493.68,-527.38 197.11,-125.84 429.86,-187.72 700.19,-187.72 116.45,11.18 230.96,33.7 341.59,67.54 110.78,33.7 214.11,88.27 311.62,163.27l298.5 185.93c108.84,75 225.29,112.57 349.2,112.57 67.54,0 133.3,-15.06 197.11,-43.24 63.82,-28.03 116.3,-61.88 157.6,-103.18 18.79,-15.06 41.3,-37.57 65.75,-67.54 24.45,-30.12 48.76,-60.09 73.21,-88.27 24.45,-28.18 46.97,-52.63 69.48,-73.21 22.51,-20.73 41.3,-29.97 56.21,-29.97zm3581.74 5907.3c0,-506.8 99.45,-985.42 296.57,-1436.01 197.11,-448.65 463.56,-842.88 799.64,-1180.74 337.87,-337.87 728.37,-606.25 1177.02,-801.58 446.71,-195.18 923.54,-292.84 1426.61,-292.84 334.14,0 658.88,45.18 972.3,133.3 315.35,88.27 608.19,214.11 884.18,377.38 274.05,163.27 523.65,358.44 748.94,583.74 225.29,225.29 420.47,476.83 583.89,752.82 163.27,275.84 288.96,570.62 377.23,885.97 88.27,313.41 133.3,640.1 133.3,977.96 0,337.87 -45.03,664.55 -133.3,977.96 -88.27,315.5 -213.96,608.19 -377.23,884.18 -163.42,274.05 -358.59,523.8 -583.89,748.94 -225.29,225.29 -474.89,418.68 -748.94,581.95 -275.99,161.48 -568.83,285.38 -884.18,373.65 -313.41,88.12 -638.16,133.15 -972.3,133.15 -334.14,0 -658.88,-45.03 -972.45,-133.15 -313.41,-88.27 -608.19,-212.17 -882.24,-373.65 -275.99,-163.27 -525.59,-356.65 -750.88,-581.95 -225.15,-225.15 -418.53,-474.89 -581.95,-748.94 -161.33,-275.99 -287.17,-568.68 -377.23,-884.18 -90.06,-313.41 -135.09,-640.1 -135.09,-977.96zm1126.17 -3.73c0,358.59 67.69,696.46 202.78,1015.54 135.09,319.08 319.08,598.8 551.83,840.94 232.75,240.35 505.01,431.8 816.64,574.49 311.62,142.54 645.76,213.96 1002.42,213.96 352.93,0 685.13,-71.42 994.81,-213.96 309.84,-142.69 580.01,-334.14 810.97,-574.49 230.96,-242.14 413.01,-521.86 546.31,-840.94 133.15,-319.08 198.9,-656.95 198.9,-1015.54 0,-349.2 -65.75,-685.13 -198.9,-1008.08 -133.3,-322.81 -315.35,-608.19 -546.31,-854.06 -230.96,-245.87 -501.13,-442.98 -810.97,-589.4 -309.69,-146.42 -641.89,-219.63 -994.81,-219.63 -356.65,0 -690.79,73.21 -1002.42,219.63 -311.62,146.42 -583.89,343.53 -816.64,589.4 -232.75,245.87 -416.74,531.25 -551.83,854.06 -135.09,322.96 -202.78,658.88 -202.78,1008.08zm17395.51 3568.47c-165.21,0 -247.81,-82.6 -247.81,-245.87l0 -679.61c-322.81,332.35 -698.25,591.34 -1128.11,779.06 -427.92,187.72 -891.63,281.51 -1390.98,281.51 -334.14,0 -658.88,-45.03 -972.3,-133.15 -313.56,-88.27 -608.19,-212.17 -882.39,-373.65 -274.05,-163.27 -523.65,-356.65 -748.94,-581.95 -227.08,-225.15 -420.47,-474.89 -583.74,-748.94 -163.27,-275.99 -289.11,-568.68 -377.38,-884.18 -88.12,-313.41 -133.3,-640.1 -133.3,-977.96 0,-337.87 45.18,-664.55 133.3,-977.96 88.27,-315.35 214.11,-610.13 377.38,-885.97 163.27,-275.99 356.65,-527.53 583.74,-752.82 225.29,-225.29 474.89,-420.47 748.94,-583.74 274.2,-163.27 567.04,-289.11 878.51,-377.38 311.62,-88.12 638.31,-133.3 976.18,-133.3 499.34,0 963.05,95.87 1390.98,285.38 429.86,189.66 805.3,450.59 1128.11,782.79l0 -2825.05c0,-67.69 24.45,-125.84 71.42,-174.6 46.97,-48.91 108.84,-73.21 187.72,-73.21l585.68 0c67.54,0 125.69,22.51 174.6,67.54 48.76,45.03 73.21,105.12 73.21,180.27l0 8784.98c0,165.21 -88.27,247.81 -264.81,247.81l-580.01 0zm-191.45 -3568.47c0,-349.2 -67.54,-685.13 -202.78,-1008.08 -135.09,-322.81 -319.08,-608.19 -551.83,-854.06 -232.75,-245.87 -505.01,-442.98 -818.42,-589.4 -313.56,-146.42 -647.55,-219.63 -1000.48,-219.63 -352.93,0 -683.34,73.21 -993.02,219.63 -309.84,146.42 -580.01,343.53 -810.97,589.4 -230.96,245.87 -413.01,531.25 -546.31,854.06 -133.15,322.96 -200.84,658.88 -200.84,1008.08 0,358.59 67.69,696.46 200.84,1015.54 133.3,319.08 315.35,598.8 546.31,840.94 230.96,240.35 501.13,431.8 810.97,574.49 309.69,142.54 640.1,213.96 993.02,213.96 352.93,0 686.92,-71.42 1000.48,-213.96 313.41,-142.69 585.68,-334.14 818.42,-574.49 232.75,-242.14 416.74,-521.86 551.83,-840.94 135.24,-319.08 202.78,-656.95 202.78,-1015.54zm7732.02 1929.69c33.85,-29.97 71.27,-58.15 110.78,-84.39 39.36,-26.39 78.88,-39.51 120.18,-39.51 56.21,0 110.63,33.85 163.27,101.39 75,101.39 137.03,183.99 183.99,247.81 46.82,63.82 84.39,114.51 114.51,152.08 29.97,41.3 52.48,71.27 67.54,90.06 18.79,22.51 33.7,45.03 45.03,69.48 11.18,24.45 16.85,52.48 16.85,82.6 0,41.3 -14.91,86.33 -46.82,133.3 -32.06,46.82 -88.27,101.39 -167.14,167 -161.48,127.63 -328.47,244.08 -503.07,347.26 -174.6,103.33 -358.59,193.39 -550.04,268.53 -191.45,76.94 -392.29,135.09 -604.46,176.39 -212.02,41.3 -437.32,61.88 -673.8,61.88 -334.14,0 -657.1,-45.03 -968.72,-133.15 -311.48,-88.27 -604.31,-214.11 -880.3,-377.38 -275.99,-163.27 -527.53,-358.59 -754.61,-583.74 -227.23,-225.29 -424.2,-475.04 -589.4,-749.09 -165.21,-275.84 -292.84,-568.68 -383.04,-884.03 -90.06,-313.56 -135.09,-640.1 -135.09,-978.11 0,-337.87 43.09,-666.34 127.63,-981.69 84.54,-315.35 204.57,-610.13 360.38,-885.97 155.81,-274.05 343.53,-523.8 565.1,-749.09 221.42,-225.15 471.16,-420.47 747,-581.8 275.99,-161.48 574.49,-285.38 895.51,-373.65 320.87,-88.12 658.88,-133.3 1015.54,-133.3 281.51,0 561.22,31.91 839,95.87 277.93,63.82 544.37,157.6 799.64,279.57 255.41,122.12 495.62,272.26 718.97,454.32 223.36,180.27 422.41,386.77 598.8,619.52 240.35,322.81 418.68,692.58 534.98,1105.6 116.45,413.01 170.87,887.91 163.42,1426.61 0,176.54 -82.6,264.66 -247.81,264.66l-5935.63 0c63.82,300.44 176.54,578.22 336.08,833.48 159.54,255.26 350.99,476.83 574.34,666.34 223.5,189.66 471.16,338.02 745.22,444.92 274.2,107.06 557.64,161.48 850.48,161.48 206.36,0 394.08,-20.73 561.22,-60.09 167,-39.36 319.08,-92 456.11,-157.75 137.03,-65.61 262.87,-140.75 379.17,-225.15 116.45,-84.54 229.02,-170.87 337.87,-260.93l11.33 -11.33zm-3085.98 -4167.27c-285.38,191.45 -531.25,431.8 -737.76,722.7 -206.51,291.05 -347.26,611.92 -422.41,961.12l5090.81 0c-41.3,-311.62 -137.03,-595.07 -288.96,-850.33 -152.08,-255.26 -343.53,-473.1 -572.55,-653.22 -229.02,-180.27 -486.22,-321.02 -773.4,-420.47 -287.17,-99.6 -585.68,-148.36 -893.57,-148.36 -244.08,0 -484.29,31.91 -722.7,95.72 -238.42,63.82 -465.5,161.48 -679.46,292.84zm10068.9 -2292.01c0,-180.12 86.33,-270.32 259.14,-270.32l2798.81 0c371.71,0 717.03,69.48 1034.33,208.45 317.14,138.81 591.34,328.47 824.09,566.89 232.75,240.2 414.8,518.13 546.16,835.27 131.51,319.08 197.11,655.16 197.11,1008.08 0,345.32 -63.82,675.73 -193.39,987.36 -129.42,313.41 -309.69,587.61 -540.5,827.82 -230.96,238.42 -503.07,428.07 -816.64,568.83 -313.41,140.75 -655.16,212.02 -1022.99,212.02l-1999.17 0 0 2911.53c0,165.21 -82.6,247.81 -247.81,247.81l-591.34 0c-165.21,0 -247.81,-82.6 -247.81,-247.81l0 -7855.92zm4572.83 2337.04c0,-198.9 -39.51,-390.35 -118.24,-574.34 -78.88,-183.99 -185.93,-347.26 -322.96,-488.01 -137.03,-140.9 -298.5,-253.47 -482.35,-338.02 -183.99,-84.39 -381.11,-125.69 -591.34,-125.69l-1970.99 0 0 3052.28 1970.99 0c202.78,0 396.02,-41.3 580.01,-123.9 183.99,-82.6 345.47,-195.32 484.29,-336.08 138.96,-140.75 249.75,-302.23 330.41,-486.07 80.66,-183.99 120.18,-377.38 120.18,-580.16zm8503.48 4809.31c-322.81,330.41 -698.25,589.4 -1128.11,779.06 -427.92,189.51 -891.63,285.23 -1390.98,285.23 -334.14,0 -658.88,-45.03 -972.3,-133.15 -313.56,-88.27 -608.19,-214.11 -882.39,-377.38 -274.05,-163.27 -523.65,-356.65 -748.94,-581.95 -227.08,-225.29 -420.47,-476.83 -583.74,-752.67 -163.27,-275.99 -289.11,-570.77 -377.38,-884.18 -88.12,-313.41 -133.3,-638.16 -133.3,-976.18 0,-337.87 45.18,-664.4 133.3,-977.96 88.27,-313.41 214.11,-606.25 377.38,-880.3 163.27,-274.05 356.65,-523.8 583.74,-749.09 225.29,-225.15 474.89,-418.53 748.94,-580.01 274.2,-161.48 567.04,-287.17 878.51,-375.44 311.62,-88.27 638.31,-131.36 976.18,-131.36 499.34,0 963.05,93.79 1390.98,283.44 429.86,187.72 805.3,446.71 1128.11,775.18l0 -686.92c0,-165.21 82.6,-247.81 247.81,-247.81l580.01 0c176.54,0 264.81,82.6 264.81,247.81l0 6667.57c0,75.15 -24.45,135.24 -73.21,180.27 -48.91,45.03 -107.06,67.54 -174.6,67.54l-585.68 0c-78.88,0 -140.75,-24.45 -187.72,-73.21 -46.97,-48.76 -71.42,-107.06 -71.42,-174.6l0 -703.91zm56.36 -2639.27c0,-350.99 -67.54,-688.85 -202.78,-1008.08 -135.09,-321.02 -319.08,-602.52 -551.83,-840.94 -232.75,-240.2 -505.01,-431.65 -818.42,-574.34 -313.56,-142.69 -647.55,-214.11 -1000.48,-214.11 -352.93,0 -683.34,71.42 -993.02,214.11 -309.84,142.69 -580.01,334.14 -810.97,574.34 -230.96,238.42 -413.01,519.92 -546.31,840.94 -133.15,319.23 -200.84,657.1 -200.84,1008.08 0,349.2 67.69,685.13 200.84,1008.08 133.3,322.81 315.35,606.25 546.31,852.12 230.96,246.02 501.13,441.19 810.97,587.61 309.69,146.42 640.1,219.63 993.02,219.63 352.93,0 686.92,-73.21 1000.48,-219.63 313.41,-146.42 585.68,-341.59 818.42,-587.61 232.75,-245.87 416.74,-529.31 551.83,-852.12 135.24,-322.96 202.78,-658.88 202.78,-1008.08zm3728.01 3343.18c0,165.21 -82.6,247.81 -247.81,247.81l-580.01 0c-176.39,0 -264.66,-82.6 -264.66,-247.81l0 -8784.98c0,-75.15 24.45,-135.24 73.21,-180.27 48.76,-45.03 107.06,-67.54 174.6,-67.54l585.68 0c78.88,0 142.69,24.3 189.51,73.21 46.97,48.76 69.48,106.91 69.48,174.6l0 8784.98zm2934.04 -6070.72c105.12,-131.36 217.84,-255.26 337.87,-369.77 120.18,-114.51 255.41,-213.96 403.62,-300.29 148.36,-86.33 315.35,-154.02 503.07,-202.78 187.72,-48.76 405.56,-73.21 653.22,-73.21 593.28,0 1077.57,108.84 1453.01,328.47 375.44,217.84 675.73,536.92 901.03,957.39 105.12,-238.42 240.2,-439.26 407.35,-604.46 167,-165.21 354.72,-298.5 563.16,-401.68 208.3,-103.33 431.65,-178.33 670.07,-223.36 236.63,-45.03 480.56,-67.69 728.37,-67.69 459.98,0 867.18,78.88 1220.11,238.42 352.93,159.54 647.7,377.38 886.12,653.37 238.42,275.84 418.53,600.59 540.5,972.3 122.12,371.71 182.2,769.67 182.2,1193.87l0 3823.74c0,127.63 -31.91,223.36 -97.66,287.17 -65.75,63.82 -150.15,95.72 -251.54,95.72l-416.74 0c-138.96,0 -227.08,-28.03 -266.6,-84.39 -39.36,-56.36 -60.09,-150.15 -60.09,-281.65l0 -3840.59c0,-225.29 -29.97,-456.11 -91.85,-690.79 -62.03,-234.69 -163.42,-446.71 -304.17,-638.16 -140.75,-191.6 -326.68,-347.41 -559.43,-467.44 -232.75,-120.18 -517.98,-180.27 -854.06,-180.27 -285.38,0 -540.65,45.03 -765.94,135.24 -225.15,90.06 -414.8,221.42 -570.62,392.29 -155.81,170.72 -274.05,379.17 -356.65,625.04 -82.6,245.87 -123.9,523.8 -123.9,831.55l0 3827.62c0,127.63 -31.91,223.36 -97.51,287.17 -65.75,63.82 -150.3,95.72 -251.54,95.72l-416.74 0c-138.96,0 -227.23,-28.18 -266.6,-84.54 -39.36,-56.21 -60.09,-150.15 -60.09,-281.51l0 -3840.59c0,-225.29 -29.97,-456.25 -92,-690.79 -61.88,-234.69 -163.27,-446.86 -304.02,-638.31 -140.9,-191.45 -328.62,-347.26 -561.37,-467.44 -232.75,-120.03 -517.98,-180.12 -856,-180.12 -213.96,0 -429.86,37.42 -647.55,114.51 -217.69,76.94 -413.01,191.45 -587.61,341.59 -174.45,150.15 -317.14,335.93 -425.99,557.49 -108.99,221.57 -163.42,474.89 -163.42,760.27l0 4161.61c0,165.21 -82.6,247.81 -247.81,247.81l-580.01 0c-176.39,0 -264.66,-82.6 -264.66,-247.81l0 -6656.39c0,-75 24.45,-135.09 73.21,-180.12 48.76,-45.18 107.06,-67.69 174.6,-67.69l585.68 0c78.88,0 142.69,24.45 189.51,73.21 46.97,48.91 69.48,107.06 69.48,174.6l0 585.68zm16928.08 5366.8c-322.81,330.41 -698.25,589.4 -1128.11,779.06 -427.92,189.51 -891.63,285.23 -1390.98,285.23 -334.14,0 -658.88,-45.03 -972.3,-133.15 -313.56,-88.27 -608.19,-214.11 -882.39,-377.38 -274.05,-163.27 -523.65,-356.65 -748.94,-581.95 -227.08,-225.29 -420.47,-476.83 -583.74,-752.67 -163.27,-275.99 -289.11,-570.77 -377.38,-884.18 -88.12,-313.41 -133.3,-638.16 -133.3,-976.18 0,-337.87 45.18,-664.4 133.3,-977.96 88.27,-313.41 214.11,-606.25 377.38,-880.3 163.27,-274.05 356.65,-523.8 583.74,-749.09 225.29,-225.15 474.89,-418.53 748.94,-580.01 274.2,-161.48 567.04,-287.17 878.51,-375.44 311.62,-88.27 638.31,-131.36 976.18,-131.36 499.34,0 963.05,93.79 1390.98,283.44 429.86,187.72 805.3,446.71 1128.11,775.18l0 -686.92c0,-165.21 82.6,-247.81 247.81,-247.81l580.01 0c176.54,0 264.81,82.6 264.81,247.81l0 6667.57c0,75.15 -24.45,135.24 -73.21,180.27 -48.91,45.03 -107.06,67.54 -174.6,67.54l-585.68 0c-78.88,0 -140.75,-24.45 -187.72,-73.21 -46.97,-48.76 -71.42,-107.06 -71.42,-174.6l0 -703.91zm56.36 -2639.27c0,-350.99 -67.54,-688.85 -202.78,-1008.08 -135.09,-321.02 -319.08,-602.52 -551.83,-840.94 -232.75,-240.2 -505.01,-431.65 -818.42,-574.34 -313.56,-142.69 -647.55,-214.11 -1000.48,-214.11 -352.93,0 -683.34,71.42 -993.02,214.11 -309.84,142.69 -580.01,334.14 -810.97,574.34 -230.96,238.42 -413.01,519.92 -546.31,840.94 -133.15,319.23 -200.84,657.1 -200.84,1008.08 0,349.2 67.69,685.13 200.84,1008.08 133.3,322.81 315.35,606.25 546.31,852.12 230.96,246.02 501.13,441.19 810.97,587.61 309.69,146.42 640.1,219.63 993.02,219.63 352.93,0 686.92,-73.21 1000.48,-219.63 313.41,-146.42 585.68,-341.59 818.42,-587.61 232.75,-245.87 416.74,-529.31 551.83,-852.12 135.24,-322.96 202.78,-658.88 202.78,-1008.08zm2123.07 2194.34c-18.79,-56.21 -31.91,-103.18 -39.36,-138.81 -7.6,-35.78 -5.67,-65.75 3.73,-90.21 9.39,-24.3 24.45,-45.03 45.03,-63.82 20.58,-18.79 48.76,-37.42 86.33,-56.21l533.19 -247.81c93.79,-37.57 167,-33.85 219.63,13.12 52.48,46.97 93.79,105.12 123.9,172.66 56.21,146.42 144.48,274.05 266.45,384.83 122.12,110.78 253.47,202.78 396.17,274.05 140.75,71.42 285.23,123.9 431.65,159.54 146.42,35.64 272.26,54.42 375.44,54.42 142.69,0 300.44,-20.58 473.1,-61.88 170.72,-41.3 334.14,-105.12 484.29,-191.45 152.08,-86.33 279.72,-199.05 382.9,-336.08 103.33,-137.03 154.02,-298.5 154.02,-486.22 0,-202.63 -48.91,-366.05 -146.42,-489.8 -97.66,-123.9 -223.5,-227.23 -379.32,-307.9 -155.66,-80.66 -330.26,-144.63 -523.65,-193.39 -193.39,-48.76 -384.83,-99.45 -576.28,-152.08 -336.08,-90.06 -638.31,-200.84 -901.03,-330.26 -264.66,-129.57 -489.95,-279.72 -675.73,-450.59 -185.93,-170.87 -326.68,-366.05 -424.35,-585.68 -97.51,-219.63 -146.42,-465.5 -146.42,-739.55 0,-300.44 58.3,-574.49 174.6,-822.3 116.45,-247.66 277.78,-459.83 486.22,-636.22 208.3,-176.54 458.04,-313.56 747.15,-411.23 290.9,-97.51 611.92,-146.42 964.84,-146.42 289.11,0 536.77,26.39 745.22,78.88 208.3,52.63 392.29,129.57 553.77,232.75 161.33,103.33 309.69,230.96 444.92,383.04 135.09,151.94 275.84,328.47 422.26,527.38 45.03,75.15 69.48,138.96 73.21,193.39 3.73,54.42 -29.97,108.84 -101.39,161.48l-439.26 332.2c-86.33,48.76 -151.94,62.03 -197.11,39.51 -45.03,-22.66 -93.79,-65.75 -146.42,-129.57 -86.33,-101.39 -170.72,-199.05 -253.33,-292.84 -82.6,-93.93 -174.6,-178.33 -279.72,-251.54 -105.12,-73.21 -225.29,-131.36 -358.59,-174.6 -131.36,-43.24 -290.9,-63.82 -472.95,-63.82 -165.21,0 -324.75,18.79 -478.77,56.36 -153.87,37.42 -290.9,97.51 -412.87,180.12 -122.12,82.6 -219.63,185.93 -292.84,311.62 -73.21,125.84 -108.99,275.99 -108.99,448.65 0,131.36 45.18,251.54 135.24,362.32 90.06,110.78 204.57,212.02 343.53,302.23 138.81,90.06 289.11,167 454.32,230.81 165.06,63.82 324.75,114.51 478.62,152.08 356.65,82.6 681.4,187.72 976.18,315.35 292.84,127.63 546.16,279.72 756.4,456.11 208.45,176.54 371.71,381.11 488.01,615.79 116.45,234.69 174.6,501.13 174.6,797.7 0,326.68 -63.82,619.52 -193.24,880.45 -129.57,260.93 -309.84,482.5 -540.65,664.55 -229.02,182.05 -503.07,322.81 -822.3,420.47 -319.08,97.66 -664.4,146.42 -1039.84,146.42 -236.48,0 -478.77,-30.12 -726.43,-90.06 -249.75,-60.09 -484.43,-152.08 -705.85,-275.99 -221.57,-123.9 -422.41,-279.72 -600.73,-467.44 -180.12,-187.72 -317.14,-409.29 -411.08,-664.55z"/>
   </g>
  </g>
 </g>
</svg>
