<?xml version="1.0" encoding="UTF-8"?>
<svg id="Camada_2" data-name="Camada 2" xmlns="http://www.w3.org/2000/svg" xmlns:xlink="http://www.w3.org/1999/xlink" viewBox="0 0 2486.1 3829.16">
  <defs>
    <style>
      .cls-1 {
        fill: url(#Gradiente_sem_nome_34-21);
      }

      .cls-2 {
        clip-path: url(#clippath-34);
      }

      .cls-3 {
        clip-path: url(#clippath-38);
      }

      .cls-4 {
        clip-path: url(#clippath-21);
      }

      .cls-5 {
        fill: url(#Gradiente_sem_nome_34-5);
      }

      .cls-6 {
        clip-path: url(#clippath-6);
      }

      .cls-7 {
        clip-path: url(#clippath-7);
      }

      .cls-8 {
        clip-path: url(#clippath-17);
      }

      .cls-9 {
        clip-path: url(#clippath-31);
      }

      .cls-10 {
        clip-path: url(#clippath-15);
      }

      .cls-11 {
        clip-path: url(#clippath-33);
      }

      .cls-12 {
        clip-path: url(#clippath-18);
      }

      .cls-13 {
        clip-path: url(#clippath-4);
      }

      .cls-14 {
        fill: #29235c;
      }

      .cls-15 {
        clip-path: url(#clippath-22);
      }

      .cls-16 {
        clip-path: url(#clippath-23);
      }

      .cls-17 {
        fill: url(#Gradiente_sem_nome_34-23);
      }

      .cls-18 {
        fill: url(#Gradiente_sem_nome_34-4);
      }

      .cls-19 {
        fill: url(#Gradiente_sem_nome_34-20);
      }

      .cls-20 {
        fill: url(#Gradiente_sem_nome_38);
      }

      .cls-21 {
        fill: url(#Gradiente_sem_nome_37-4);
      }

      .cls-22 {
        fill: url(#Gradiente_sem_nome_34-27);
      }

      .cls-23 {
        clip-path: url(#clippath-9);
      }

      .cls-24 {
        clip-path: url(#clippath-10);
      }

      .cls-25 {
        fill: url(#Gradiente_sem_nome_42);
      }

      .cls-26 {
        fill: #fff;
      }

      .cls-27 {
        clip-path: url(#clippath-25);
      }

      .cls-28 {
        clip-path: url(#clippath-27);
      }

      .cls-29 {
        fill: url(#Gradiente_sem_nome_34-25);
      }

      .cls-30 {
        fill: url(#Gradiente_sem_nome_34-17);
      }

      .cls-31 {
        clip-path: url(#clippath-11);
      }

      .cls-32 {
        fill: url(#Gradiente_sem_nome_37);
      }

      .cls-33 {
        fill: url(#Gradiente_sem_nome_34-26);
      }

      .cls-34 {
        clip-path: url(#clippath-36);
      }

      .cls-35 {
        clip-path: url(#clippath-35);
      }

      .cls-36 {
        clip-path: url(#clippath-28);
      }

      .cls-37 {
        fill: url(#Gradiente_sem_nome_38-2);
      }

      .cls-38 {
        fill: url(#Gradiente_sem_nome_34-3);
      }

      .cls-39 {
        clip-path: url(#clippath-1);
      }

      .cls-40 {
        fill: #18152e;
      }

      .cls-41 {
        fill: url(#Gradiente_sem_nome_37-3);
      }

      .cls-42 {
        fill: url(#Gradiente_sem_nome_34);
      }

      .cls-43 {
        fill: url(#Gradiente_sem_nome_34-7);
      }

      .cls-44 {
        clip-path: url(#clippath-40);
      }

      .cls-45 {
        fill: url(#Gradiente_sem_nome_34-13);
      }

      .cls-46 {
        clip-path: url(#clippath-5);
      }

      .cls-47 {
        clip-path: url(#clippath-20);
      }

      .cls-48 {
        fill: url(#Gradiente_sem_nome_35);
      }

      .cls-49 {
        fill: #2d2e83;
      }

      .cls-50 {
        fill: url(#Gradiente_sem_nome_34-10);
      }

      .cls-51 {
        fill: #008d36;
      }

      .cls-52 {
        clip-path: url(#clippath-8);
      }

      .cls-53 {
        clip-path: url(#clippath-41);
      }

      .cls-54 {
        fill: url(#Gradiente_sem_nome_34-16);
      }

      .cls-55 {
        clip-path: url(#clippath-3);
      }

      .cls-56 {
        fill: url(#Gradiente_sem_nome_34-6);
      }

      .cls-57 {
        fill: url(#Gradiente_sem_nome_34-14);
      }

      .cls-58 {
        clip-path: url(#clippath-26);
      }

      .cls-59 {
        fill: #063;
      }

      .cls-60 {
        clip-path: url(#clippath-12);
      }

      .cls-61 {
        fill: url(#Gradiente_sem_nome_34-22);
      }

      .cls-62 {
        fill: url(#Gradiente_sem_nome_34-28);
      }

      .cls-63 {
        clip-path: url(#clippath-14);
      }

      .cls-64 {
        clip-rule: evenodd;
        fill: none;
      }

      .cls-65 {
        fill: url(#Gradiente_sem_nome_40);
      }

      .cls-66 {
        fill: url(#Gradiente_sem_nome_34-24);
      }

      .cls-67 {
        clip-path: url(#clippath-30);
      }

      .cls-68 {
        clip-path: url(#clippath-19);
      }

      .cls-69 {
        fill: url(#Gradiente_sem_nome_34-19);
      }

      .cls-70 {
        fill: url(#Gradiente_sem_nome_34-2);
      }

      .cls-71 {
        fill: url(#Gradiente_sem_nome_37-2);
      }

      .cls-72 {
        clip-path: url(#clippath-32);
      }

      .cls-73 {
        fill: url(#Gradiente_sem_nome_34-12);
      }

      .cls-74 {
        fill: url(#Gradiente_sem_nome_34-11);
      }

      .cls-75 {
        fill: url(#Gradiente_sem_nome_34-31);
      }

      .cls-76 {
        fill: url(#Gradiente_sem_nome_34-29);
      }

      .cls-77 {
        clip-path: url(#clippath-39);
      }

      .cls-78 {
        clip-path: url(#clippath-16);
      }

      .cls-79 {
        clip-path: url(#clippath-2);
      }

      .cls-80 {
        clip-path: url(#clippath-29);
      }

      .cls-81 {
        fill: url(#Gradiente_sem_nome_34-8);
      }

      .cls-82 {
        clip-path: url(#clippath-37);
      }

      .cls-83 {
        clip-path: url(#clippath-13);
      }

      .cls-84 {
        fill: url(#Gradiente_sem_nome_42-2);
      }

      .cls-85 {
        clip-path: url(#clippath-24);
      }

      .cls-86 {
        clip-path: url(#clippath);
      }

      .cls-87 {
        fill: url(#Gradiente_sem_nome_42-3);
      }

      .cls-88 {
        fill: url(#Gradiente_sem_nome_34-30);
      }

      .cls-89 {
        fill: url(#Gradiente_sem_nome_34-9);
      }

      .cls-90 {
        fill: url(#Gradiente_sem_nome_34-18);
      }

      .cls-91 {
        fill: url(#Gradiente_sem_nome_34-15);
      }
    </style>
    <clipPath id="clippath">
      <path class="cls-64" d="M1251.35,0h-.21c-1.09.03-2.17.64-2.73,1.77l-27.94,56.64c-.45.93-1.34,1.57-2.36,1.72l-62.51,9.08c-2.58.38-3.63,3.55-1.75,5.39l45.21,44.1c.77.72,1.08,1.77.93,2.79l-9.45,55.08-.61,3.55-.62,3.62c-.2,1.12.2,2.13.93,2.81l.03.04.49.37.28.15.11.05c.82.37,1.81.38,2.73-.1l55.89-29.39c.93-.49,2.04-.49,2.94,0l55.91,29.39c1.39.72,2.89.31,3.78-.66l.33-.39.13-.23c.33-.59.48-1.28.35-2.04l-8.61-50.1-2.07-12.15.33-2.02.57-.77,45.24-44.1.39-.47c.86-1.23.68-2.83-.23-3.9l-1.45-.92-.47-.1-20.93-3.04-41.57-6.04c-1.03-.15-1.92-.79-2.38-1.72l-27.96-56.64c-.57-1.13-1.62-1.74-2.72-1.77"/>
    </clipPath>
    <linearGradient id="Gradiente_sem_nome_37" data-name="Gradiente sem nome 37" x1="1154.68" y1="93.88" x2="1349" y2="93.88" gradientUnits="userSpaceOnUse">
      <stop offset="0" stop-color="#fec600"/>
      <stop offset=".5" stop-color="#fc0"/>
      <stop offset="1" stop-color="#fbb800"/>
    </linearGradient>
    <clipPath id="clippath-1">
      <path class="cls-64" d="M1062.86,214.51l9.53-.37-11.75.51,2.22-.14ZM1118.58,210.98c-9.27.21-18.59.77-27.87,1.2l-27.91,1.27c-9.31.32-18.58,1.2-27.86,1.78l-27.86,1.94c-9.33.71-18.49,1.97-27.77,2.91-9.26,1.07-18.38,1.96-27.8,3.18l.04-.05-19.79,2.99c-6.63.88-13.11,2.38-19.68,3.55-3.25.66-6.58,1.17-9.79,2.05l-9.76,2.38-9.72,2.48c-3.19.85-6.52,1.45-9.66,2.58l-18.8,6.46-2.34.78-2.34,1.02-4.58,1.99c-3.03,1.38-6.14,2.63-8.97,4.37-2.9,1.69-5.94,3.08-8.61,5.04-2.7,1.92-5.65,3.6-8.04,5.9-1.24,1.11-2.55,2.16-3.69,3.32l-3.34,3.74c-1.95,2.65-3.9,5.46-4.7,8.86v-.12c-.68,2.44-1.07,4.85-1.23,7.24v.04c-.1,1.17-.1,2.34-.05,3.5v1.59l.05,5.38v.03l.04,3.53v1.57l.06,6.87v5.28l.06,6.88v5.46l.04,5.84.05,5.51v4.64l.06,5.55v6.5l.04,5.76v5.14l.06,5.85.04,6.17.05,5.92.05,4.82v6.12l.05,5.84.04,5.29v.92l.04,4.26v.04l.11,6.49.11,5.8.04,6.72.25,17.71h.18v.03-.03h.22l.04-3.1c.21-1.55.51-3.09,1.02-4.62.81-3.5,6.14-18.13,43.31-33.02,13.29-5.36,30.58-10.74,53.23-15.6,13.37-2.94,28.64-5.7,46.04-8.12l1.38-.21c62.07-8.75,322.82-13.15,402.5-13.15,4.34,0,8.7.04,13.06.06.59.03,10.29.61,24.73,1.28,7.47.29,16.15.65,25.5,1.01,9.32.29,19.27.6,29.23.9,4.97.11,9.92.56,14.8.83,4.89.32,9.69.62,14.34.9,9.32.52,18,.98,25.45,1.41,14.83.68,24.74,1.03,24.84,1.03,17.36,1.63,33.93,3.55,49.39,5.73l1.35.21c17.42,2.42,32.67,5.18,46.04,8.12,22.65,4.86,39.97,10.23,53.23,15.6,37.18,14.89,42.53,29.52,43.31,33.02.55,1.62.86,3.24,1.05,4.88.04.95.04,1.92.04,2.84h.18v.03-.03h.23c.05-5.46.1-10.88.19-16.36,0-2.23.04-4.52.1-6.79,0-1.89,0-3.76.06-5.68,0-2.19.05-4.38.05-6.63,0-1.39.04-2.81.04-4.21.06-2.09.06-4.25.1-6.41,0-1.85,0-3.74.04-5.61,0-2.05.06-4.15.06-6.24,0-1.55.05-3.14,0-4.72.05-2.01.1-4.06.05-6.12.05-2.02.1-3.98.05-5.98.05-1.96.05-3.97.05-5.94v-.04c.04-1.07.04-2.16.04-3.22v-1.77l.06-5.77.06-6.5v-5.65l.05-4.53.04-5.47v-5.93l.06-5.39v-1.02l.04-5.9.06-5.18v-.06l.04-6.92v-5.09l.06-5.46v-2.9l.04-1.99c-.04-2.91-.5-6.04-1.28-8.84v.14c-.8-3.46-2.75-6.21-4.69-8.93l-3.34-3.74c-1.15-1.16-2.5-2.19-3.74-3.31-2.4-2.34-5.29-3.98-7.99-5.94-2.68-1.96-5.78-3.37-8.66-5.06-2.89-1.77-5.93-2.99-8.97-4.34-2.99-1.26-5.98-2.89-9.23-3.88l-18.94-6.59c-3.19-1.12-6.43-1.69-9.63-2.57l-9.67-2.47-9.66-2.44c-3.2-.89-6.63-1.5-9.83-2.14-6.57-1.23-13.09-2.76-19.68-3.7l-19.79-3.12-27.77-3.23c-9.28-.99-18.5-2.29-27.81-2.96l-27.86-2.05c-9.27-.55-18.54-1.51-27.86-1.81l-27.97-1.05c-9.27-.31-18.6-.78-27.92-.92l-55.83-.45-237.03.99Z"/>
    </clipPath>
    <linearGradient id="Gradiente_sem_nome_38" data-name="Gradiente sem nome 38" x1="806.4" y1="329.44" x2="1723.73" y2="329.44" gradientUnits="userSpaceOnUse">
      <stop offset="0" stop-color="#005386"/>
      <stop offset=".11" stop-color="#2d2b66"/>
      <stop offset=".23" stop-color="#2d2e83"/>
      <stop offset=".28" stop-color="#2c2f84"/>
      <stop offset=".48" stop-color="#0053a2"/>
      <stop offset=".65" stop-color="#004b9c"/>
      <stop offset=".82" stop-color="#2d2e83"/>
      <stop offset="1" stop-color="#2f2c45"/>
    </linearGradient>
    <clipPath id="clippath-2">
      <path class="cls-64" d="M1905.71,1879.53h-.03c-.21.03-.4.43-.55,1.41,8.66,52.94,18.44,108.89,30.56,156.43-12.38-29.84-23.49-61.05-37.92-88.91,11.08,56.82,26.16,110.41,46.99,158.82,2.87,6.83,8.38,14.98,9.48,20.86,1.06,7.32-2.97,13.38-1.03,18.83,4.33-14.99,10.46-29.64,15.14-45.13,4.91-15.28,11.53-33.55,11.18-50.01-.24-11.32-5.76-24.98-9.27-36.68-10.76-35.47-24.83-71.58-40.76-98.89,7.43,34.25,17.76,69.48,23.98,102.51-15.34-42.67-32.06-88.38-45.63-132.39-.5-1.71-1.43-6.84-2.16-6.84"/>
    </clipPath>
    <linearGradient id="Gradiente_sem_nome_34" data-name="Gradiente sem nome 34" x1="1897.77" y1="2013.25" x2="1978.84" y2="2013.25" gradientUnits="userSpaceOnUse">
      <stop offset="0" stop-color="#004e31"/>
      <stop offset=".53" stop-color="#006533"/>
      <stop offset="1" stop-color="#006533"/>
    </linearGradient>
    <clipPath id="clippath-3">
      <path class="cls-64" d="M1946.83,2151.93c-15.43-60.88-39.12-119.36-54.85-182.66-14.87-59.64-22.62-147.14,8.38-207.07,4.56,84.31,39.89,145.18,70.66,211.42,9.84,20.97,20.44,47.27,19.19,73.48-.79,20.69-5.38,39.09-10.45,56.81,73.84-31.09,145.24-72.2,195.25-132.6.22-.65.5-.72.54-1.51-52.83,50.56-114.19,91.72-185.46,121.91.37-4.23.59-8.22-.11-11.49,41.67-21.39,81.3-46.73,118.89-73.28,37.11-26.53,74.35-54.97,98.75-95.74-57.44,64.11-133.56,118.63-214.69,156.45.28-8.09,9.86-11.13,15.18-14.27,41.83-24.81,85.41-49.59,120.84-82.41-42.84,23.98-84.95,48.54-124.32,76.18,41.13-36.78,89.32-72.33,137.82-103.3-58.97,22.18-104.84,63.25-149.13,99.68-.53-7.99,7.22-14.12,11.76-18.92,35.99-36.51,84.87-58.82,127.98-88.11,49.59-33.75,87.72-76.48,114.64-135.61-11.33,101.26-43.32,172.91-103.49,222.21-58.43,47.77-195.45,136.92-195.45,136.92,0,0-.67-4.51-1.94-8.11M1869.31,1819.33c-7.75,42.42-4.93,86,2.25,124.63,13.7,74.04,42.81,139.96,60.01,205.95,2.35,16.32,4.48,31.45,6.63,36.44,7.11-2.79,36.19-19.62,48.1-29.75,3.51-2.96,6.23-5.18,6.68-5.29l.86-.28c60.54-48.36,140.93-79.27,191.01-141.48,25.52-31.6,44.64-71.58,57.28-119.05,12.04-46.16,24.85-99.3,15.14-152.41-21.46,74.51-58.88,125.03-111.8,164.41-25.92,19.22-55.76,33.86-82.93,52-27.06,18.2-51.64,37.2-73.32,60.9-10.68-102.59-80.68-155.82-75.03-270.52l-6.81-25.33c-16.96,26.84-31.2,61.92-38.06,99.78Z"/>
    </clipPath>
    <linearGradient id="Gradiente_sem_nome_34-2" data-name="Gradiente sem nome 34" x1="1870.62" y1="1952.95" x2="2248.64" y2="1952.95" xlink:href="#Gradiente_sem_nome_34"/>
    <clipPath id="clippath-4">
      <path class="cls-64" d="M1843.82,2059.09c3.47,60.41,7.84,124.29,15.79,179.04-10.36-34.91-19.12-71.24-32.01-104.17,5.71,65.02,16.28,126.91,33.9,183.64,2.42,8,7.64,17.78,8.18,24.53.33,8.33-4.93,14.64-3.39,20.95,6.62-16.28,15.24-31.97,22.36-48.77,7.28-16.58,16.87-36.28,18.43-54.78,1.06-12.72-3.53-28.7-6.06-42.21-7.87-41.07-19.38-83.24-34.02-115.75,4.28,39.3,11.71,80.03,14.77,117.8-12.15-49.63-25.51-102.89-35.53-153.86-.35-1.98-.76-7.9-1.62-7.9-.24,0-.5.43-.8,1.5"/>
    </clipPath>
    <linearGradient id="Gradiente_sem_nome_34-3" data-name="Gradiente sem nome 34" x1="1827.61" y1="2210.34" x2="1905.53" y2="2210.34" xlink:href="#Gradiente_sem_nome_34"/>
    <clipPath id="clippath-5">
      <path class="cls-64" d="M1858.56,2367.93c-10.11-70.11-29.77-138.48-39.94-211.34-9.58-68.67-7.93-167.7,33.92-231.24-4.87,95.09,27.57,167.53,54.23,245.49,8.56,24.68,17.35,55.41,12.81,84.66-3.33,23.11-10.64,43.21-18.44,62.47,86.51-26.13,171.45-63.78,234.66-125.6.32-.72.64-.76.79-1.64-65.26,50.45-138.9,89.36-222.39,114.79.88-4.71,1.6-9.15,1.21-12.89,49.27-19.07,96.72-42.8,142-68.13,44.76-25.38,89.9-52.87,122.09-95.71-72.01,65.1-163.83,117.27-259.28,150.09,1.28-9.03,12.37-11.32,18.71-14.23,49.85-22.88,101.65-45.51,145.27-78.11-50.89,21.79-101.02,44.38-148.41,70.7,50.46-36.38,108.72-70.53,166.76-99.53-68.76,17.88-125.04,58.52-179.02,94.16.33-9.02,9.74-15,15.42-19.86,44.66-36.67,102.11-55.92,153.93-83.66,59.62-31.99,107.42-75.38,144.61-138.52-24.68,112.21-69.02,188.78-142.34,236.96-71.16,46.68-235.35,130.43-235.35,130.43,0,0-.23-5.15-1.24-9.31M1810.94,1985.76c-13.68,46.67-15.7,95.89-12.22,140.05,6.63,84.64,31.47,162.01,42.94,238.06.74,18.54,1.3,35.79,3.12,41.62,8.31-2.28,42.9-17.73,57.47-27.67,4.27-2.89,7.61-5.06,8.1-5.15l1.03-.2c73.59-47.08,167.41-72.22,230.93-136.07,32.34-32.42,58.52-75.01,78.29-126.75,18.98-50.33,39.63-108.42,35-169.13-32.85,81.05-80.81,133.27-144.81,171.14-31.32,18.5-66.52,31.4-99.14,48.54-32.48,17.19-62.33,35.59-89.44,59.62.17-116.32-72.03-184.29-52.13-312.26l-4.64-29.21c-22.22,28.11-42.33,65.76-54.5,107.4Z"/>
    </clipPath>
    <linearGradient id="Gradiente_sem_nome_34-4" data-name="Gradiente sem nome 34" x1="1801.15" y1="2141.93" x2="2248.42" y2="2141.93" xlink:href="#Gradiente_sem_nome_34"/>
    <clipPath id="clippath-6">
      <path class="cls-64" d="M1875.38,766.06c54.82,49.51,103.15,109.17,123,191.48-27.91-64.66-63.13-122.07-107.97-169.77,38.93,62.36,78.26,124.43,118.2,186-15.5-97.67-71.05-158.89-133.23-207.71"/>
    </clipPath>
    <linearGradient id="Gradiente_sem_nome_34-5" data-name="Gradiente sem nome 34" x1="1875.38" y1="869.92" x2="2008.61" y2="869.92" xlink:href="#Gradiente_sem_nome_34"/>
    <clipPath id="clippath-7">
      <path class="cls-64" d="M1884.19,947.33c38.99,55.93,96.7,99.38,154.2,139.18,1.74,2.8-.38,9.47,1.37,12.16-19.46-9.19-36.41-26.84-53.64-40.72,14.05,21.71,31.06,40.51,47.54,59.78-33.49-20.52-61.13-52.9-90.31-80.14,24.77,44.78,57.67,81.36,90.31,118.17-60.63-56.01-120.43-118.52-149.47-208.42M2047.26,887.69c1.36-1.24,3.51,2.41,5.47,4.61,28.18,32.75,59.32,73.04,61.01,132.43,1.8,66.92-18.41,121.28-29.25,177.15-3.32-.38-3.32-4.34-6.8-4.73,6.73-52.62,15.03-118.59,4.26-172.42-3.52,54-3.89,110.59-5.53,166.25-10.97-52.87-18.95-119.05-12.16-181.25-11.53,53.02-7.1,122.91,6.8,169.83-52.1-71.9,7.22-204.27-23.8-291.87ZM2034.98,886.85c4.78,17.97,8.38,35.79,9.48,55.07,2.59,39.42-5.3,79.3-6.07,121.43-65.74-45.32-129.79-92.32-166.38-166.95-.23,16.4-2.22,36.04.78,52.25,2.59,15.21,9.84,30.87,16.34,45.55,40.21,93.2,112.25,157.34,181.92,219.27,5.36,4.79,10.02,11.79,17.6,13.59,4.44-7.59,5.68-16.7,7.41-25.18,13-60.77,36.45-127.69,25.73-200.94-10.85-76.35-58.06-120.95-99.67-165.68l-1.26-.61c3.9,16.52,9.42,34.03,14.11,52.19Z"/>
    </clipPath>
    <linearGradient id="Gradiente_sem_nome_34-6" data-name="Gradiente sem nome 34" x1="1873.76" y1="1030.86" x2="2109.37" y2="1030.86" xlink:href="#Gradiente_sem_nome_34"/>
    <clipPath id="clippath-8">
      <path class="cls-64" d="M1849.98,751.36h-.03c-.12.02-.25.15-.31.48,4.95,25.19,14.68,50.09,25.75,72.58,32.59,64.79,79.45,117.71,133.83,155.5-50.5-78.63-98.41-159.64-158.87-228.08,0-.26-.19-.48-.37-.48"/>
    </clipPath>
    <linearGradient id="Gradiente_sem_nome_34-7" data-name="Gradiente sem nome 34" x1="1849.63" y1="865.64" x2="2009.22" y2="865.64" xlink:href="#Gradiente_sem_nome_34"/>
    <clipPath id="clippath-9">
      <path class="cls-64" d="M2085.88,958.86c26.55,72.83,3.22,167.11-3.94,238.97,15.54-62.75,39.71-165.08,10.09-229.43-1.43-3.06-4.5-9.74-5.83-9.74-.12,0-.23.07-.33.21"/>
    </clipPath>
    <linearGradient id="Gradiente_sem_nome_34-8" data-name="Gradiente sem nome 34" x1="2081.95" y1="1078.24" x2="2090.84" y2="1078.24" xlink:href="#Gradiente_sem_nome_34"/>
    <clipPath id="clippath-10">
      <path class="cls-64" d="M2013.29,998.2c-37.53-35.18-78.63-70.29-110.68-112.01-34.96-45.22-57.86-100-72.04-165.65v-1.94l.67.57c46.93,31.7,90.88,67.73,125.6,111.37,34.6,43.23,64.35,95.39,64.03,172.51-.3.07-.59.1-.88.1-2.96,0-5.02-3.41-6.7-4.94M1814.32,693.35c12.89,81.83,35.46,147.98,76.09,201.65,34.83,46.21,78.26,84.51,119.51,122.88,5.62,5.27,10.83,14.66,18.95,14.92,6.1-6.74.88-16.92,0-23.69-2.01-14.81,1.68-30.01.82-44.77-2.09-30.4-13.78-60.07-25.26-84.88-28.78-62.67-75.3-108.37-126.22-148.72-10.34-8.16-21.01-18.22-31.32-23.73-10.73-5.86-22.77-8.28-31.98-14.92l-.6-.72v1.99Z"/>
    </clipPath>
    <linearGradient id="Gradiente_sem_nome_34-9" data-name="Gradiente sem nome 34" x1="1814.32" y1="862.08" x2="2025.44" y2="862.08" xlink:href="#Gradiente_sem_nome_34"/>
    <clipPath id="clippath-11">
      <path class="cls-64" d="M2080.53,1277.97c3.32-10.44,9.94-20.95,14.91-31.27,4.99-10.49,11.31-19.96,16.26-29.81,28.85-57.5,49.61-125.59,36.08-210.54,29.22,49.32,48.18,128.04,29.79,202.33-16.27,65.68-51.33,116.64-79.34,168.43-1.73-2.02.19-7.6-2.16-8.84,35.85-56.85,76.63-125.04,80.83-213.86,1.05-23.2-.72-44.26-4.19-64.52,6.08,109.06-29.97,187.58-71.12,253.92,3.56-26.86,12.36-52.15,21.01-76.63,8.75-25.31,17.54-50.28,27.11-74.76v-.76c-22.48,41.78-41.32,93.22-54.27,146.67-3.22-50.46,13.27-86.48,28.48-120.83-24.01,29.22-46.04,92.19-28.48,147.32-4.01-2.8-7.12-7.91-10.96-12.91-52.1-69.16-123.22-122.52-144.39-223.33,1.74-.47,4.31,3.45,6.58,6.11,35.03,40.67,84.99,71.24,117.59,114.76-8.38-3.73-17-12.92-25.87-18.37,8.87,12.97,17.49,25.96,26.55,38.63-21.59-12.22-39.44-34.31-58.46-51.5,13.12,24.71,30.34,45.62,47.6,66.51-28.74-20.49-51.86-52.28-76.25-79.4,30.21,53.61,70.1,97.53,108.83,142.6-6.61-20.12-13.42-46.99-6.14-69.94M2140.87,969.72c-.11.9-.9,1-.69,2.04.55,60.03,3.45,116.65-10.21,160.88-13.46,43.98-36.71,81.23-47.5,125.69-1.62-15.17-9.84-22.67-18.21-33.33-37.4-46.93-90.84-75.14-124.17-123.58-5.74-8.23-9.69-18.35-17.1-24.48,4.72,80.28,27.58,137.79,65.12,184.71,18.53,23.23,38.43,44.98,57.57,67.2,19.48,22.44,40.73,43.33,57.78,67.92,31.47-60.14,74.49-117.58,88.46-196.94,11.67-68.72-3.87-136.11-23.81-183.28-7.22-16.78-15.44-32.82-25.81-46.21-.14-.4-.53-.64-1.12-.64-.1,0-.21.01-.31.02Z"/>
    </clipPath>
    <linearGradient id="Gradiente_sem_nome_34-10" data-name="Gradiente sem nome 34" x1="1922.99" y1="1183.23" x2="2181.26" y2="1183.23" xlink:href="#Gradiente_sem_nome_34"/>
    <clipPath id="clippath-12">
      <path class="cls-64" d="M2223.37,1289.81h-.04c-.18.02-.37.34-.37,1.08-25.06,88.86-63.33,168.16-112.51,230.78,29.91-50.39,55.97-108.31,76.68-165.61-27.51,54.67-54.9,109.36-82.86,163.55,14.16-63.38,39.71-119.16,66.57-167.71-40.19,55.78-65.92,125.97-82.83,205.04,62.35-68.78,119.17-149.1,135.65-266.04.15-.63-.06-1.05-.28-1.08"/>
    </clipPath>
    <linearGradient id="Gradiente_sem_nome_34-11" data-name="Gradiente sem nome 34" x1="2088.01" y1="1423.37" x2="2223.8" y2="1423.37" xlink:href="#Gradiente_sem_nome_34"/>
    <clipPath id="clippath-13">
      <path class="cls-64" d="M1996.15,1530.81h-.01c-.44,0,1.83,4.82,2.25,5.71,13.7,38.95,28.71,75.29,48.12,108-21.79-24.58-42.54-50.29-56.18-82.89,10.53,39.82,28.61,72.41,48.85,102.58-18.3-21.8-34.59-45.66-50.33-69.87,9.59,25.54,22.71,49.58,35.94,72.6,13.04,22.72,25.51,46.76,46.29,62.46.85-9.52,2.26-18.75,2.53-27.8,3.03-67.56-38.61-105.2-63.01-144.66-5.16-8.48-8.89-18.25-13.59-25.17-.48-.67-.74-.94-.85-.96"/>
    </clipPath>
    <linearGradient id="Gradiente_sem_nome_34-12" data-name="Gradiente sem nome 34" x1="1988.83" y1="1630.1" x2="2068.27" y2="1630.1" xlink:href="#Gradiente_sem_nome_34"/>
    <clipPath id="clippath-14">
      <path class="cls-64" d="M1976.64,1371.66c22.32,46.09,50.29,86.71,78.03,126.89,5.66,8.1,13.11,16.34,16.92,24.43,4.83,9.9,4.67,22.24,8.94,31.93,7.79-25.01,12.38-53.36,17.02-81.48-2.48-2.45-6.38-3.73-8.89-6.11-16.63-29.62-34.2-61.77-57-82.82,11.79,24.08,22.91,49.1,34.5,73.36-24.08-31.05-46.02-64.34-65.8-99.78,19.66,43.44,40,86.3,63.91,125.59-39.49-53.85-82.56-104-106-173.8-.33,23.57,9.7,43.81,18.38,61.81"/>
    </clipPath>
    <linearGradient id="Gradiente_sem_nome_34-13" data-name="Gradiente sem nome 34" x1="1958.83" y1="1432.37" x2="2097.56" y2="1432.37" xlink:href="#Gradiente_sem_nome_34"/>
    <clipPath id="clippath-15">
      <path class="cls-64" d="M1958.71,1698.92h-.02c-.18.02-.33.4-.43,1.3,10.42,47.2,21.99,97.03,35.26,139.18-12.62-26.21-24.15-53.74-38.53-78.08,12.8,50.54,29,98,50.14,140.5,2.92,5.99,8.31,13.06,9.58,18.3,1.32,6.53-2.01,12.18,0,16.96,3.15-13.69,7.95-27.17,11.39-41.31,3.65-14.01,8.69-30.77,7.56-45.54-.78-10.18-6.43-22.2-10.14-32.52-11.44-31.39-25.88-63.19-41.58-86.94,8.38,30.44,19.44,61.61,26.67,91.01-15.92-37.59-33.24-77.89-47.62-116.8-.54-1.52-1.6-6.05-2.28-6.05"/>
    </clipPath>
    <linearGradient id="Gradiente_sem_nome_34-14" data-name="Gradiente sem nome 34" x1="1954.99" y1="1818" x2="2031.82" y2="1818" xlink:href="#Gradiente_sem_nome_34"/>
    <clipPath id="clippath-16">
      <path class="cls-64" d="M2009.22,1941.88c-16.88-53.98-41.1-105.42-58.39-161.56-16.32-52.92-27.64-131.22-2.73-186.67,8.27,75.61,43.08,128.6,74.03,186.67,9.9,18.37,20.76,41.48,20.91,65.13.33,18.64-2.89,35.44-6.57,51.61,64.89-31.62,127.06-72.14,169-128.94l.43-1.4c-45.01,48.1-98.17,88.17-160.75,118.87.11-3.84.11-7.43-.68-10.32,36.45-21.32,70.82-46.09,103.32-71.81,32.07-25.71,64.13-53.14,84.07-91.03-48.49,60.5-114.26,113.32-185.35,151.38-.14-7.29,8.33-10.51,12.95-13.59,36.39-24.39,74.37-48.86,104.6-80.11-37.36,23.68-74,47.86-108.02,74.67,35.13-35.13,76.74-69.48,118.8-99.74-51.91,22.86-91.13,62.07-129.15,97.04-.89-7.13,5.77-13.05,9.61-17.6,30.56-34.63,73.41-57.14,110.74-85.6,42.92-32.83,75.11-73.14,96.39-127.64-5.18,91.6-28.8,159.45-82.05,204.97-48.48,41.42-161.48,123.28-168.52,136.08-.31-3.62-1.79-10.41-2.64-10.43M2260.51,1389.98c10.59,96.81-14.7,172.65-57.14,224.62-43.18,53.04-94.67,98.58-139.11,146.03-19.47-51.65-49.1-96.68-73.37-146.03-22.93-46.51-41.96-112.1-27.21-182.61,21.64,46.97,34.11,92.41,60.4,134.42,11.68,18.65,27.44,36.07,40.87,56.41,6.26,9.51,11.09,20.43,16.22,32.6,6.47,14.95,14.16,24.84,14.27,44.08,30.8-21.81,60.36-50.72,85.46-82.78,25.48-32.34,48.16-73.25,60.44-116.17-25.35,70.81-72.86,122.27-122.21,170.46-6.7,6.59-13.11,14.53-22.32,17.64,1.42-12.58,11.51-19,20.27-27.82,43.12-42.96,81.62-89.6,105.3-151.4-33.3,61.28-78.55,110.51-122.93,160.94,19.86-30.74,43.08-63.71,66.6-93.03-25.67,23.65-49.74,58.5-70.6,86.88,8.82-27.89,26.67-49.29,42.82-70.55,16.09-21.49,33.46-42.04,51.59-61.88-39.32,32.09-68.35,77.92-98.52,116.82,39.96-102.53,142.32-142.84,169.18-258.61ZM2104.92,1453.85c13.32-39.23,36.75-71.53,59.14-103.96,25.16-36.72,52.94-75.44,58.9-129.68l.69.69c22.79,78.55-5.69,157.28-33.23,209.01-25.73,48.95-59.47,91.47-95.67,130.45-5.01,5.24-8.88,11.97-15.66,14.91-20.68-58.88-50.96-103.73-82.88-150.06-31.79-46.21-59.28-96.79-54.22-178.51,30.43,70.27,93.92,112.77,134.43,176.55,5.53,8.68,13.63,20.4,15.62,28.43,1.56,6.34-1.71,14.75,5.5,18.38,5.53-3.74,5.63-11.04,7.37-16.21ZM2204.07,1254.22c-25.13,70-78.14,113.86-105.84,180.52-31.66-66.36-89.62-107.23-128.37-165.66-13.31-20.01-22.28-42.33-30.6-67.87-11.67,50.94-7.79,107.16,4.79,151.45,4.26,14.99,10.8,27.52,16.28,41.37.95,2.24-2.98,14.38-4.13,19.02-8.62,41.94-13.59,94.96-2.76,139.75-14.49,25.26-26.03,58.45-30.43,93.78-4.85,38.52-.17,77.62,8.19,111.98,16.01,65.92,45.45,123.76,64.18,182.26,5.38,10.54,10.65,39.37,13.05,39.3,8.1-14.3,38.99-37.13,38.08-36.98,52.43-48.99,126.44-80.84,169.72-141.13,21.39-29.7,36.6-66.61,45.61-109.95,8.54-42.09,17.44-90.53,6.06-137.81-15.58,68.09-46.75,115.39-92.39,153.41-22.35,18.59-48.47,33.23-72.03,50.9-23.41,17.7-44.59,36-62.92,58.4-14.72-91.97-80.58-136.33-80.92-240.29,26.5,76.99,74.25,132.66,100.56,209.69,7.6-5.09,14.34-12.09,20.98-18.95,20.78-21.58,40.63-42.69,61.76-63.81,27.52-27.66,57.96-55.98,80.03-87.58,22.25-31.66,38.2-75.09,45.43-122.28,7.6-48.49,7.4-107.15-11.41-146.58-5.95,6.48-4.16,15.84-4.84,23.09-2.2,26.17-9.93,46.52-20.29,65.13-40.41,73.52-112.71,115.77-148,194.23-18.85-35.43-46.34-65.57-64.92-102.59-19.08-37.25-32.45-77.5-50.46-117.39,40.55,59.73,85.8,114.65,107.32,193.42,13.9-10.22,25.26-24.42,37.18-37.97,36.23-40.71,69.83-86.34,93.83-137.81,15.35-33,30.63-73.64,34.54-119.51,4.17-47.72-2.9-95.59-20.37-131.67-5.68,28.49-8.68,54.88-16.9,78.1Z"/>
    </clipPath>
    <linearGradient id="Gradiente_sem_nome_34-15" data-name="Gradiente sem nome 34" x1="1926.54" y1="1578.16" x2="2261.64" y2="1578.16" xlink:href="#Gradiente_sem_nome_34"/>
    <clipPath id="clippath-17">
      <path class="cls-64" d="M578.27,1879.53h-.02c-.74,0-1.65,5.12-2.15,6.84-13.59,44.01-30.3,89.72-45.64,132.39,6.2-33.03,16.55-68.27,23.96-102.51-15.93,27.31-29.98,63.42-40.74,98.89-3.5,11.7-9.03,25.36-9.27,36.68-.37,16.45,6.28,34.72,11.16,50.01,4.69,15.49,10.84,30.14,15.15,45.13,1.93-5.44-2.08-11.51-1.03-18.83,1.11-5.88,6.61-14.03,9.49-20.86,20.82-48.4,35.91-101.99,46.99-158.82-14.45,27.86-25.54,59.08-37.94,88.91,12.12-47.54,21.91-103.49,30.57-156.43-.15-.97-.35-1.38-.55-1.41"/>
    </clipPath>
    <linearGradient id="Gradiente_sem_nome_34-16" data-name="Gradiente sem nome 34" x1="505.06" x2="586.13" xlink:href="#Gradiente_sem_nome_34"/>
    <clipPath id="clippath-18">
      <path class="cls-64" d="M493.75,2047.1c-1.27-26.2,9.34-52.51,19.18-73.48,30.76-66.24,66.1-127.11,70.65-211.42,31,59.92,23.24,147.42,8.39,207.07-15.73,63.3-39.41,121.78-54.85,182.66-1.27,3.6-1.96,8.11-1.96,8.11,0,0-137-89.14-195.44-136.92-60.17-49.3-92.16-120.96-103.48-222.21,26.92,59.13,65.05,101.86,114.63,135.61,43.13,29.29,92,51.6,127.97,88.11,4.57,4.8,12.31,10.93,11.78,18.92-44.31-36.44-90.16-77.5-149.14-99.68,48.48,30.97,96.7,66.52,137.8,103.3-39.35-27.63-81.46-52.19-124.3-76.18,35.43,32.82,78.99,57.6,120.85,82.41,5.31,3.14,14.88,6.19,15.17,14.27-81.13-37.82-157.27-92.35-214.71-156.45,24.41,40.77,61.64,69.21,98.75,95.74,37.6,26.54,77.23,51.89,118.91,73.28-.72,3.27-.49,7.26-.13,11.49-71.26-30.19-132.61-71.36-185.44-121.91.04.78.31.86.52,1.51,50.03,60.4,121.42,101.51,195.27,132.6-5.08-17.72-9.66-36.12-10.44-56.81M569.77,1744.87c5.62,114.7-64.35,167.93-75.02,270.52-21.69-23.7-46.29-42.7-73.33-60.9-27.18-18.14-57.02-32.78-82.93-52-52.91-39.37-90.36-89.9-111.8-164.41-9.71,53.11,3.11,106.25,15.14,152.41,12.64,47.47,31.75,87.45,57.28,119.05,50.07,62.21,130.47,93.12,191.01,141.48l.88.28c.41.11,3.14,2.33,6.66,5.29,11.93,10.13,40.98,26.96,48.09,29.75,2.16-4.99,4.28-20.11,6.62-36.44,17.22-65.99,46.33-131.91,60.02-205.95,7.2-38.64,9.98-82.21,2.26-124.63-6.88-37.86-21.1-72.94-38.08-99.78l-6.8,25.33Z"/>
    </clipPath>
    <linearGradient id="Gradiente_sem_nome_34-17" data-name="Gradiente sem nome 34" x1="235.42" y1="1952.95" x2="613.33" y2="1952.95" xlink:href="#Gradiente_sem_nome_34"/>
    <clipPath id="clippath-19">
      <path class="cls-64" d="M637.69,2065.5c-10.02,50.97-23.37,104.24-35.5,153.86,3.04-37.77,10.48-78.5,14.75-117.8-14.63,32.5-26.14,74.68-34,115.75-2.55,13.51-7.13,29.49-6.06,42.21,1.53,18.51,11.13,38.2,18.4,54.78,7.12,16.8,15.75,32.49,22.37,48.77,1.53-6.31-3.71-12.63-3.39-20.95.53-6.75,5.77-16.54,8.16-24.53,17.66-56.73,28.22-118.62,33.92-183.64-12.89,32.94-21.65,69.26-32.01,104.17,7.97-54.75,12.32-118.63,15.81-179.04-.3-1.06-.57-1.5-.81-1.5-.85,0-1.28,5.92-1.63,7.9"/>
    </clipPath>
    <linearGradient id="Gradiente_sem_nome_34-18" data-name="Gradiente sem nome 34" x1="578.54" y1="2210.34" x2="656.36" y2="2210.34" xlink:href="#Gradiente_sem_nome_34"/>
    <clipPath id="clippath-20">
      <path class="cls-64" d="M564.35,2255.5c-4.52-29.25,4.26-59.99,12.83-84.66,26.66-77.95,59.1-150.4,54.21-245.49,41.87,63.54,43.52,162.58,33.92,231.24-10.17,72.85-29.84,141.23-39.93,211.34-1,4.16-1.24,9.31-1.24,9.31,0,0-164.19-83.75-235.36-130.43-73.3-48.17-117.66-124.74-142.34-236.96,37.19,63.14,84.99,106.53,144.61,138.52,51.81,27.73,109.27,46.99,153.95,83.66,5.67,4.87,15.07,10.85,15.42,19.86-53.99-35.63-110.29-76.27-179.03-94.16,58.03,29,116.3,63.15,166.75,99.53-47.39-26.33-97.52-48.91-148.4-70.7,43.61,32.6,95.4,55.23,145.27,78.11,6.33,2.91,17.42,5.2,18.72,14.23-95.46-32.83-187.3-84.99-259.31-150.09,32.22,42.84,77.35,70.33,122.11,95.71,45.27,25.33,92.72,49.05,142.01,68.13-.41,3.74.31,8.17,1.19,12.89-83.49-25.44-157.14-64.34-222.37-114.79.14.88.47.92.78,1.64,63.21,61.82,148.13,99.47,234.65,125.6-7.79-19.26-15.11-39.36-18.44-62.47M613.88,1907.57c19.9,127.96-52.32,195.94-52.15,312.26-27.11-24.03-56.95-42.43-89.44-59.62-32.6-17.15-67.81-30.04-99.13-48.54-64-37.87-111.96-90.09-144.83-171.14-4.62,60.71,16.03,118.8,35.02,169.13,19.77,51.74,45.93,94.33,78.3,126.75,63.5,63.85,157.33,88.99,230.91,136.07l1.03.2c.5.09,3.84,2.25,8.1,5.15,14.58,9.94,49.16,25.39,57.47,27.67,1.83-5.83,2.41-23.07,3.12-41.62,11.49-76.05,36.31-153.42,42.94-238.06,3.49-44.15,1.46-93.38-12.22-140.05-12.17-41.64-32.26-79.29-54.5-107.4l-4.62,29.21Z"/>
    </clipPath>
    <linearGradient id="Gradiente_sem_nome_34-19" data-name="Gradiente sem nome 34" x1="235.53" y1="2141.93" x2="682.8" y2="2141.93" xlink:href="#Gradiente_sem_nome_34"/>
    <clipPath id="clippath-21">
      <path class="cls-64" d="M475.33,973.77c39.95-61.57,79.28-123.64,118.22-186-44.85,47.71-80.07,105.12-107.98,169.77,19.84-82.31,68.16-141.97,123.01-191.48-62.19,48.81-117.73,110.03-133.25,207.71"/>
    </clipPath>
    <linearGradient id="Gradiente_sem_nome_34-20" data-name="Gradiente sem nome 34" x1="475.33" y1="869.92" x2="608.58" y2="869.92" xlink:href="#Gradiente_sem_nome_34"/>
    <clipPath id="clippath-22">
      <path class="cls-64" d="M445.56,1086.5c57.5-39.8,115.2-83.24,154.17-139.18-29.01,89.9-88.81,152.41-149.45,208.42,32.65-36.81,65.56-73.38,90.33-118.17-29.2,27.25-56.83,59.62-90.33,80.14,16.5-19.27,33.5-38.07,47.56-59.78-17.24,13.87-34.18,31.53-53.64,40.72,1.74-2.69-.38-9.36,1.36-12.16M370.2,1024.73c1.68-59.39,32.84-99.67,61.02-132.43,1.97-2.21,4.1-5.85,5.47-4.61-31.03,87.6,28.29,219.97-23.81,291.87,13.9-46.92,18.34-116.81,6.81-169.83,6.79,62.2-1.2,128.38-12.17,181.25-1.64-55.66-2.01-112.25-5.51-166.25-10.8,53.83-2.49,119.8,4.24,172.42-3.46.39-3.46,4.36-6.8,4.73-10.83-55.88-31.04-110.23-29.25-177.15ZM461.83,835.26c-41.61,44.73-88.84,89.32-99.68,165.68-10.71,73.25,12.73,140.18,25.74,200.94,1.72,8.48,2.97,17.59,7.41,25.18,7.6-1.8,12.23-8.8,17.59-13.59,69.68-61.93,141.73-126.07,181.95-219.27,6.48-14.69,13.74-30.35,16.33-45.55,2.99-16.21.99-35.85.77-52.25-36.6,74.63-100.65,121.62-166.38,166.95-.78-42.13-8.65-82.01-6.08-121.43,1.11-19.28,4.72-37.1,9.48-55.07,4.69-18.16,10.23-35.68,14.12-52.19l-1.26.61Z"/>
    </clipPath>
    <linearGradient id="Gradiente_sem_nome_34-21" data-name="Gradiente sem nome 34" x1="374.58" y1="1030.86" x2="610.19" y2="1030.86" xlink:href="#Gradiente_sem_nome_34"/>
    <clipPath id="clippath-23">
      <path class="cls-64" d="M634,751.36h-.03c-.18,0-.37.21-.37.48-60.45,68.44-108.37,149.45-158.87,228.08,54.39-37.79,101.25-90.71,133.86-155.5,11.07-22.49,20.79-47.39,25.73-72.58-.04-.33-.2-.45-.31-.48"/>
    </clipPath>
    <linearGradient id="Gradiente_sem_nome_34-22" data-name="Gradiente sem nome 34" x1="474.72" y1="865.64" x2="634.31" y2="865.64" xlink:href="#Gradiente_sem_nome_34"/>
    <clipPath id="clippath-24">
      <path class="cls-64" d="M391.89,968.39c-29.61,64.35-5.44,166.68,10.12,229.43-7.17-71.87-30.48-166.14-3.95-238.97-.09-.14-.2-.21-.33-.21-1.32,0-4.4,6.69-5.84,9.74"/>
    </clipPath>
    <linearGradient id="Gradiente_sem_nome_34-23" data-name="Gradiente sem nome 34" x1="393.11" y1="1078.24" x2="402" y2="1078.24" xlink:href="#Gradiente_sem_nome_34"/>
    <clipPath id="clippath-25">
      <path class="cls-64" d="M463.09,1003.04c-.33-77.12,29.41-129.28,64.02-172.51,34.72-43.63,78.68-79.67,125.6-111.37l.67-.57v1.94c-14.15,65.65-37.07,120.44-72.03,165.65-32.06,41.71-73.14,76.83-110.68,112.01-1.69,1.53-3.77,4.94-6.71,4.94-.28,0-.57-.03-.88-.1M669.61,693.42v-2.05l-.59.72c-9.2,6.65-21.25,9.06-31.98,14.92-10.3,5.52-20.98,15.57-31.31,23.73-50.93,40.35-97.45,86.04-126.23,148.72-11.48,24.81-23.17,54.48-25.26,84.88-.85,14.76,2.84,29.97.83,44.77-.87,6.77-6.11,16.95,0,23.69,8.12-.26,13.31-9.66,18.96-14.92,41.25-38.37,84.69-76.67,119.52-122.88,40.61-53.66,63.18-119.78,76.06-201.58Z"/>
    </clipPath>
    <linearGradient id="Gradiente_sem_nome_34-24" data-name="Gradiente sem nome 34" x1="458.46" y1="862.09" x2="669.58" y2="862.09" xlink:href="#Gradiente_sem_nome_34"/>
    <clipPath id="clippath-26">
      <path class="cls-64" d="M306.36,1208.68c-18.36-74.29.6-153.01,29.83-202.33-13.53,84.96,7.22,153.04,36.07,210.54,4.93,9.85,11.27,19.32,16.25,29.81,4.98,10.32,11.6,20.83,14.92,31.27,7.27,22.94.47,49.82-6.12,69.94,38.73-45.07,78.58-88.99,108.8-142.6-24.38,27.12-47.48,58.9-76.24,79.4,17.28-20.9,34.47-41.8,47.6-66.51-19.02,17.19-36.87,39.29-58.43,51.5,9.04-12.67,17.67-25.66,26.54-38.63-8.87,5.45-17.5,14.64-25.87,18.37,32.6-43.51,82.56-74.09,117.59-114.76,2.25-2.67,4.85-6.58,6.58-6.11-21.18,100.81-92.3,154.18-144.4,223.33-3.82,5-6.95,10.11-10.96,12.91,17.56-55.13-4.46-118.1-28.48-147.32,15.21,34.36,31.7,70.37,28.48,120.83-12.95-53.45-31.8-104.89-54.26-146.67v.76c9.58,24.48,18.37,49.45,27.11,74.76,8.64,24.48,17.45,49.78,21.02,76.63-41.15-66.34-77.2-144.86-71.14-253.92-3.45,20.26-5.24,41.31-4.17,64.52,4.17,88.83,44.97,157.01,80.83,213.86-2.35,1.25-.41,6.82-2.16,8.84-28.01-51.79-63.06-102.75-79.36-168.43M341.66,970.33c-10.38,13.4-18.6,29.44-25.82,46.21-19.95,47.17-35.49,114.55-23.81,183.28,13.95,79.36,56.98,136.8,88.45,196.94,17.06-24.59,38.31-45.48,57.79-67.92,19.12-22.23,39.02-43.98,57.57-67.2,37.52-46.92,60.4-104.42,65.11-184.71-7.4,6.13-11.35,16.25-17.09,24.48-33.33,48.44-86.78,76.66-124.17,123.58-8.38,10.65-16.59,18.15-18.22,33.33-10.8-44.46-34.04-81.71-47.49-125.69-13.64-44.24-10.76-100.85-10.21-160.88.22-1.04-.6-1.14-.7-2.04-.11,0-.22-.02-.31-.02-.59,0-.96.24-1.1.64Z"/>
    </clipPath>
    <linearGradient id="Gradiente_sem_nome_34-25" data-name="Gradiente sem nome 34" x1="302.72" y1="1183.23" x2="560.98" y2="1183.23" xlink:href="#Gradiente_sem_nome_34"/>
    <clipPath id="clippath-27">
      <path class="cls-64" d="M260.63,1289.81h-.04c-.23.03-.42.46-.28,1.08,16.49,116.94,73.3,197.27,135.65,266.04-16.91-79.07-42.66-149.26-82.85-205.04,26.87,48.55,52.42,104.34,66.58,167.71-27.97-54.19-55.37-108.88-82.88-163.55,20.72,57.3,46.78,115.23,76.69,165.61-49.18-62.62-87.45-141.92-112.51-230.78,0-.75-.18-1.06-.37-1.08"/>
    </clipPath>
    <linearGradient id="Gradiente_sem_nome_34-26" data-name="Gradiente sem nome 34" x1="260.16" y1="1423.37" x2="395.96" y2="1423.37" xlink:href="#Gradiente_sem_nome_34"/>
    <clipPath id="clippath-28">
      <path class="cls-64" d="M487.8,1530.81c-.11.02-.38.29-.84.96-4.71,6.92-8.44,16.69-13.58,25.17-24.42,39.46-66.06,77.1-63.04,144.66.3,9.05,1.72,18.27,2.55,27.8,20.78-15.69,33.25-39.74,46.31-62.46,13.19-23.02,26.34-47.07,35.92-72.6-15.75,24.21-32.02,48.08-50.33,69.87,20.25-30.17,38.33-62.76,48.86-102.58-13.66,32.6-34.39,58.31-56.19,82.89,19.43-32.71,34.43-69.05,48.13-108,.42-.89,2.69-5.71,2.22-5.71"/>
    </clipPath>
    <linearGradient id="Gradiente_sem_nome_34-27" data-name="Gradiente sem nome 34" x1="415.65" y1="1630.1" x2="495.09" y2="1630.1" xlink:href="#Gradiente_sem_nome_34"/>
    <clipPath id="clippath-29">
      <path class="cls-64" d="M419.69,1483.65c23.9-39.29,44.24-82.15,63.89-125.59-19.75,35.44-41.73,68.73-65.79,99.78,11.6-24.25,22.71-49.28,34.5-73.36-22.81,21.05-40.38,53.2-57,82.82-2.51,2.38-6.41,3.67-8.89,6.11,4.63,28.12,9.23,56.47,17.02,81.48,4.26-9.69,4.1-22.02,8.93-31.93,3.81-8.08,11.26-16.33,16.92-24.43,27.75-40.17,55.71-80.79,78.03-126.89,8.68-18,18.71-38.24,18.39-61.81-23.44,69.81-66.5,119.95-106,173.8"/>
    </clipPath>
    <linearGradient id="Gradiente_sem_nome_34-28" data-name="Gradiente sem nome 34" x1="386.41" y1="1432.37" x2="525.13" y2="1432.37" xlink:href="#Gradiente_sem_nome_34"/>
    <clipPath id="clippath-30">
      <path class="cls-64" d="M525.26,1698.92h-.02c-.67,0-1.74,4.53-2.28,6.05-14.39,38.91-31.7,79.21-47.63,116.8,7.24-29.39,18.3-60.56,26.67-91.01-15.69,23.76-30.13,55.55-41.57,86.94-3.73,10.33-9.36,22.35-10.15,32.52-1.14,14.77,3.93,31.53,7.55,45.54,3.46,14.14,8.26,27.63,11.42,41.31,2-4.78-1.33-10.44,0-16.96,1.27-5.24,6.63-12.31,9.56-18.3,21.15-42.5,37.36-89.95,50.15-140.5-14.37,24.34-25.9,51.87-38.53,78.08,13.26-42.15,24.85-91.98,35.26-139.18-.1-.9-.25-1.28-.43-1.3"/>
    </clipPath>
    <linearGradient id="Gradiente_sem_nome_34-29" data-name="Gradiente sem nome 34" x1="452.07" y1="1818" x2="528.9" y2="1818" xlink:href="#Gradiente_sem_nome_34"/>
    <clipPath id="clippath-31">
      <path class="cls-64" d="M440.91,1845.45c.16-23.65,11.01-46.75,20.92-65.13,30.94-58.07,65.76-111.06,74.04-186.67,24.89,55.45,13.57,133.75-2.74,186.67-17.3,56.14-41.52,107.58-58.41,161.56-.85.02-2.31,6.81-2.64,10.43-7.04-12.8-120.04-94.66-168.5-136.08-53.28-45.52-76.89-113.37-82.06-204.97,21.27,54.5,53.45,94.81,96.4,127.64,37.32,28.46,80.16,50.97,110.72,85.6,3.85,4.55,10.52,10.47,9.63,17.6-38.03-34.97-77.23-74.18-129.16-97.04,42.07,30.26,83.67,64.61,118.79,99.74-34.01-26.81-70.66-50.99-108.01-74.67,30.24,31.26,68.2,55.73,104.61,80.11,4.63,3.08,13.08,6.29,12.94,13.59-71.09-38.06-136.85-90.88-185.35-151.38,19.95,37.89,52.02,65.32,84.09,91.03,32.48,25.72,66.86,50.49,103.29,71.81-.78,2.89-.78,6.48-.69,10.32-62.59-30.7-115.72-70.77-160.73-118.87l.41,1.4c41.97,56.8,104.14,97.31,169.04,128.94-3.69-16.17-6.92-32.97-6.59-51.61M280.58,1614.6c-42.44-51.98-67.72-127.81-57.14-224.62,26.85,115.77,129.22,156.08,169.18,258.61-30.17-38.9-59.18-84.73-98.54-116.82,18.14,19.85,35.52,40.39,51.61,61.88,16.15,21.26,34,42.67,42.81,70.55-20.85-28.37-44.91-63.23-70.58-86.88,23.51,29.33,46.72,62.3,66.59,93.03-44.38-50.43-89.64-99.67-122.93-160.94,23.67,61.8,62.16,108.44,105.29,151.4,8.75,8.82,18.86,15.24,20.29,27.82-9.21-3.11-15.63-11.05-22.33-17.64-49.36-48.19-96.86-99.64-122.21-170.46,12.26,42.92,34.96,83.83,60.42,116.17,25.11,32.06,54.67,60.97,85.45,82.78.13-19.24,7.8-29.13,14.29-44.08,5.12-12.17,9.94-23.09,16.23-32.6,13.42-20.34,29.15-37.76,40.86-56.41,26.29-42.01,38.76-87.45,60.39-134.42,14.74,70.51-4.28,136.1-27.22,182.61-24.25,49.34-53.87,94.38-73.35,146.03-44.47-47.45-95.95-92.99-139.11-146.03ZM389.18,1560.36c-36.2-38.97-69.94-81.49-95.64-130.45-27.56-51.74-56.04-130.46-33.24-209.01l.69-.69c5.95,54.24,33.74,92.97,58.91,129.68,22.39,32.43,45.82,64.72,59.14,103.96,1.74,5.17,1.84,12.47,7.37,16.21,7.22-3.63,3.95-12.04,5.49-18.38,2-8.03,10.12-19.75,15.63-28.43,40.52-63.78,104.02-106.28,134.42-176.55,5.07,81.72-22.42,132.3-54.2,178.51-31.92,46.33-62.21,91.18-82.88,150.06-6.81-2.94-10.68-9.67-15.68-14.91ZM242.62,1307.79c3.89,45.86,19.17,86.51,34.53,119.51,24.02,51.47,57.6,97.11,93.82,137.81,11.92,13.55,23.31,27.74,37.18,37.97,21.52-78.77,66.76-133.7,107.34-193.42-18.03,39.89-31.4,80.14-50.47,117.39-18.59,37.02-46.08,67.16-64.93,102.59-35.26-78.46-107.56-120.7-148-194.23-10.34-18.62-18.07-38.96-20.28-65.13-.68-7.25,1.11-16.61-4.85-23.09-18.81,39.43-19,98.09-11.4,146.58,7.22,47.19,23.18,90.62,45.43,122.28,22.05,31.6,52.5,59.92,80.02,87.58,21.13,21.12,41,42.24,61.78,63.81,6.63,6.85,13.38,13.85,20.97,18.95,26.31-77.02,74.07-132.7,100.55-209.69-.32,103.96-66.18,148.33-80.91,240.29-18.34-22.4-39.51-40.71-62.92-58.4-23.57-17.68-49.67-32.32-72.01-50.9-45.64-38.02-76.82-85.31-92.41-153.41-11.37,47.28-2.47,95.72,6.06,137.81,9.02,43.34,24.23,80.25,45.61,109.95,43.28,60.29,117.29,92.14,169.71,141.13-.89-.15,30,22.68,38.1,36.98,2.37.07,7.67-28.75,13.02-39.3,18.74-58.5,48.2-116.34,64.19-182.26,8.39-34.36,13.06-73.47,8.19-111.98-4.39-35.33-15.93-68.52-30.43-93.78,10.84-44.79,5.86-97.81-2.76-139.75-1.14-4.64-5.07-16.78-4.1-19.02,5.46-13.85,12-26.38,16.26-41.37,12.58-44.29,16.46-100.52,4.78-151.45-8.31,25.53-17.3,47.86-30.57,67.87-38.79,58.44-96.75,99.31-128.4,165.66-27.7-66.66-80.72-110.52-105.86-180.52-8.22-23.21-11.19-49.61-16.88-78.1-17.47,36.08-24.54,83.95-20.36,131.67Z"/>
    </clipPath>
    <linearGradient id="Gradiente_sem_nome_34-30" data-name="Gradiente sem nome 34" x1="222.31" y1="1578.16" x2="557.41" y2="1578.16" xlink:href="#Gradiente_sem_nome_34"/>
    <clipPath id="clippath-32">
      <path class="cls-64" d="M962.23,754.69c0,157.75,127.89,285.64,285.64,285.64s285.62-127.89,285.62-285.64-127.87-285.63-285.62-285.63-285.64,127.89-285.64,285.63"/>
    </clipPath>
    <linearGradient id="Gradiente_sem_nome_37-2" data-name="Gradiente sem nome 37" x1="1247.86" y1="1040.33" x2="1247.86" y2="469.06" xlink:href="#Gradiente_sem_nome_37"/>
    <clipPath id="clippath-33">
      <path class="cls-64" d="M1248.81,541.96h-2.27c-1.74,0-3.5.03-5.24.1l-4.13.14-.66,22.49-20.67-19.67-.52-.5-2.2.37c-6.97,1.19-13.94,2.75-20.64,4.62l-7.08,1.96,49.98,52.52-.21,7.9-59.06-56.2-.66-.62-2.63,1.01c-4.99,1.95-10.05,4.17-14.97,6.58l-5.42,2.65,81.61,85.78-.11,3.76-88.63-84.33-.8-.76-2.88,1.73c-3.82,2.32-7.63,4.79-11.29,7.35l-4.2,2.94,106.69,112.12-.1,3.92-114.11-108.56-.92-.89-3.03,2.56c-3.04,2.6-5.8,5.11-8.48,7.63l-3.19,3.02,128.61,135.17-.13,4.04-135.84-129.26-1.08-1.04-3.04,3.51c-2.1,2.45-4.21,5.03-6.24,7.67l-2.34,2.99,147.45,154.94-.12,4.13-153.98-146.49-1.29-1.23-2.84,4.65c-1.53,2.53-3,5.06-4.44,7.64l-1.56,2.85,162.99,171.28-.12,4.27-169.78-161.57-2.41,6.07c-1.01,2.53-1.97,5.12-2.89,7.73l-.91,2.54,174.91,183.82-.14,4.39-178.03-169.41-1.88-1.78-1.59,7.78c-.55,2.7-1.03,5.43-1.5,8.17l-.35,2.17,182.24,191.51-.12,4.5-177.08-168.47-7.39-6.4v10.77c.01,2.82.09,5.61.21,8.4l.06,1.66,167.39,175.91c-2.76-.46-5.52-.95-8.19-1.49l-153.33-145.89-3.6-3.46,3.74,14.79c1.22,4.84,2.62,9.69,4.18,14.37l.32.92,166,175.66v237.69h64.7v-245.13c12.06-10.85,64.03-65.7,158.93-167.77l.77-1.36c1.56-4.72,2.99-9.56,4.21-14.38l3.76-14.79-157.31,149.68c-2.58.53-5.31,1-8.09,1.43l167.28-175.79.36-.4.08-1.65c.12-2.83.19-5.68.21-8.55v-11.25s-184.46,175.51-184.46,175.51l-.12-4.5,181.75-191.01.49-.51-.35-2.17c-.45-2.74-.94-5.47-1.5-8.17l-1.58-7.78-179.93,171.19-.12-4.39,174.29-183.18.62-.63-.9-2.55c-.93-2.61-1.9-5.19-2.94-7.74l-2.41-6.05-169.77,161.56-.12-4.27,162.25-170.53.75-.75-1.56-2.85c-1.43-2.58-2.9-5.14-4.46-7.66l-2.84-4.63-155.26,147.72-.12-4.13,146.59-154.06.85-.89-2.34-2.98c-2.01-2.61-4.11-5.17-6.24-7.67l-3.03-3.51-136.94,130.3-.13-4.04,127.66-134.12.97-1.05-3.21-3.04c-2.67-2.5-5.44-5.01-8.48-7.61l-3.03-2.56-115.02,109.45-.1-3.92,106.71-112.13-4.23-2.93c-3.7-2.58-7.5-5.05-11.29-7.35l-2.88-1.73-89.44,85.08-.11-3.76,80.25-84.37,1.38-1.41-5.44-2.65c-4.9-2.38-9.92-4.6-14.95-6.58l-2.64-1.01-59.69,56.82-.25-7.9,49.97-52.52-7.08-1.96c-6.81-1.91-13.75-3.44-20.64-4.62l-2.18-.37-21.18,20.17-.67-22.49-4.13-.14c-1.9-.05-3.81-.08-5.72-.1"/>
    </clipPath>
    <linearGradient id="Gradiente_sem_nome_34-31" data-name="Gradiente sem nome 34" x1="1247.91" y1="1227.06" x2="1247.91" y2="541.96" xlink:href="#Gradiente_sem_nome_34"/>
    <clipPath id="clippath-34">
      <path class="cls-64" d="M611.52,1222.01c-5.54,40.46-8.51,81.99-8.51,124.31,0,421.2,286.13,762.78,638.97,762.78s638.96-341.58,638.96-762.78c0-42.32-2.97-83.85-8.51-124.31H611.52Z"/>
    </clipPath>
    <linearGradient id="Gradiente_sem_nome_35" data-name="Gradiente sem nome 35" x1="603.01" y1="1665.55" x2="1880.94" y2="1665.55" gradientUnits="userSpaceOnUse">
      <stop offset="0" stop-color="#004e9e"/>
      <stop offset=".17" stop-color="#2d2e83"/>
      <stop offset=".4" stop-color="#25378d"/>
      <stop offset=".58" stop-color="#2d2e76"/>
      <stop offset=".78" stop-color="#2d2e83"/>
      <stop offset="1" stop-color="#302c5e"/>
    </linearGradient>
    <clipPath id="clippath-35">
      <path class="cls-64" d="M700.14,1749.61c32.39,61.95,71.99,117.94,117.47,166.3l845.68,4c45.97-48.12,86.08-103.95,118.97-165.86l-1082.11-4.44Z"/>
    </clipPath>
    <linearGradient id="Gradiente_sem_nome_37-3" data-name="Gradiente sem nome 37" x1="700.14" y1="1834.76" x2="1782.26" y2="1834.76" xlink:href="#Gradiente_sem_nome_37"/>
    <clipPath id="clippath-36">
      <path class="cls-64" d="M605.54,1413.8c4.24,57.48,13.74,113.13,28.08,166.26l1217.38-2.99c14.11-53.13,23.37-108.81,27.4-166.26l-1272.86,2.99Z"/>
    </clipPath>
    <linearGradient id="Gradiente_sem_nome_37-4" data-name="Gradiente sem nome 37" x1="605.54" y1="1495.44" x2="1878.4" y2="1495.44" xlink:href="#Gradiente_sem_nome_37"/>
    <clipPath id="clippath-37">
      <path class="cls-64" d="M2242.92,2341.55v-293.32c0,106.37-652.05,111.38-1001.71,113.39-349.64-2.01-1001.76-7.02-1001.76-113.39v293.32c0,95.2,619.71,122.52,1000.96,122.86h0s.87,0,.87,0h.69c381.26-.33,1000.95-27.66,1000.95-122.86"/>
    </clipPath>
    <linearGradient id="Gradiente_sem_nome_38-2" data-name="Gradiente sem nome 38" x1="2252.75" y1="2256.33" x2="242.68" y2="2256.33" xlink:href="#Gradiente_sem_nome_38"/>
    <clipPath id="clippath-38">
      <path class="cls-64" d="M94.45,1829.3L.01,1879.56s37,109.39,279.23,101.72c211.15-6.7,298.25-59,373.33-5.98,11.7,8.88,20.66,21.3,27.45,34.59.53,1.08-18.59-98.22-22.69-152.66-14.11-122.42-95.01-179.85-188.75-160.19-132.33,28.06-311.25,49.51-435.57-43.57l61.44,175.82Z"/>
    </clipPath>
    <linearGradient id="Gradiente_sem_nome_42" data-name="Gradiente sem nome 42" x1="2.4" y1="1891.48" x2="643.23" y2="1779.1" gradientUnits="userSpaceOnUse">
      <stop offset="0" stop-color="#005386"/>
      <stop offset=".11" stop-color="#2d2b66"/>
      <stop offset=".23" stop-color="#2d2e83"/>
      <stop offset=".28" stop-color="#2c2f84"/>
      <stop offset=".46" stop-color="#0a4696"/>
      <stop offset=".63" stop-color="#004b9c"/>
      <stop offset=".72" stop-color="#2d2e83"/>
      <stop offset="1" stop-color="#2f2c45"/>
    </linearGradient>
    <clipPath id="clippath-39">
      <path class="cls-64" d="M2017.51,1697.05c-93.74-19.66-174.64,37.77-188.76,160.19-4.12,54.44-23.23,153.73-22.69,152.66,6.8-13.29,15.74-25.72,27.46-34.59,75.07-53.02,162.18-.72,373.32,5.98,242.25,7.66,279.26-101.72,279.26-101.72l-94.46-50.27,61.43-175.82c-124.31,93.08-303.24,71.63-435.56,43.57"/>
    </clipPath>
    <linearGradient id="Gradiente_sem_nome_40" data-name="Gradiente sem nome 40" x1="1842.88" y1="1779.1" x2="2483.72" y2="1891.49" gradientUnits="userSpaceOnUse">
      <stop offset="0" stop-color="#005386"/>
      <stop offset=".09" stop-color="#2d2b66"/>
      <stop offset=".17" stop-color="#2d2e83"/>
      <stop offset=".29" stop-color="#2a3286"/>
      <stop offset=".31" stop-color="#2c2f84"/>
      <stop offset=".42" stop-color="#004b9c"/>
      <stop offset=".63" stop-color="#2d2e76"/>
      <stop offset=".73" stop-color="#2d2e83"/>
      <stop offset=".78" stop-color="#2d2e78"/>
      <stop offset="1" stop-color="#2f2c45"/>
    </linearGradient>
    <clipPath id="clippath-40">
      <path class="cls-64" d="M1607.59,606.48c12.05,21.7,20.29,28.51,27.84,32.13,7.53,3.62,49.28,24.18,196.15-2.23,77.86-8.19,105.73-9.59,130.91,9.71,25.2,19.32,31.68,30.25,31.68,30.25l-29.38-113.16,45.22-32.38s-17.69-70.37-133.65-65.42c-101.08,4.33-207.78,38.02-243.72,3.9-19.92-20.29-23.05-69.44-23.05-69.44l-1.99,206.63Z"/>
    </clipPath>
    <linearGradient id="Gradiente_sem_nome_42-2" data-name="Gradiente sem nome 42" x1="1607.59" y1="538.09" x2="2010.01" y2="538.09" xlink:href="#Gradiente_sem_nome_42"/>
    <clipPath id="clippath-41">
      <path class="cls-64" d="M896.46,469.34c-35.87,34.12-142.45.41-243.43-3.94-115.79-4.97-133.47,65.4-133.47,65.4l45.17,32.38-29.35,113.16s6.49-10.92,31.65-30.25c25.15-19.3,52.98-17.89,130.75-9.68,146.7,26.43,188.37,5.87,195.91,2.25,7.54-3.61,15.75-10.45,27.77-32.15l-1.98-206.61s-3.14,49.14-23.02,69.43"/>
    </clipPath>
    <linearGradient id="Gradiente_sem_nome_42-3" data-name="Gradiente sem nome 42" x1="519.53" y1="538.07" x2="921.51" y2="538.18" xlink:href="#Gradiente_sem_nome_42"/>
  </defs>
  <g id="Camada_1-2" data-name="Camada 1">
    <path class="cls-49" d="M100.37,2942.08c14.61,0,26.89,2.45,36.85,7.37,9.96,4.92,17.98,11.35,24.09,19.31,6.11,7.97,10.49,17.07,13.14,27.28,2.65,10.24,3.99,20.66,3.99,31.28,0,14.61-2.19,27.35-6.58,38.24-4.38,10.89-10.49,19.79-18.33,26.68-7.82,6.92-17.32,12.09-28.47,15.54-11.15,3.45-23.5,5.18-37.04,5.18h-30.67v113.51H0v-284.39h100.37ZM82.84,3070.73c11.43,0,20.65-3.45,27.68-10.36,7.04-6.9,10.56-17.65,10.56-32.26s-3.04-25.22-9.16-32.65c-6.1-7.43-16.33-11.16-30.66-11.16h-23.91v86.44h25.49Z"/>
    <path class="cls-49" d="M314.66,2942.07c23.9,0,42.48,6.05,55.76,18.12,13.27,12.09,19.92,30.48,19.92,55.17,0,19.12-3.86,34.72-11.56,46.8-7.7,12.09-19.66,19.85-35.85,23.3v.79c14.34,2.14,24.83,6.77,31.46,13.95,6.63,7.16,10.76,18.71,12.36,34.65.52,5.32.93,11.1,1.19,17.33.26,6.24.53,13.21.8,20.91.53,15.14,1.32,26.69,2.38,34.65,1.59,7.97,5.04,13.42,10.36,16.34v2.38h-62.15c-2.92-3.99-4.78-8.57-5.58-13.74-.79-5.18-1.33-10.56-1.58-16.13l-1.6-54.58c-.53-11.15-3.33-19.9-8.36-26.28-5.04-6.37-13.54-9.56-25.49-9.56h-30.67v120.29h-57.35v-284.39h105.95ZM289.96,3066.35c13.81,0,24.43-3.25,31.86-9.75,7.43-6.51,11.15-17.47,11.15-32.87,0-26.28-13.27-39.43-39.83-39.43h-27.08v82.05h23.89Z"/>
    <polygon class="cls-49" points="591.08 2989.08 489.51 2989.08 489.51 3055.99 585.11 3055.99 585.11 3102.99 489.51 3102.99 489.51 3179.46 595.07 3179.46 595.07 3226.47 432.15 3226.47 432.15 2942.08 591.08 2942.08 591.08 2989.08"/>
    <polygon class="cls-49" points="784.65 2942.08 784.65 2989.08 683.08 2989.08 683.08 3055.99 778.68 3055.99 778.68 3102.99 683.08 3102.99 683.08 3226.47 625.72 3226.47 625.72 2942.08 784.65 2942.08"/>
    <polygon class="cls-49" points="971.06 2989.08 869.49 2989.08 869.49 3055.99 965.09 3055.99 965.09 3102.99 869.49 3102.99 869.49 3179.46 975.05 3179.46 975.05 3226.47 812.13 3226.47 812.13 2942.08 971.06 2942.08 971.06 2989.08"/>
    <rect class="cls-49" x="1008.49" y="2942.08" width="57.36" height="284.39"/>
    <polygon class="cls-49" points="1276.95 2989.08 1214.81 2989.08 1214.81 3226.47 1157.46 3226.47 1157.46 2989.08 1095.33 2989.08 1095.33 2942.08 1276.95 2942.08 1276.95 2989.08"/>
    <path class="cls-49" d="M1365.03,3140.44c0,7.16.46,13.74,1.39,19.7.93,5.98,2.65,11.16,5.19,15.54,2.51,4.38,5.97,7.83,10.35,10.36s9.9,3.78,16.53,3.78,12.49-1.26,16.73-3.78c4.24-2.53,7.62-5.98,10.15-10.36,2.53-4.38,4.24-9.56,5.18-15.54.92-5.96,1.39-12.54,1.39-19.7v-198.36h57.35v198.36c0,18.05-2.53,33-7.56,44.82-5.05,11.81-11.82,21.16-20.31,28.08-8.51,6.9-18.2,11.54-29.08,13.94-10.89,2.38-22.17,3.58-33.85,3.58s-22.97-1.06-33.86-3.19c-10.89-2.11-20.58-6.44-29.08-12.94-8.5-6.5-15.26-15.74-20.31-27.68-5.05-11.96-7.57-27.49-7.57-46.6v-198.36h57.35v198.36Z"/>
    <path class="cls-49" d="M1633.49,2942.07c23.9,0,42.48,6.05,55.76,18.12,13.28,12.09,19.92,30.48,19.92,55.17,0,19.12-3.86,34.72-11.55,46.8-7.7,12.09-19.66,19.85-35.85,23.3v.79c14.34,2.14,24.83,6.77,31.46,13.95,6.63,7.16,10.76,18.71,12.36,34.65.52,5.32.93,11.1,1.19,17.33.26,6.24.53,13.21.8,20.91.53,15.14,1.32,26.69,2.38,34.65,1.59,7.97,5.04,13.42,10.36,16.34v2.38h-62.14c-2.93-3.99-4.78-8.57-5.58-13.74-.79-5.18-1.33-10.56-1.58-16.13l-1.59-54.58c-.53-11.15-3.33-19.9-8.37-26.28-5.04-6.37-13.54-9.56-25.49-9.56h-30.67v120.29h-57.35v-284.39h105.95ZM1608.79,3066.35c13.81,0,24.43-3.25,31.86-9.75,7.43-6.51,11.15-17.47,11.15-32.87,0-26.28-13.27-39.43-39.83-39.43h-27.08v82.05h23.9Z"/>
    <path class="cls-49" d="M1877.25,2942.08l75.28,284.39h-59.75l-13.13-60.15h-75.68l-13.14,60.15h-59.75l75.28-284.39h70.9ZM1869.69,3119.32l-27.5-127.85h-.79l-27.48,127.85h55.77Z"/>
    <path class="cls-49" d="M2188.76,2942.07c19.92,0,35.98,3.26,48.2,9.76,12.21,6.5,21.72,15.8,28.48,27.88,6.77,12.08,11.35,26.63,13.74,43.61,2.38,17,3.59,35.99,3.59,56.96,0,24.96-1.53,46.68-4.58,65.12-3.06,18.46-8.3,33.65-15.73,45.61-7.43,11.95-17.41,20.85-29.88,26.68-12.48,5.85-28.28,8.77-47.39,8.77h-90.42v-284.39h94ZM2177.61,3184.24c10.08,0,18.17-1.72,24.29-5.18,6.11-3.44,10.96-9.15,14.54-17.12,3.58-7.97,5.97-18.46,7.18-31.46,1.18-13.01,1.79-29.21,1.79-48.6,0-16.18-.54-30.4-1.6-42.61-1.05-12.22-3.25-22.37-6.57-30.47-3.32-8.1-8.24-14.21-14.74-18.34-6.5-4.11-15.19-6.17-26.09-6.17h-24.3v199.95h25.5Z"/>
    <polygon class="cls-49" points="2481.51 2989.08 2379.94 2989.08 2379.94 3055.99 2475.54 3055.99 2475.54 3102.99 2379.94 3102.99 2379.94 3179.46 2485.5 3179.46 2485.5 3226.47 2322.59 3226.47 2322.59 2942.08 2481.51 2942.08 2481.51 2989.08"/>
    <path class="cls-49" d="M205.8,3295.13c26.02,0,48.61,4.18,67.77,12.53,19.14,8.36,34.99,19.78,47.51,34.26,12.52,14.48,21.72,31.55,27.61,51.19,5.9,19.65,8.84,41.01,8.84,64.08,0,54.51-14.62,95.38-43.83,122.64-29.22,27.26-72.07,40.88-128.53,40.88h-47.88v200.36H.28v-525.93h205.52ZM163.07,3522c17.18,0,30.31-5.16,39.41-15.48,9.08-10.31,13.62-26.51,13.62-48.61,0-42.72-17.66-64.08-53.03-64.08h-25.78v128.17h25.78Z"/>
    <path class="cls-49" d="M624.08,3295.13l128.18,525.92h-145.85l-13.99-92.07h-109.02l-14,92.07h-143.63l125.97-525.92h172.35ZM537.16,3402.67l-37.57,223.19h76.6l-37.57-223.19h-1.47Z"/>
    <polygon class="cls-49" points="934.97 3295.13 934.97 3709.1 1103.65 3709.1 1103.65 3821.05 797.96 3821.05 797.96 3295.13 934.97 3295.13"/>
    <polygon class="cls-49" points="1345.03 3295.13 1400.28 3606.71 1401.74 3606.71 1456.99 3295.13 1652.93 3295.13 1652.93 3821.05 1524.76 3821.05 1524.76 3429.19 1523.29 3429.19 1450.36 3821.05 1351.65 3821.05 1278.74 3429.19 1277.26 3429.19 1277.26 3821.05 1149.1 3821.05 1149.1 3295.13 1345.03 3295.13"/>
    <path class="cls-49" d="M1986.38,3295.13l128.17,525.92h-145.84l-14-92.07h-109.02l-13.99,92.07h-143.63l125.96-525.92h172.36ZM1899.47,3402.67l-37.57,223.19h76.6l-37.57-223.19h-1.47Z"/>
    <path class="cls-49" d="M2343.49,3434.34c0-15.71-3.19-29.1-9.58-40.14-6.38-11.05-16.19-16.57-29.47-16.57-14.73,0-25.54,4.78-32.4,14.36-6.88,9.58-10.31,20.26-10.31,32.05,0,17.19,5.53,30.82,16.57,40.87,11.04,10.08,24.91,18.79,41.62,26.15,16.69,7.37,34.63,14.86,53.76,22.47,19.16,7.62,37.07,17.57,53.78,29.84,16.69,12.27,30.57,28.36,41.61,48.24,11.04,19.9,16.58,45.79,16.58,77.72,0,55.98-15.97,96.62-47.88,121.9-31.94,25.31-78.09,37.94-138.48,37.94-28.49,0-53.66-2.34-75.51-7.01-21.85-4.65-40.26-12.76-55.24-24.3-14.99-11.53-26.4-26.63-34.26-45.3-7.85-18.65-11.78-41.74-11.78-69.23v-18.44h132.59v12.54c0,22.58,4.17,38.43,12.53,47.5,8.33,9.09,19.15,13.62,32.4,13.62,14.23,0,25.17-4.9,32.77-14.72,7.62-9.83,11.42-21.85,11.42-36.1,0-17.19-5.28-30.81-15.83-40.89-10.56-10.05-23.82-18.64-39.77-25.77-15.97-7.12-33.28-14.36-51.93-21.72-18.67-7.37-35.98-16.95-51.93-28.73-15.96-11.79-29.22-27.26-39.77-46.41-10.56-19.16-15.83-44.2-15.83-75.15,0-53.51,14.24-94.27,42.72-122.27,28.48-27.98,71.69-41.97,129.64-41.97s103.24,12.89,130.01,38.67c26.76,25.77,40.14,66.91,40.14,123.38h-128.17v-12.52Z"/>
    <polygon class="cls-40" points="239.45 2036.66 599.74 1845.47 680.02 2009.89 545.02 2264.68 420.6 2293.04 239.45 2036.66"/>
    <polygon class="cls-40" points="2242.94 2036.66 1889.16 1845.47 1808.87 2009.89 1943.88 2264.68 2068.29 2293.04 2240.06 2077.07 2242.94 2036.66"/>
    <g class="cls-86">
      <rect class="cls-32" x="1151.97" width="197.95" height="187.76"/>
    </g>
    <rect class="cls-40" x="1609.44" y="347.31" width="112.77" height="201.59"/>
    <rect class="cls-40" x="806.84" y="320.04" width="112.59" height="201.59"/>
    <path class="cls-14" d="M806.49,306.3v.06l.05,3.51v1.58l.05,6.88v5.28l.05,6.87v5.46l.06,5.85.04,5.51v4.62l.06,5.57v6.5l.05,5.74v5.15l.04,5.84.06,6.15.06,5.94.04,4.81v6.14l.05,5.83.04,5.28v.93l.06,4.25v.06l.1,6.5.11,5.79.06,6.73.24,17.71h.18v.03-.03h.22l.06-3.11c.19-1.55.5-3.09,1.01-4.63.8-3.49,6.14-18.12,43.29-33.01,13.3-5.36,30.6-10.73,53.25-15.6,13.37-2.94,28.65-5.68,46.04-8.1l1.38-.24c62.07-8.71,322.84-13.11,402.49-13.11,4.34,0,8.71.02,13.06.04.6.03,10.29.61,24.74,1.28,7.46.3,16.16.65,25.5,1.02,9.31.28,19.28.59,29.22.89,4.98.12,9.93.57,14.82.83,4.88.32,9.68.62,14.34.9,9.31.52,18,.99,25.44,1.4,14.84.72,24.75,1.04,24.87,1.04,17.35,1.63,33.91,3.54,49.37,5.71l1.37.24c17.39,2.43,32.65,5.17,46.05,8.1,22.63,4.87,39.95,10.23,53.23,15.6,37.17,14.89,42.49,29.52,43.31,33.01.53,1.63.84,3.26,1.03,4.89.06.94.06,1.92.06,2.85h.18v.03-.03h.22c.06-5.46.1-10.89.2-16.35,0-2.24.05-4.54.1-6.83,0-1.86,0-3.73.05-5.65,0-2.19.06-4.39.06-6.63,0-1.4.03-2.8.03-4.2.06-2.1.06-4.26.11-6.41,0-1.88,0-3.75.06-5.62,0-2.06.04-4.15.04-6.26,0-1.54.06-3.13,0-4.71.06-2.02.1-4.06.06-6.13.04-2,.09-3.97.04-5.98.04-1.96.04-3.98.04-5.93v-.05c.05-1.07.05-2.15.05-3.22v-1.78l.06-5.75.06-6.49v-5.66l.05-4.53.04-5.46v-5.94l.06-5.38v-1.03l.04-5.89.04-5.18v-.04l.06-6.91v-5.09l.06-5.47v-2.89l.04-2.02c-.04-2.89-.5-6.02-1.29-8.82v.13c-.79-3.46-2.75-6.21-4.69-8.93l-3.34-3.74c-1.14-1.16-2.48-2.2-3.74-3.32-2.4-2.33-5.28-3.97-7.98-5.93-2.68-1.96-5.78-3.37-8.67-5.05-2.89-1.78-5.93-2.99-8.97-4.35-2.99-1.26-5.97-2.89-9.21-3.89l-18.94-6.58c-3.2-1.13-6.44-1.68-9.62-2.57l-9.68-2.48-9.66-2.43c-3.2-.89-6.63-1.5-9.83-2.16-6.58-1.2-13.11-2.75-19.68-3.69l-19.79-3.13-27.78-3.22c-9.27-.97-18.49-2.29-27.81-2.95l-27.86-2.05c-9.27-.56-18.53-1.5-27.86-1.82l-27.97-1.04c-9.27-.33-18.59-.79-27.91-.93l-55.83-.47-237.02.99c-9.29.23-18.6.78-27.89,1.22l-27.91,1.26c-9.31.33-18.6,1.22-27.85,1.77l-27.86,1.96c-9.33.72-18.5,1.97-27.77,2.92-9.28,1.06-18.39,1.95-27.82,3.18l.05-.06-19.79,2.99c-6.62.9-13.11,2.4-19.68,3.55-3.24.66-6.58,1.17-9.78,2.06l-9.76,2.37-9.72,2.48c-3.19.83-6.52,1.45-9.67,2.57l-18.8,6.46-2.34.79-2.34,1.03-4.59,1.99c-3.04,1.35-6.14,2.62-8.96,4.36-2.89,1.68-5.94,3.09-8.63,5.05-2.7,1.92-5.63,3.6-8.02,5.9-1.25,1.11-2.56,2.15-3.69,3.31l-3.35,3.74c-1.94,2.66-3.9,5.47-4.69,8.88v-.13c-.69,2.43-1.09,4.86-1.24,7.24v.06c-.1,1.16-.1,2.32-.06,3.5v1.58l.06,5.36ZM1062.86,222.47l9.53-.36-11.76.51,2.23-.15Z"/>
    <g class="cls-39">
      <rect class="cls-20" x="806.4" y="209.99" width="917.33" height="238.91"/>
    </g>
    <path class="cls-51" d="M1871.27,1943.97c13.7,74.03,42.81,139.96,59.99,205.95,2.38,16.31,4.49,31.44,6.62,36.41,7.12-2.77,36.18-19.62,48.11-29.74,3.51-2.95,6.24-5.17,6.66-5.29l.88-.28c60.53-48.36,140.93-79.27,191.01-141.46,25.52-31.6,44.63-71.59,57.26-119.07,12.05-46.14,24.86-99.3,15.15-152.4-21.45,74.53-58.89,125.04-111.8,164.41-25.9,19.22-55.75,33.87-82.92,52.02-27.05,18.17-51.64,37.17-73.34,60.89-10.66-102.61-80.66-155.84-75.02-270.53l-6.8-25.34c-16.99,26.86-31.21,61.94-38.08,99.79-3.62,19.92-4.87,40.07-4.5,59.86-21.94,28.01-41.8,65.33-53.85,106.57-13.68,46.67-15.7,95.88-12.21,140.05,6.61,84.66,31.45,162.04,42.94,238.06.72,18.56,1.3,35.79,3.13,41.62,8.3-2.26,42.88-17.72,57.45-27.66,4.28-2.89,7.61-5.07,8.11-5.15l1.01-.21c73.61-47.09,167.43-72.22,230.94-136.05,32.35-32.44,58.52-75.02,78.31-126.76,18.96-50.33,39.61-108.41,35.01-169.11-32.86,81.02-80.84,133.26-144.84,171.13-31.32,18.5-66.51,31.4-99.14,48.54-32.48,17.19-62.31,35.58-89.44,59.61.17-111.72-66.38-178.87-54.03-297.37.97,7.29,2.07,14.51,3.38,21.51"/>
    <path class="cls-51" d="M2044.17,941.91c2.57,39.42-5.3,79.3-6.08,121.42-65.72-45.33-129.78-92.3-166.38-166.93-.23,16.39-2.21,36.02.78,52.24,2.58,15.2,9.86,30.87,16.32,45.55,40.24,93.22,112.27,157.34,181.94,219.28,5.38,4.78,10,11.79,17.6,13.58,4.43-7.59,5.69-16.69,7.41-25.18,13.01-60.77,36.44-127.68,25.75-200.93-10.86-76.37-58.08-120.96-99.68-165.69l-1.27-.6c3.89,16.53,9.43,34.04,14.13,52.2,4.76,17.97,8.35,35.79,9.47,55.06"/>
    <path class="cls-51" d="M2009.63,1017.89c5.62,5.24,10.84,14.66,18.95,14.91,6.11-6.74.88-16.93,0-23.7-2-14.81,1.67-30.01.84-44.75-2.1-30.41-13.8-60.08-25.26-84.9-28.77-62.66-75.31-108.36-126.23-148.71-10.33-8.15-21-18.21-31.33-23.74-10.72-5.86-22.76-8.27-31.97-14.91l-.6-.74v2.01c12.88,81.81,35.46,147.96,76.07,201.63,34.84,46.22,78.28,84.51,119.53,122.9"/>
    <path class="cls-51" d="M2082.18,1258.32c-1.61-15.16-9.84-22.67-18.23-33.33-37.38-46.93-90.83-75.14-124.17-123.59-5.72-8.21-9.67-18.33-17.09-24.47,4.75,80.3,27.58,137.79,65.12,184.71,18.54,23.23,38.43,44.98,57.56,67.2,19.49,22.42,40.74,43.34,57.81,67.91,31.45-60.11,74.48-117.57,88.45-196.93,11.68-68.72-3.87-136.11-23.83-183.29-7.21-16.76-15.42-32.82-25.79-46.19-.15-.47-.65-.74-1.43-.63-.11.9-.9,1.01-.68,2.05.54,60.03,3.43,116.64-10.22,160.87-13.45,43.98-36.7,81.23-47.49,125.69"/>
    <path class="cls-51" d="M2267.58,1554.26c-15.58,68.08-46.75,115.39-92.4,153.41-22.34,18.59-48.46,33.24-72,50.91-23.42,17.7-44.6,36.01-62.94,58.41-14.72-91.96-80.6-136.35-80.92-240.29,26.49,77,74.24,132.66,100.57,209.69,7.6-5.09,14.32-12.09,20.96-18.96,20.79-21.59,40.65-42.69,61.77-63.82,27.55-27.65,57.99-55.98,80.04-87.56,22.26-31.66,38.2-75.1,45.44-122.27,7.59-48.5,7.39-107.18-11.41-146.6-5.97,6.48-4.17,15.85-4.85,23.1-2.21,26.17-9.94,46.53-20.28,65.15-40.42,73.51-112.73,115.74-148,194.22-18.86-35.43-46.34-65.57-64.93-102.61-19.07-37.23-32.44-77.49-50.46-117.36,40.56,59.73,85.8,114.64,107.32,193.42,13.89-10.22,25.26-24.42,37.17-37.98,36.23-40.71,69.82-86.34,93.84-137.81,15.34-32.99,30.63-73.64,34.52-119.51,4.18-47.72-2.89-95.59-20.37-131.66-5.68,28.48-8.66,54.89-16.88,78.1-25.13,69.99-78.14,113.85-105.84,180.52-31.65-66.36-89.62-107.23-128.38-165.66-13.29-20.02-22.27-42.34-30.59-67.88-11.7,50.96-7.8,107.17,4.79,151.46,4.27,14.99,10.8,27.52,16.27,41.37.96,2.27-2.96,14.39-4.12,19.01-8.62,41.97-13.59,94.98-2.76,139.76-14.49,25.26-26.03,58.44-30.45,93.79-4.84,38.53-.16,77.6,8.23,111.98,16,65.92,45.43,123.75,64.18,182.26,5.36,10.55,10.65,39.37,13.01,39.29,8.11-14.29,39-37.11,38.11-36.97,52.41-49,126.45-80.86,169.72-141.15,21.38-29.68,36.59-66.6,45.59-109.92,8.54-42.12,17.43-90.55,6.06-137.83"/>
    <g class="cls-79">
      <rect class="cls-42" x="1897.77" y="1879.53" width="82.12" height="267.43"/>
    </g>
    <g class="cls-55">
      <rect class="cls-70" x="1861.56" y="1719.55" width="405.4" height="466.8"/>
    </g>
    <g class="cls-13">
      <rect class="cls-38" x="1827.61" y="2057.6" width="80.54" height="305.48"/>
    </g>
    <g class="cls-46">
      <rect class="cls-18" x="1795.24" y="1878.36" width="465" height="527.13"/>
    </g>
    <g class="cls-6">
      <rect class="cls-5" x="1875.38" y="766.06" width="133.23" height="207.71"/>
    </g>
    <g class="cls-7">
      <rect class="cls-56" x="1869.79" y="834.66" width="262.73" height="392.4"/>
    </g>
    <g class="cls-52">
      <rect class="cls-43" x="1849.63" y="751.36" width="159.58" height="228.56"/>
    </g>
    <g class="cls-23">
      <rect class="cls-81" x="2081.95" y="958.65" width="39.71" height="239.18"/>
    </g>
    <g class="cls-24">
      <rect class="cls-89" x="1814.32" y="691.36" width="220.66" height="341.44"/>
    </g>
    <g class="cls-31">
      <rect class="cls-50" x="1922.99" y="969.69" width="280.6" height="427.07"/>
    </g>
    <g class="cls-60">
      <rect class="cls-74" x="2088.01" y="1289.81" width="135.8" height="267.13"/>
    </g>
    <g class="cls-83">
      <rect class="cls-73" x="1988.83" y="1530.81" width="87.79" height="198.59"/>
    </g>
    <g class="cls-63">
      <rect class="cls-45" x="1957.93" y="1309.85" width="139.61" height="245.05"/>
    </g>
    <g class="cls-10">
      <rect class="cls-57" x="1954.99" y="1698.92" width="79.81" height="238.16"/>
    </g>
    <g class="cls-78">
      <rect class="cls-91" x="1918.14" y="1176.12" width="361.12" height="804.08"/>
    </g>
    <path class="cls-51" d="M613.49,1943.97c-13.71,74.03-42.81,139.96-60.01,205.95-2.37,16.31-4.48,31.44-6.61,36.41-7.13-2.77-36.19-19.62-48.12-29.74-3.5-2.95-6.24-5.17-6.67-5.29l-.87-.28c-60.53-48.36-140.95-79.27-191.01-141.46-25.52-31.6-44.64-71.59-57.27-119.07-12.05-46.14-24.86-99.3-15.14-152.4,21.44,74.53,58.88,125.04,111.79,164.41,25.9,19.22,55.76,33.87,82.93,52.02,27.04,18.17,51.64,37.17,73.33,60.89,10.67-102.61,80.66-155.84,75.03-270.53l6.81-25.34c16.97,26.86,31.2,61.94,38.06,99.79,3.63,19.92,4.88,40.07,4.5,59.86,21.96,28.01,41.8,65.33,53.86,106.57,13.68,46.67,15.7,95.88,12.21,140.05-6.61,84.66-31.45,162.04-42.94,238.06-.72,18.56-1.3,35.79-3.12,41.62-8.3-2.26-42.89-17.72-57.46-27.66-4.28-2.89-7.6-5.07-8.1-5.15l-1.02-.21c-73.61-47.09-167.41-72.22-230.93-136.05-32.36-32.44-58.52-75.02-78.31-126.76-18.96-50.33-39.62-108.41-35.02-169.11,32.86,81.02,80.84,133.26,144.83,171.13,31.33,18.5,66.52,31.4,99.16,48.54,32.47,17.19,62.29,35.58,89.43,59.61-.16-111.72,66.38-178.87,54.04-297.37-.99,7.29-2.08,14.51-3.38,21.51"/>
    <path class="cls-51" d="M440.58,941.91c-2.57,39.42,5.3,79.3,6.08,121.42,65.72-45.33,129.78-92.3,166.38-166.93.23,16.39,2.22,36.02-.78,52.24-2.58,15.2-9.85,30.87-16.33,45.55-40.23,93.22-112.26,157.34-181.93,219.28-5.38,4.78-10,11.79-17.61,13.58-4.42-7.59-5.68-16.69-7.39-25.18-13-60.77-36.45-127.68-25.76-200.93,10.85-76.37,58.08-120.96,99.68-165.69l1.27-.6c-3.9,16.53-9.43,34.04-14.13,52.2-4.76,17.97-8.34,35.79-9.47,55.06"/>
    <path class="cls-51" d="M475.12,1017.89c-5.62,5.24-10.83,14.66-18.95,14.91-6.11-6.74-.88-16.93,0-23.7,2.01-14.81-1.67-30.01-.83-44.75,2.1-30.41,13.78-60.08,25.27-84.9,28.78-62.66,75.31-108.36,126.22-148.71,10.32-8.15,21-18.21,31.32-23.74,10.73-5.86,22.77-8.27,31.98-14.91l.6-.74v2.01c-12.88,81.81-35.46,147.96-76.07,201.63-34.84,46.22-78.28,84.51-119.53,122.9"/>
    <path class="cls-51" d="M402.58,1258.32c1.6-15.16,9.83-22.67,18.22-33.33,37.38-46.93,90.84-75.14,124.17-123.59,5.74-8.21,9.68-18.33,17.1-24.47-4.75,80.3-27.58,137.79-65.13,184.71-18.53,23.23-38.43,44.98-57.55,67.2-19.5,22.42-40.75,43.34-57.82,67.91-31.45-60.11-74.47-117.57-88.45-196.93-11.67-68.72,3.87-136.11,23.83-183.29,7.22-16.76,15.43-32.82,25.79-46.19.15-.47.65-.74,1.43-.63.11.9.91,1.01.69,2.05-.55,60.03-3.43,116.64,10.21,160.87,13.46,43.98,36.7,81.23,47.5,125.69"/>
    <path class="cls-51" d="M217.16,1554.26c15.58,68.08,46.76,115.39,92.4,153.41,22.34,18.59,48.46,33.24,72,50.91,23.42,17.7,44.6,36.01,62.95,58.41,14.71-91.96,80.59-136.35,80.91-240.29-26.5,77-74.24,132.66-100.58,209.69-7.58-5.09-14.33-12.09-20.96-18.96-20.8-21.59-40.65-42.69-61.78-63.82-27.54-27.65-57.98-55.98-80.03-87.56-22.26-31.66-38.2-75.1-45.43-122.27-7.6-48.5-7.4-107.18,11.4-146.6,5.96,6.48,4.17,15.85,4.87,23.1,2.2,26.17,9.93,46.53,20.27,65.15,40.43,73.51,112.73,115.74,147.99,194.22,18.87-35.43,46.36-65.57,64.95-102.61,19.06-37.23,32.43-77.49,50.45-117.36-40.57,59.73-85.8,114.64-107.32,193.42-13.89-10.22-25.27-24.42-37.18-37.98-36.24-40.71-69.82-86.34-93.84-137.81-15.34-32.99-30.62-73.64-34.52-119.51-4.18-47.72,2.89-95.59,20.37-131.66,5.68,28.48,8.66,54.89,16.88,78.1,25.14,69.99,78.15,113.85,105.85,180.52,31.65-66.36,89.62-107.23,128.38-165.66,13.29-20.02,22.27-42.34,30.59-67.88,11.7,50.96,7.79,107.17-4.79,151.46-4.26,14.99-10.8,27.52-16.27,41.37-.96,2.27,2.96,14.39,4.12,19.01,8.62,41.97,13.59,94.98,2.78,139.76,14.48,25.26,26.02,58.44,30.43,93.79,4.84,38.53.16,77.6-8.22,111.98-16.01,65.92-45.44,123.75-64.19,182.26-5.37,10.55-10.64,39.37-13.02,39.29-8.1-14.29-39-37.11-38.11-36.97-52.41-49-126.45-80.86-169.72-141.15-21.39-29.68-36.59-66.6-45.59-109.92-8.54-42.12-17.43-90.55-6.06-137.83"/>
    <g class="cls-8">
      <rect class="cls-54" x="504.05" y="1879.53" width="82.14" height="267.43"/>
    </g>
    <g class="cls-12">
      <rect class="cls-30" x="216.98" y="1719.55" width="405.38" height="466.8"/>
    </g>
    <g class="cls-68">
      <rect class="cls-90" x="575.81" y="2057.6" width="80.54" height="305.48"/>
    </g>
    <g class="cls-47">
      <rect class="cls-69" x="223.71" y="1878.36" width="464.99" height="527.13"/>
    </g>
    <g class="cls-4">
      <rect class="cls-19" x="475.33" y="766.06" width="133.25" height="207.71"/>
    </g>
    <g class="cls-15">
      <rect class="cls-1" x="351.44" y="834.66" width="262.73" height="392.4"/>
    </g>
    <g class="cls-16">
      <rect class="cls-61" x="474.72" y="751.36" width="159.59" height="228.56"/>
    </g>
    <g class="cls-85">
      <rect class="cls-17" x="362.29" y="958.65" width="39.73" height="239.18"/>
    </g>
    <g class="cls-27">
      <rect class="cls-66" x="448.96" y="691.37" width="220.65" height="341.43"/>
    </g>
    <g class="cls-58">
      <rect class="cls-29" x="280.35" y="969.69" width="280.6" height="427.07"/>
    </g>
    <g class="cls-28">
      <rect class="cls-33" x="260.16" y="1289.81" width="135.8" height="267.13"/>
    </g>
    <g class="cls-36">
      <rect class="cls-22" x="407.33" y="1530.81" width="87.79" height="198.59"/>
    </g>
    <g class="cls-80">
      <rect class="cls-62" x="386.41" y="1309.85" width="139.6" height="245.05"/>
    </g>
    <g class="cls-67">
      <rect class="cls-76" x="449.14" y="1698.92" width="79.82" height="238.16"/>
    </g>
    <g class="cls-9">
      <rect class="cls-88" x="204.69" y="1176.12" width="361.12" height="804.08"/>
    </g>
    <path class="cls-51" d="M712.18,2366.22c-1.81-.04-3.7-.09-5.65-.13l.37.1c1.75.01,3.52,0,5.28.03"/>
    <path class="cls-51" d="M541.39,2373.19l-46.83,4.39c1.45,1.68,3.56,3.34,4.92,4.54,44.65,42.78,104.35,74.35,170.66,99.92,35.47,13.77,72.57,26.3,113.06,34.79,41.09,8.72,84.87,13.47,132.71,17.24,47.7,3.75,94.96,4.57,138.76,10.34,43.9,5.83,83.02,15.14,118.17,29.62,69.79,28.75,106.33,81.08,130.62,149.94,16.68,4.22,33.56,8.37,47.85,14.66-1.6-7.8-5.11-15.52-8.46-22.44-24.52-51.05-61.12-90.79-105.21-126.18-49.06-39.37-107.38-72.84-172.53-99.36-121.64-49.28-273.26-74.47-406.36-116.41-9.75-3.05-18.76-6.4-28.65-8.01-6.76.16-13.72.38-20.84.64,78.83,41.24,178.56,58.26,277.24,83.16,32.1,8.18,64.06,16.98,95.13,25.92,61.18,17.55,121.07,37.25,173.99,66.08,37.21,20.27,73.95,44.17,104.82,71.64,11.14,10.02,22.01,20.29,29.46,31.52l1.27.85c2.36,4.38-2.87-1.6-1.32-.1-8.97-8.26-18.03-18.47-27.84-26.76-33.76-27.91-76.33-51.26-122.73-68.88-62.58-23.77-135.78-38.66-208.93-52.54-74.75-14.13-151.65-24.89-218.48-44.47-57.83-16.79-113.98-37.69-155.99-69.46-4.55-3.36-11.32-10.45-15.59-12.84-1.3.12-2.57.17-3.87.28l2.08.38c.81.21,1.81.79,2.9,1.53"/>
    <path class="cls-59" d="M492.67,2373.73c0,2.38,4.32,5.47,6.48,7.41,44.66,42.78,104.37,74.33,170.67,99.9,35.47,13.78,72.57,26.32,113.05,34.8,41.09,8.71,84.87,13.47,132.71,17.23,47.72,3.76,94.97,4.57,138.79,10.36,43.89,5.81,83.01,15.13,118.16,29.61,69.78,28.75,106.32,81.07,130.61,149.95,16.68,4.2,33.56,8.34,47.85,14.64-1.59-7.79-5.09-15.5-8.46-22.44-24.52-51.05-61.11-90.79-105.21-126.17-49.06-39.36-107.37-72.83-172.52-99.37-121.64-49.28-273.26-74.46-406.35-116.41-16.49-5.15-30.75-11.28-50.96-8.1,79.06,41.79,179.42,58.86,278.71,83.89,32.1,8.18,64.05,16.99,95.11,25.93,61.18,17.53,121.07,37.25,174.01,66.08,37.2,20.27,73.93,44.19,104.8,71.66,11.14,10,22.02,20.27,29.47,31.5l1.27.84c2.35,4.38-2.88-1.59-1.32-.11-8.97-8.25-18.02-18.47-27.83-26.73-33.79-27.92-76.33-51.28-122.75-68.88-62.57-23.77-135.77-38.67-208.92-52.55-74.74-14.12-151.64-24.88-218.48-44.47-57.84-16.79-113.97-37.7-156-69.46-5.19-3.85-13.33-12.57-17.25-13.56l-2.09-.38c71.33-6.22,138.44-5.96,175.78-5.08-3.49-.05-7.03-.06-10.51-.05,158.37,44.72,333.46,75.02,457.47,149.03l.13-.04,11.22,7.8,69.49,45.17s21.24,17.99,24.1,20.74c23.54,22.61,44.78,45.46,62.67,73.05,21.08,32.37,39.45,68.46,49.24,109.37l-1.36-.12c-21.27-16.21-53.03-23.29-81.92-33.01-20.71-71.77-63.62-124.52-139.21-149.53-3.76-1.54-22.9-9.29-41.46-13.74-20.69-4.94-35.4-6.1-56.7-7.78-.87-.06-2.04-.04-3.34.03-59.48-6.84-120.25-9.28-178.55-13.86-59.94-4.73-116.9-16.77-166.25-32.16-86.67-26.84-161.9-66.72-216.68-119.86-7.22-7.15-12.82-15.51-20.66-22,7.73-1.04,15.26-2.29,23.01-3.15"/>
    <path class="cls-51" d="M1766.72,2366.22c1.8-.04,3.68-.09,5.63-.13l-.37.1c-1.77.01-3.52,0-5.27.03"/>
    <path class="cls-51" d="M1937.5,2373.19l46.83,4.39c-1.45,1.68-3.58,3.34-4.92,4.54-44.65,42.78-104.36,74.35-170.66,99.92-35.47,13.77-72.57,26.3-113.06,34.79-41.09,8.72-84.87,13.47-132.71,17.24-47.7,3.75-94.96,4.57-138.78,10.34-43.9,5.83-83.01,15.14-118.15,29.62-69.79,28.75-106.34,81.08-130.62,149.94-16.68,4.22-33.58,8.37-47.85,14.66,1.6-7.8,5.09-15.52,8.46-22.44,24.52-51.05,61.1-90.79,105.21-126.18,49.06-39.37,107.37-72.84,172.53-99.36,121.63-49.28,273.25-74.47,406.35-116.41,9.77-3.05,18.76-6.4,28.67-8.01,6.76.16,13.72.38,20.84.64-78.83,41.24-178.56,58.26-277.24,83.16-32.11,8.18-64.07,16.98-95.13,25.92-61.18,17.55-121.07,37.25-174,66.08-37.22,20.27-73.95,44.17-104.81,71.64-11.14,10.02-22.02,20.29-29.45,31.52l-1.27.85c-2.36,4.38,2.87-1.6,1.32-.1,8.97-8.26,18.02-18.47,27.84-26.76,33.76-27.91,76.32-51.26,122.73-68.88,62.58-23.77,135.78-38.66,208.92-52.54,74.75-14.13,151.65-24.89,218.49-44.47,57.83-16.79,113.98-37.69,155.99-69.46,4.54-3.36,11.33-10.45,15.6-12.84,1.3.12,2.56.17,3.87.28l-2.09.38c-.8.21-1.8.79-2.89,1.53"/>
    <path class="cls-59" d="M1986.22,2373.73c0,2.38-4.33,5.47-6.49,7.41-44.66,42.78-104.36,74.33-170.66,99.9-35.47,13.78-72.57,26.32-113.06,34.8-41.09,8.71-84.86,13.47-132.7,17.23-47.72,3.76-94.98,4.57-138.79,10.36-43.89,5.81-83.01,15.13-118.17,29.61-69.78,28.75-106.32,81.07-130.6,149.95-16.68,4.2-33.56,8.34-47.85,14.64,1.59-7.79,5.09-15.5,8.46-22.44,24.52-51.05,61.11-90.79,105.21-126.17,49.05-39.36,107.37-72.83,172.51-99.37,121.64-49.28,273.27-74.46,406.36-116.41,16.5-5.15,30.75-11.28,50.96-8.1-79.06,41.79-179.42,58.86-278.71,83.89-32.1,8.18-64.05,16.99-95.12,25.93-61.18,17.53-121.06,37.25-174,66.08-37.21,20.27-73.95,44.19-104.82,71.66-11.14,10-22.01,20.27-29.47,31.5l-1.26.84c-2.36,4.38,2.87-1.59,1.31-.11,8.97-8.25,18.03-18.47,27.84-26.73,33.78-27.92,76.33-51.28,122.74-68.88,62.58-23.77,135.78-38.67,208.93-52.55,74.74-14.12,151.64-24.88,218.48-44.47,57.84-16.79,113.97-37.7,156-69.46,5.19-3.85,13.33-12.57,17.24-13.56l2.1-.38c-71.32-6.22-138.44-5.96-175.78-5.08,3.48-.05,7.03-.06,10.5-.05-158.36,44.72-333.45,75.02-457.47,149.03l-.13-.04-11.22,7.8-69.5,45.17s-21.23,17.99-24.09,20.74c-23.54,22.61-44.78,45.46-62.66,73.05-21.09,32.37-39.47,68.46-49.25,109.37l1.36-.12c21.27-16.21,53.03-23.29,81.91-33.01,20.72-71.77,63.62-124.52,139.21-149.53,3.77-1.54,22.9-9.29,41.46-13.74,20.68-4.94,35.38-6.1,56.7-7.78.87-.06,2.04-.04,3.33.03,59.49-6.84,120.27-9.28,178.56-13.86,59.94-4.73,116.88-16.77,166.25-32.16,86.67-26.84,161.91-66.72,216.68-119.86,7.22-7.15,12.82-15.51,20.66-22-7.73-1.04-15.26-2.29-23.01-3.15"/>
    <path class="cls-14" d="M468.57,1708.76c-130.77,27.74-311.44,34.09-435.55-55.28-.05,5.51,1.43,12.79,0,11.7l61.43,175.83L0,1879.57s37,121.09,279.25,113.43c211.16-6.69,298.24-59.01,373.33-5.98,11.7,8.88,20.66,21.31,27.44,34.58.55,1.07-18.58-98.22-22.68-152.65-14.13-122.42-95.02-179.84-188.77-160.19"/>
    <path class="cls-14" d="M2017.52,1706.34c131.18,27.82,311.38,37.47,435.55-52.87,1.09-.79-61.43,185.13-61.43,185.13l94.45,40.96s-37,118.69-279.24,111.03c-211.16-6.69-298.24-59.02-373.33-5.99-11.72,8.88-20.66,21.32-27.44,34.6-.55,1.06,18.56-98.23,22.67-152.66,14.13-122.42,95.02-179.83,188.77-160.19"/>
    <path class="cls-14" d="M921.48,598.37c-12.04,21.7-20.23,28.51-27.77,32.14-7.55,3.61-49.22,24.16-195.91-2.26-77.77-8.21-105.58-9.62-130.75,9.69-18.88,14.49-27.91,33.34-30.92,37.31-1,1.32,28.61-120.23,28.61-120.23l-45.16-24.2s17.65-78.54,133.48-73.56c100.96,4.32,207.52,38.04,243.41,3.93,19.89-20.29,23.02-69.44,23.02-69.44l2,206.62Z"/>
    <path class="cls-14" d="M1607.6,599c12.05,21.7,20.28,28.52,27.82,32.14,7.57,3.62,49.29,24.18,196.16-2.23,77.87-8.19,105.72-9.61,130.91,9.71,18.06,13.85,28.34,33.42,31.68,37.7,1.33,1.7-29.38-120.62-29.38-120.62l45.22-24.88s-17.7-77.87-133.67-72.92c-101.07,4.34-207.77,38.02-243.71,3.91-19.92-20.29-23.05-69.44-23.05-69.44l-1.99,206.62Z"/>
    <g class="cls-72">
      <rect class="cls-71" x="962.23" y="469.06" width="571.26" height="571.27"/>
    </g>
    <g class="cls-11">
      <rect class="cls-75" x="1042.08" y="541.96" width="411.66" height="685.1"/>
    </g>
    <g class="cls-2">
      <rect class="cls-48" x="603.01" y="1222.01" width="1277.93" height="887.09"/>
    </g>
    <g class="cls-35">
      <rect class="cls-41" x="700.14" y="1749.61" width="1082.11" height="170.3"/>
    </g>
    <g class="cls-34">
      <rect class="cls-21" x="605.54" y="1410.81" width="1272.86" height="169.25"/>
    </g>
    <polygon class="cls-26" points="927.07 282.3 928.29 294.28 920.65 295.07 920.23 290.78 904.52 292.39 905.74 304.29 925.49 302.28 926.27 309.98 906.52 311.99 907.9 325.55 923.6 323.94 923.15 319.67 930.79 318.89 932 330.8 894.78 334.6 894 326.96 898.06 326.54 894.69 293.38 890.62 293.81 889.83 286.11 927.07 282.3"/>
    <path class="cls-26" d="M945.62,315.61l.42,5.07c4.65.62,8.04.69,10.83.47,5.5-.47,7.79-3.16,7.51-6.38-.37-4.57-6.04-5.25-11.81-6.34-8.63-1.66-15.58-5.75-16.26-13.97-.83-9.77,6.85-14.24,16.5-15.04,5.57-.46,10.63-.16,17.37,1.28l.99,11.93-7.64.63-.44-5.35c-4.28-.51-6.86-.51-9.58-.27-5.01.41-7.11,2.75-6.87,5.68.33,4.07,5.63,5.42,11.68,6.36,8.59,1.22,15.63,4.66,16.34,13.15.87,10.36-6.74,15.67-17.1,16.55-5.56.45-11.84.26-18.64-1.12l-1.01-11.98,7.72-.65Z"/>
    <path class="cls-26" d="M989.69,312.1l.34,5.08c4.64.68,8.03.81,10.83.62,5.51-.38,7.83-3.06,7.61-6.25-.3-4.58-5.97-5.34-11.71-6.54-8.62-1.78-15.51-5.98-16.06-14.21-.66-9.8,7.08-14.14,16.75-14.79,5.57-.38,10.62-.01,17.34,1.55l.81,11.94-7.65.52-.36-5.36c-4.28-.57-6.87-.62-9.59-.42-5.01.33-7.14,2.64-6.95,5.57.27,4.08,5.54,5.51,11.58,6.55,8.56,1.35,15.55,4.9,16.15,13.41.7,10.37-6.98,15.56-17.36,16.27-5.58.39-11.86.09-18.62-1.39l-.84-12.01,7.73-.53Z"/>
    <path class="cls-26" d="M1053.14,273.31l15.25,40.33,3.94-.22.41,7.67-19.19,1.04-.41-7.66,4.5-.24-2.45-6.99-14.83.8-1.98,7.22,4.58-.25.42,7.66-18.63,1.02-.41-7.67,4.43-.25,9.23-33.89-4.8.27-.41-7.74,20.34-1.11ZM1046.74,282.49l-4.75,18.3,11.09-.61-6.27-17.69h-.07Z"/>
    <polygon class="cls-26" points="1131.7 270.06 1132.14 282.09 1124.41 282.37 1124.25 278.07 1117.95 278.29 1119.16 311.59 1123.24 311.45 1123.52 319.1 1105.46 319.76 1105.19 312.1 1109.28 311.95 1108.07 278.65 1101.7 278.88 1101.84 283.17 1094.19 283.45 1093.76 271.42 1131.7 270.06"/>
    <polygon class="cls-26" points="1175.37 268.79 1175.69 280.84 1168.01 281.03 1167.9 276.73 1152.11 277.15 1152.45 289.13 1172.31 288.61 1172.51 296.36 1152.64 296.88 1153 310.5 1168.78 310.09 1168.66 305.78 1176.34 305.58 1176.66 317.56 1139.22 318.54 1139.02 310.87 1143.1 310.75 1142.23 277.42 1138.14 277.53 1137.94 269.79 1175.37 268.79"/>
    <path class="cls-26" d="M1207.22,268.27c10.24-.14,16.23,5.42,16.37,14.89.11,6.66-3.19,11.95-8.96,13.69l9.58,12.27,3.22-.06.13,7.68-18.8.27-.11-7.67,3.07-.03-7.9-10.64-7.02.11.14,10.75,4.09-.06.12,7.67-18.07.27-.12-7.67,4.09-.05-.51-33.35-4.09.04-.12-7.73,24.88-.39ZM1196.67,291.02l9.69-.15c4.09-.07,7.21-2.4,7.13-7.55-.09-4.88-3.06-7.36-7.21-7.29l-9.84.16.23,14.84Z"/>
    <path class="cls-26" d="M1257.43,267.82c10.25-.04,16.17,5.6,16.2,15.07.03,6.66-3.33,11.91-9.13,13.59l9.45,12.36h3.23s.03,7.66.03,7.66l-18.79.09-.04-7.67h3.1s-7.79-10.74-7.79-10.74l-7.03.03.06,10.75h4.07s.03,7.65.03,7.65l-18.07.09-.03-7.67,4.09-.02-.14-33.35-4.09.02-.03-7.75,24.88-.1ZM1246.62,290.45l9.69-.03c4.09-.03,7.23-2.33,7.21-7.48-.02-4.91-2.97-7.39-7.14-7.37l-9.81.03.05,14.85Z"/>
    <path class="cls-26" d="M1312.94,267.87l12.82,41.17,3.95.02-.05,7.67-19.22-.11.04-7.67,4.51.02-2.02-7.11-14.85-.08-2.4,7.09,4.59.02-.05,7.67-18.64-.1.04-7.67,4.46.02,11.22-33.28-4.8-.02.05-7.75,20.36.1ZM1306.01,276.66l-5.83,17.98,11.12.04-5.21-18.02h-.08Z"/>
    <path class="cls-26" d="M1390,269.06l-.23,12.05-7.68-.16.09-4.29-15.78-.31-.24,11.97,19.88.39-.16,7.76-19.86-.4-.26,13.63,15.78.3.08-4.31,7.67.16-.23,11.97-37.43-.72.14-7.67,4.1.09.64-33.34-4.09-.09.15-7.74,37.43.72ZM1376.52,265.21l-7.16-.15,4.14-9.96,8.89.17-5.86,9.94Z"/>
    <polygon class="cls-26" points="1461.32 271.3 1461.07 279.02 1456.92 278.88 1455.54 319.84 1445.44 319.51 1426.78 287.99 1426.63 287.99 1425.86 311.2 1430.23 311.33 1429.98 318.99 1412.44 318.42 1412.69 310.76 1416.77 310.87 1417.89 277.58 1413.79 277.45 1414.06 269.71 1427.73 270.17 1446.91 303.08 1447.07 303.08 1447.89 278.59 1443.52 278.44 1443.78 270.7 1461.32 271.3"/>
    <path class="cls-26" d="M1466.24,295.53c.63-13.74,5.71-24.51,22.82-23.7,17.11.78,21.14,11.94,20.51,25.7-.64,13.89-5.68,25.21-22.79,24.43-17.12-.79-21.18-12.53-20.54-26.42M1476.63,296.01c-.45,9.67.9,17.84,10.5,18.28,9.59.45,11.61-7.59,12.05-17.24.46-9.67-.87-17.06-10.46-17.51-9.6-.43-11.65,6.8-12.09,16.46Z"/>
    <path class="cls-26" d="M1523.9,309.04l-.29,5.09c4.53,1.26,7.87,1.81,10.66,1.96,5.52.33,8.16-2.04,8.35-5.27.26-4.58-5.26-6.05-10.83-7.93-8.31-2.86-14.64-7.89-14.17-16.13.56-9.81,8.8-13.15,18.47-12.6,5.58.33,10.55,1.32,17.02,3.7l-.68,11.97-7.67-.43.3-5.38c-4.17-1.11-6.72-1.46-9.45-1.62-5.01-.28-7.43,1.72-7.6,4.67-.23,4.09,4.81,6.17,10.68,7.93,8.33,2.4,14.84,6.82,14.36,15.32-.6,10.4-8.88,14.59-19.26,13.99-5.59-.31-11.78-1.4-18.33-3.71l.68-12.03,7.73.45Z"/>
    <path class="cls-26" d="M1568,311.67l-.35,5.07c4.51,1.32,7.85,1.91,10.63,2.09,5.51.37,8.17-1.95,8.4-5.17.32-4.58-5.19-6.1-10.73-8.07-8.27-2.93-14.55-8.02-13.98-16.25.66-9.8,8.94-13.04,18.59-12.39,5.58.39,10.53,1.45,16.98,3.89l-.81,11.94-7.65-.52.37-5.36c-4.16-1.14-6.73-1.54-9.44-1.72-5.01-.34-7.44,1.66-7.65,4.58-.28,4.08,4.76,6.22,10.59,8.05,8.31,2.5,14.76,6.96,14.19,15.47-.7,10.37-9.04,14.47-19.41,13.77-5.58-.37-11.75-1.52-18.27-3.9l.82-12.02,7.73.53Z"/>
    <path class="cls-26" d="M1636.07,281.78l9.73,42.02,3.92.31-.62,7.66-19.17-1.55.62-7.65,4.5.36-1.48-7.25-14.81-1.19-2.94,6.89,4.57.37-.62,7.65-18.6-1.5.62-7.65,4.44.35,13.69-32.36-4.79-.37.63-7.74,20.3,1.65ZM1628.51,290.02l-7.16,17.48,11.07.9-3.84-18.38h-.07Z"/>
    <path class="cls-14" d="M1241.22,2150.04c-349.65-2.01-1001.78-7-1001.78-113.39v312.43c0,95.21,619.72,122.53,1000.98,122.87h1.54c381.26-.34,1000.98-27.66,1000.98-122.87v-312.43c0,106.38-652.07,111.38-1001.73,113.39"/>
    <g class="cls-82">
      <rect class="cls-37" x="239.45" y="2048.23" width="2003.47" height="416.19"/>
    </g>
    <polygon class="cls-26" points="545.99 2225.13 544.39 2241.23 535.73 2240.38 528.89 2309.7 537.52 2310.56 535.95 2326.51 498.23 2322.8 499.8 2306.83 508.46 2307.69 513.25 2259.22 512.95 2259.21 482.12 2321.19 468.99 2319.89 449.28 2252.9 448.98 2252.87 444.18 2301.31 453.29 2302.23 451.7 2318.17 415.17 2314.56 416.76 2298.61 425.23 2299.44 432.11 2230.12 423.62 2229.27 425.2 2213.16 458.75 2216.49 479.98 2286.49 480.28 2286.52 513.03 2221.86 545.99 2225.13"/>
    <path class="cls-26" d="M651.8,2233.51l-1.3,16.16-8.66-.69-4.01,49.64c-2.16,26.62-18.88,36.1-42.94,34.15-24.08-1.93-39.21-13.99-37.07-40.61l4-49.65-8.52-.67,1.31-16.17,37.68,3.07-1.31,16.14-8.52-.69-4.01,49.65c-.88,10.9,1.56,21.65,17.87,22.96,15.7,1.26,20.13-8.92,21.02-19.82l4-49.65-8.67-.7,1.29-16.15,37.84,3.04Z"/>
    <polygon class="cls-26" points="760.09 2240.91 759.01 2257.05 750.35 2256.48 744.64 2342.01 723.56 2340.6 686.72 2273.41 686.43 2273.39 683.2 2321.84 692.31 2322.45 691.25 2338.45 654.63 2335.99 655.69 2320 664.2 2320.58 668.85 2251.04 660.32 2250.48 661.41 2234.33 689.96 2236.21 727.78 2306.35 728.09 2306.35 731.5 2255.21 722.39 2254.6 723.46 2238.46 760.09 2240.91"/>
    <polygon class="cls-26" points="774.08 2327.52 778.03 2257.89 769.49 2257.41 770.41 2241.24 808.16 2243.39 807.23 2259.56 798.7 2259.08 794.73 2328.7 803.27 2329.18 802.35 2345.2 764.63 2343.07 765.53 2327.03 774.08 2327.52"/>
    <path class="cls-26" d="M897.87,2321.9l-1.16,23.95c-14.11,3.37-24.82,4.36-36.96,3.77-35.78-1.74-44.2-26.16-42.79-55.37,1.41-28.74,12.1-51.19,47.88-49.44,12.13.57,22.7,2.59,36.4,7.46l-1.15,23.98-16.18-.79.55-11.53c-8-2.03-13.07-2.58-18.76-2.86-18.87-.91-26.05,14.06-27.03,34.27-1.06,21.71,4.63,37.43,23.51,38.35,5.68.27,10.78.22,18.97-1.18l.54-11.39,16.17.79Z"/>
    <path class="cls-26" d="M919.95,2334.74l2.81-69.63-8.54-.34.66-16.16,37.74,1.51-.66,16.17-8.52-.35-2.81,69.62,8.52.35-.64,16.03-37.73-1.52.64-16.03,8.53.35ZM941.54,2242.17l-14.97-.61,9.08-20.61,18.56.74-12.67,20.48Z"/>
    <path class="cls-26" d="M1015.33,2252.12c21.44.69,33.36,13.09,32.72,33.03-.65,20.23-13.31,31.39-34.75,30.7l-22.8-.73-.7,22.2,8.55.28-.51,16.03-37.78-1.21.5-16.04,8.56.27,2.22-69.72-8.54-.27.5-16.18,52.04,1.63ZM991.01,2299.08l20.54.67c8.7.26,15.02-4.64,15.35-15.28.33-10.35-5.63-15.93-14.34-16.21l-20.55-.65-.99,31.47Z"/>
    <polygon class="cls-26" points="1067.94 2339.67 1069.68 2269.93 1061.13 2269.73 1061.53 2253.53 1099.32 2254.48 1098.92 2270.67 1090.37 2270.46 1088.64 2340.19 1097.18 2340.4 1096.79 2356.44 1059 2355.5 1059.39 2339.45 1067.94 2339.67"/>
    <path class="cls-26" d="M1109.96,2305.06c.49-28.79,10.47-51.56,46.3-50.96,35.84.57,44.9,23.68,44.44,52.48-.49,29.09-10.34,53.06-46.18,52.47-35.83-.59-45.02-24.89-44.55-53.98M1131.71,2305.43c-.35,20.23,2.98,37.25,23.06,37.58,20.11.34,23.83-16.56,24.17-36.78.35-20.24-2.85-35.61-22.94-35.93-20.09-.35-23.95,14.9-24.29,35.14Z"/>
    <path class="cls-26" d="M1295.57,2257c35.08.09,45.06,21.57,44.99,50.35-.08,29.08-10.18,51.71-45.27,51.6l-46.64-.12.03-16.05,8.55.02.2-69.72h-8.53s.03-16.21.03-16.21l46.63.13ZM1295.34,2342.92c19.34.04,23.44-15.4,23.5-35.63.05-20.22-3.96-34.05-23.31-34.11l-17.39-.02-.18,69.7,17.39.06Z"/>
    <polygon class="cls-26" points="1430.51 2256.52 1430.7 2281.71 1414.63 2281.83 1414.58 2272.83 1381.58 2273.06 1381.75 2298.1 1423.29 2297.81 1423.4 2314.01 1381.88 2314.3 1382.07 2342.78 1415.06 2342.56 1414.99 2333.56 1431.04 2333.45 1431.22 2358.48 1352.95 2359.04 1352.84 2342.99 1361.39 2342.92 1360.88 2273.19 1352.35 2273.26 1352.24 2257.07 1430.51 2256.52"/>
    <path class="cls-26" d="M1530.43,2254.78c21.43-.45,33.97,11.28,34.39,31.22.42,20.24-11.63,32.06-33.08,32.49l-22.78.46.47,22.19,8.54-.16.34,16.03-37.79.78-.34-16.03,8.55-.17-1.45-69.72-8.55.18-.34-16.19,52.04-1.07ZM1508.63,2302.93l20.54-.42c8.7-.19,14.75-5.42,14.52-16.07-.22-10.35-6.47-15.62-15.18-15.42l-20.54.42.66,31.49Z"/>
    <path class="cls-26" d="M1625.32,2252.17l29.92,85.1,8.23-.26.5,16.04-40.17,1.24-.5-16.05,9.45-.27-4.8-14.73-31.04.94-4.5,15,9.59-.28.5,16.03-38.99,1.2-.49-16.06,9.3-.28,20.96-70.4-10.05.29-.5-16.2,42.58-1.3ZM1611.5,2271.06l-10.84,38,23.23-.71-12.24-37.28h-.15Z"/>
    <polygon class="cls-26" points="1750.46 2324.22 1751.54 2349.22 1674.42 2352.54 1673.73 2336.52 1682.27 2336.14 1679.27 2266.52 1670.73 2266.89 1670.03 2250.72 1707.77 2249.09 1708.46 2265.27 1699.92 2265.63 1702.93 2335.26 1734.68 2333.9 1734.29 2324.9 1750.46 2324.22"/>
    <polygon class="cls-26" points="1878.39 2239.93 1879.33 2256.09 1870.66 2256.6 1874.73 2326.22 1883.4 2325.72 1884.32 2341.75 1846.44 2343.96 1845.51 2327.92 1854.19 2327.42 1851.35 2278.76 1851.07 2278.77 1830.28 2344.9 1817.11 2345.66 1787.13 2282.5 1786.82 2282.51 1789.67 2331.19 1798.8 2330.66 1799.73 2346.67 1763.05 2348.82 1762.11 2332.78 1770.65 2332.29 1766.6 2262.68 1758.05 2263.18 1757.11 2246.99 1790.8 2245.02 1822.73 2310.94 1823.03 2310.91 1845.3 2241.85 1878.39 2239.93"/>
    <path class="cls-26" d="M1951.41,2234.46l33.77,83.6,8.22-.65,1.22,16.01-40.07,3.07-1.24-15.98,9.44-.74-5.47-14.48-30.96,2.37-3.8,15.18,9.58-.72,1.2,16-38.85,2.97-1.24-16,9.28-.69,17.71-71.3-10.01.77-1.25-16.15,42.47-3.24ZM1938.46,2253.94l-9.08,38.44,23.16-1.78-13.93-36.67h-.15Z"/>
    <path class="cls-26" d="M2019.68,2301.77l1,10.6c9.73,1.19,16.83,1.29,22.66.75,11.49-1.08,16.22-6.77,15.61-13.51-.9-9.56-12.77-10.86-24.86-13.04-18.08-3.29-32.72-11.71-34.33-28.88-1.91-20.45,14.09-29.93,34.24-31.82,11.65-1.09,22.24-.56,36.37,2.34l2.31,24.93-15.97,1.5-1.03-11.2c-9-.97-14.41-.92-20.08-.39-10.46.98-14.8,5.9-14.24,12.02.79,8.52,11.89,11.25,24.56,13.06,18.01,2.4,32.82,9.46,34.47,27.22,2.03,21.64-13.78,32.91-35.45,34.94-11.64,1.07-24.77.8-39.02-1.93l-2.35-25.08,16.13-1.52Z"/>
    <g class="cls-3">
      <rect class="cls-25" x=".01" y="1653.48" width="680.54" height="357.5"/>
    </g>
    <g class="cls-77">
      <rect class="cls-65" x="1805.52" y="1653.48" width="680.58" height="357.5"/>
    </g>
    <g class="cls-44">
      <rect class="cls-84" x="1607.59" y="399.85" width="402.42" height="276.49"/>
    </g>
    <path class="cls-26" d="M1993.92,1803.07c22.24,2.14,27.3,16.34,25.54,34.61-1.77,18.43-9.53,32.17-31.77,30.02l-29.55-2.83.96-10.17,5.42.52,4.26-44.19-5.42-.52.99-10.26,29.57,2.84ZM1988.67,1857.53c12.26,1.18,15.77-8.36,17.01-21.19,1.23-12.84-.48-21.83-12.76-23.01l-11.02-1.06-4.25,44.2,11.02,1.06Z"/>
    <polygon class="cls-26" points="2076.62 1810.37 2075.59 1826.38 2065.37 1825.73 2065.75 1820.01 2044.78 1818.64 2043.74 1834.56 2070.15 1836.28 2069.49 1846.58 2043.08 1844.87 2041.9 1862.98 2062.88 1864.34 2063.26 1858.61 2073.46 1859.28 2072.42 1875.2 2022.64 1871.99 2023.31 1861.77 2028.74 1862.12 2031.62 1817.79 2026.17 1817.42 2026.84 1807.13 2076.62 1810.37"/>
    <polygon class="cls-26" points="2127.44 1866.47 2127.22 1876.68 2093.79 1875.96 2094 1865.75 2104.52 1865.96 2105.45 1822.81 2095.12 1823.05 2095.32 1814.26 2112.3 1810.91 2118.13 1811.03 2116.94 1866.25 2127.44 1866.47"/>
    <path class="cls-26" d="M2165.77,1848.7c-3.26,3.99-8.35,6.63-13.79,6.61-12.31-.09-19.9-8.26-19.82-22.57.09-13.76,9.5-21.9,22.6-21.83,17.36.13,23.77,14.48,23.67,29.75-.18,29.13-13.32,37.16-28.49,37.07-6.21-.04-11.06-1.03-16.04-2.77l.09-14.22,10.23.06-.03,6.21c1.6.3,2.85.51,4.76.51,9.35.06,17.05-7.53,17.03-18.71l-.19-.1ZM2155.36,1821.24c-5.44-.04-9.96,3.84-10,11.58-.03,5.16,1.83,11.67,10.05,11.71,3.91.02,7.08-2.14,9.57-5.09.83-8.88-.55-18.15-9.61-18.2Z"/>
    <path class="cls-26" d="M2217.64,1848.8c-3.25,4-8.32,6.67-13.77,6.67-12.32-.02-19.94-8.17-19.91-22.5.03-13.75,9.41-21.95,22.49-21.91,17.39.04,23.86,14.38,23.82,29.66-.07,29.13-13.17,37.22-28.35,37.19-6.21,0-11.07-.97-16.04-2.71l.03-14.24,10.21.02v6.22c1.62.29,2.86.48,4.77.48,9.36.02,17.02-7.6,16.94-18.77l-.19-.1ZM2207.1,1821.37c-5.44-.02-9.94,3.88-9.96,11.63,0,5.16,1.88,11.64,10.1,11.66,3.91.02,7.07-2.17,9.55-5.12.79-8.9-.62-18.15-9.69-18.17Z"/>
    <path class="cls-26" d="M2236.18,1843.96c.22-18.35,5.06-32.93,24.57-32.69,19.5.24,23.91,14.91,23.69,33.26-.23,18.55-5,33.89-24.48,33.65-19.5-.25-24.01-15.68-23.78-34.22M2249.37,1844.11c-.16,12.91,2.01,23.74,10.71,23.84,8.69.1,11.12-10.68,11.27-23.57.15-12.91-2.03-22.67-10.72-22.79-8.69-.1-11.1,9.62-11.26,22.52Z"/>
    <polygon class="cls-26" points="204 1860.95 203.64 1870.66 171.86 1869.47 172.22 1859.76 182.21 1860.13 183.75 1819.1 173.93 1819.18 174.24 1810.82 190.46 1807.88 195.99 1808.09 194.02 1860.58 204 1860.95"/>
    <path class="cls-26" d="M208.43,1820.2c-.14-7.18,2.78-11.87,10.94-12.02,7.99-.15,11.08,4.42,11.21,11.59.14,7.17-2.77,11.85-10.75,12.01-8.17.16-11.25-4.41-11.39-11.57M214.97,1820.05c.09,4.1,1.13,6.7,4.76,6.63,3.46-.06,4.5-2.72,4.41-6.81-.09-4.08-1.22-6.6-4.66-6.54-3.63.08-4.58,2.64-4.51,6.71Z"/>
    <path class="cls-26" d="M278.6,1809.34c21.25.01,27.32,13.02,27.31,30.47-.02,17.63-6.14,31.32-27.38,31.3l-28.26-.02.02-9.72h5.17s.05-42.23.05-42.23h-5.18s.01-9.83.01-9.83l28.25.04ZM278.53,1861.39c11.72.02,14.19-9.34,14.2-21.61.02-12.27-2.44-20.63-14.14-20.64h-10.54s-.06,42.22-.06,42.22l10.54.02Z"/>
    <polygon class="cls-26" points="355.09 1807.48 355.65 1822.73 345.94 1823.07 345.74 1817.64 325.77 1818.36 326.32 1833.52 351.47 1832.6 351.81 1842.41 326.67 1843.33 327.31 1860.56 347.27 1859.85 347.08 1854.4 356.79 1854.05 357.34 1869.2 309.95 1870.93 309.61 1861.21 314.77 1861.02 313.25 1818.83 308.07 1819 307.71 1809.2 355.09 1807.48"/>
    <path class="cls-26" d="M405.33,1804.69l.54,9.79-5.17.29,1.99,35.45c.68,12.51-5.37,17.66-15.37,18.23-3.79.21-7.08.12-9.65-.28l.47-9.76c1.91.17,3.46.26,5.18.17,4.08-.23,7.16-1.95,6.85-7.66l-1.97-35.45-5.17.29-.55-9.8,22.85-1.27Z"/>
    <path class="cls-26" d="M442.7,1802.66l19.4,51.02,4.99-.28.54,9.71-24.3,1.35-.54-9.7,5.71-.33-3.13-8.82-18.76,1.04-2.48,9.14,5.78-.31.54,9.69-23.57,1.32-.53-9.7,5.61-.31,11.61-42.93-6.07.33-.54-9.79,25.74-1.44ZM434.62,1814.3l-5.98,23.16,14.06-.79-7.98-22.38h-.1Z"/>
    <polygon class="cls-26" points="529.54 1799.15 529.88 1808.95 524.61 1809.13 526.43 1861.06 513.63 1861.5 487.31 1823.26 487.12 1823.28 488.15 1852.67 493.68 1852.47 494.03 1862.18 471.79 1862.96 471.45 1853.24 476.62 1853.07 475.16 1810.87 469.97 1811.04 469.63 1801.23 486.97 1800.65 514.08 1840.59 514.27 1840.57 513.19 1809.54 507.65 1809.74 507.3 1799.93 529.54 1799.15"/>
    <g class="cls-53">
      <rect class="cls-87" x="519.57" y="399.91" width="401.9" height="276.43"/>
    </g>
  </g>
</svg>